<svg width="687" height="264" viewBox="0 0 687 264" fill="none" xmlns="http://www.w3.org/2000/svg">
<path d="M235.288 260V249.78H238.452C239.059 249.78 239.591 249.906 240.048 250.158C240.505 250.401 240.86 250.741 241.112 251.18C241.364 251.619 241.49 252.132 241.49 252.72C241.49 253.411 241.308 254.003 240.944 254.498C240.589 254.993 240.104 255.333 239.488 255.52L241.63 260H240.146L238.186 255.66H236.548V260H235.288ZM236.548 254.526H238.452C238.975 254.526 239.395 254.363 239.712 254.036C240.029 253.7 240.188 253.261 240.188 252.72C240.188 252.169 240.029 251.731 239.712 251.404C239.395 251.077 238.975 250.914 238.452 250.914H236.548V254.526ZM246.595 260.14C245.988 260.14 245.456 260.019 244.999 259.776C244.551 259.533 244.201 259.193 243.949 258.754C243.706 258.306 243.585 257.788 243.585 257.2V255.1C243.585 254.503 243.706 253.985 243.949 253.546C244.201 253.107 244.551 252.767 244.999 252.524C245.456 252.281 245.988 252.16 246.595 252.16C247.201 252.16 247.729 252.281 248.177 252.524C248.634 252.767 248.984 253.107 249.227 253.546C249.479 253.985 249.605 254.503 249.605 255.1V256.458H244.817V257.2C244.817 257.807 244.971 258.273 245.279 258.6C245.587 258.917 246.025 259.076 246.595 259.076C247.08 259.076 247.472 258.992 247.771 258.824C248.069 258.647 248.251 258.385 248.317 258.04H249.577C249.493 258.684 249.175 259.197 248.625 259.58C248.083 259.953 247.407 260.14 246.595 260.14ZM248.373 255.618V255.1C248.373 254.493 248.219 254.027 247.911 253.7C247.612 253.373 247.173 253.21 246.595 253.21C246.025 253.21 245.587 253.373 245.279 253.7C244.971 254.027 244.817 254.493 244.817 255.1V255.506H248.471L248.373 255.618ZM254.751 260.112C254.228 260.112 253.771 260.033 253.379 259.874C252.996 259.706 252.688 259.473 252.455 259.174C252.231 258.875 252.096 258.521 252.049 258.11H253.309C253.365 258.381 253.514 258.595 253.757 258.754C254.009 258.913 254.34 258.992 254.751 258.992H255.339C255.834 258.992 256.202 258.894 256.445 258.698C256.688 258.493 256.809 258.222 256.809 257.886C256.809 257.559 256.697 257.303 256.473 257.116C256.258 256.92 255.936 256.789 255.507 256.724L254.471 256.556C253.715 256.425 253.15 256.192 252.777 255.856C252.413 255.511 252.231 255.011 252.231 254.358C252.231 253.667 252.45 253.135 252.889 252.762C253.328 252.379 253.986 252.188 254.863 252.188H255.395C256.132 252.188 256.725 252.361 257.173 252.706C257.621 253.051 257.892 253.518 257.985 254.106H256.725C256.669 253.863 256.529 253.672 256.305 253.532C256.081 253.383 255.778 253.308 255.395 253.308H254.863C254.387 253.308 254.037 253.397 253.813 253.574C253.598 253.751 253.491 254.017 253.491 254.372C253.491 254.689 253.584 254.923 253.771 255.072C253.958 255.221 254.252 255.329 254.653 255.394L255.689 255.562C256.52 255.693 257.122 255.935 257.495 256.29C257.878 256.645 258.069 257.158 258.069 257.83C258.069 258.539 257.84 259.099 257.383 259.51C256.935 259.911 256.254 260.112 255.339 260.112H254.751ZM263.384 260.112C262.768 260.112 262.236 259.995 261.788 259.762C261.34 259.529 260.99 259.193 260.738 258.754C260.495 258.306 260.374 257.779 260.374 257.172V255.128C260.374 254.512 260.495 253.985 260.738 253.546C260.99 253.107 261.34 252.771 261.788 252.538C262.236 252.305 262.768 252.188 263.384 252.188C264 252.188 264.532 252.305 264.98 252.538C265.428 252.771 265.773 253.107 266.016 253.546C266.268 253.985 266.394 254.507 266.394 255.114V257.172C266.394 257.779 266.268 258.306 266.016 258.754C265.773 259.193 265.428 259.529 264.98 259.762C264.532 259.995 264 260.112 263.384 260.112ZM263.384 258.992C263.934 258.992 264.364 258.838 264.672 258.53C264.98 258.222 265.134 257.769 265.134 257.172V255.128C265.134 254.531 264.98 254.078 264.672 253.77C264.364 253.462 263.934 253.308 263.384 253.308C262.842 253.308 262.413 253.462 262.096 253.77C261.788 254.078 261.634 254.531 261.634 255.128V257.172C261.634 257.769 261.788 258.222 262.096 258.53C262.413 258.838 262.842 258.992 263.384 258.992ZM272.828 260C272.38 260 271.988 259.911 271.652 259.734C271.316 259.557 271.055 259.305 270.868 258.978C270.681 258.651 270.588 258.269 270.588 257.83V250.928H267.998V249.78H271.848V257.83C271.848 258.147 271.937 258.399 272.114 258.586C272.291 258.763 272.529 258.852 272.828 258.852H275.278V260H272.828ZM279.319 260L276.743 252.3H278.031L279.739 257.48C279.841 257.788 279.935 258.087 280.019 258.376C280.103 258.656 280.163 258.875 280.201 259.034C280.247 258.875 280.313 258.656 280.397 258.376C280.481 258.087 280.569 257.788 280.663 257.48L282.329 252.3H283.603L281.027 260H279.319ZM288.567 260.14C287.961 260.14 287.429 260.019 286.971 259.776C286.523 259.533 286.173 259.193 285.921 258.754C285.679 258.306 285.557 257.788 285.557 257.2V255.1C285.557 254.503 285.679 253.985 285.921 253.546C286.173 253.107 286.523 252.767 286.971 252.524C287.429 252.281 287.961 252.16 288.567 252.16C289.174 252.16 289.701 252.281 290.149 252.524C290.607 252.767 290.957 253.107 291.199 253.546C291.451 253.985 291.577 254.503 291.577 255.1V256.458H286.789V257.2C286.789 257.807 286.943 258.273 287.251 258.6C287.559 258.917 287.998 259.076 288.567 259.076C289.053 259.076 289.445 258.992 289.743 258.824C290.042 258.647 290.224 258.385 290.289 258.04H291.549C291.465 258.684 291.148 259.197 290.597 259.58C290.056 259.953 289.379 260.14 288.567 260.14ZM290.345 255.618V255.1C290.345 254.493 290.191 254.027 289.883 253.7C289.585 253.373 289.146 253.21 288.567 253.21C287.998 253.21 287.559 253.373 287.251 253.7C286.943 254.027 286.789 254.493 286.789 255.1V255.506H290.443L290.345 255.618ZM296.724 260.112C296.201 260.112 295.744 260.033 295.352 259.874C294.969 259.706 294.661 259.473 294.428 259.174C294.204 258.875 294.068 258.521 294.022 258.11H295.282C295.338 258.381 295.487 258.595 295.73 258.754C295.982 258.913 296.313 258.992 296.724 258.992H297.312C297.806 258.992 298.175 258.894 298.418 258.698C298.66 258.493 298.782 258.222 298.782 257.886C298.782 257.559 298.67 257.303 298.446 257.116C298.231 256.92 297.909 256.789 297.48 256.724L296.444 256.556C295.688 256.425 295.123 256.192 294.75 255.856C294.386 255.511 294.204 255.011 294.204 254.358C294.204 253.667 294.423 253.135 294.862 252.762C295.3 252.379 295.958 252.188 296.836 252.188H297.368C298.105 252.188 298.698 252.361 299.146 252.706C299.594 253.051 299.864 253.518 299.958 254.106H298.698C298.642 253.863 298.502 253.672 298.278 253.532C298.054 253.383 297.75 253.308 297.368 253.308H296.836C296.36 253.308 296.01 253.397 295.786 253.574C295.571 253.751 295.464 254.017 295.464 254.372C295.464 254.689 295.557 254.923 295.744 255.072C295.93 255.221 296.224 255.329 296.626 255.394L297.662 255.562C298.492 255.693 299.094 255.935 299.468 256.29C299.85 256.645 300.042 257.158 300.042 257.83C300.042 258.539 299.813 259.099 299.356 259.51C298.908 259.911 298.226 260.112 297.312 260.112H296.724ZM314.591 260C313.928 260 313.41 259.823 313.037 259.468C312.673 259.113 312.491 258.614 312.491 257.97V253.448H310.321V252.3H312.491V250.13H313.751V252.3H316.831V253.448H313.751V257.97C313.751 258.558 314.031 258.852 314.591 258.852H316.691V260H314.591ZM322.145 260.112C321.529 260.112 320.997 259.995 320.549 259.762C320.101 259.529 319.751 259.193 319.499 258.754C319.257 258.306 319.135 257.779 319.135 257.172V255.128C319.135 254.512 319.257 253.985 319.499 253.546C319.751 253.107 320.101 252.771 320.549 252.538C320.997 252.305 321.529 252.188 322.145 252.188C322.761 252.188 323.293 252.305 323.741 252.538C324.189 252.771 324.535 253.107 324.777 253.546C325.029 253.985 325.155 254.507 325.155 255.114V257.172C325.155 257.779 325.029 258.306 324.777 258.754C324.535 259.193 324.189 259.529 323.741 259.762C323.293 259.995 322.761 260.112 322.145 260.112ZM322.145 258.992C322.696 258.992 323.125 258.838 323.433 258.53C323.741 258.222 323.895 257.769 323.895 257.172V255.128C323.895 254.531 323.741 254.078 323.433 253.77C323.125 253.462 322.696 253.308 322.145 253.308C321.604 253.308 321.175 253.462 320.857 253.77C320.549 254.078 320.395 254.531 320.395 255.128V257.172C320.395 257.769 320.549 258.222 320.857 258.53C321.175 258.838 321.604 258.992 322.145 258.992ZM338.262 260.14C337.45 260.14 336.811 259.935 336.344 259.524C335.878 259.104 335.644 258.539 335.644 257.83C335.644 257.111 335.878 256.547 336.344 256.136C336.811 255.725 337.441 255.52 338.234 255.52H340.614V254.75C340.614 254.274 340.47 253.91 340.18 253.658C339.9 253.397 339.499 253.266 338.976 253.266C338.519 253.266 338.136 253.364 337.828 253.56C337.52 253.747 337.343 254.003 337.296 254.33H336.036C336.12 253.667 336.433 253.14 336.974 252.748C337.516 252.356 338.192 252.16 339.004 252.16C339.891 252.16 340.591 252.389 341.104 252.846C341.618 253.303 341.874 253.924 341.874 254.708V260H340.642V258.53H340.432L340.642 258.32C340.642 258.88 340.423 259.323 339.984 259.65C339.555 259.977 338.981 260.14 338.262 260.14ZM338.57 259.146C339.168 259.146 339.658 258.997 340.04 258.698C340.423 258.399 340.614 258.017 340.614 257.55V256.458H338.262C337.842 256.458 337.511 256.575 337.268 256.808C337.026 257.041 336.904 257.359 336.904 257.76C336.904 258.189 337.049 258.53 337.338 258.782C337.637 259.025 338.048 259.146 338.57 259.146ZM352.601 262.52V252.3H354.309V253.77H354.701L354.309 254.176C354.309 253.551 354.496 253.061 354.869 252.706C355.243 252.342 355.747 252.16 356.381 252.16C357.156 252.16 357.777 252.426 358.243 252.958C358.71 253.49 358.943 254.204 358.943 255.1V257.186C358.943 257.783 358.836 258.306 358.621 258.754C358.416 259.193 358.122 259.533 357.739 259.776C357.357 260.019 356.904 260.14 356.381 260.14C355.747 260.14 355.243 259.963 354.869 259.608C354.496 259.244 354.309 258.749 354.309 258.124L354.701 258.53H354.295L354.351 260.364V262.52H352.601ZM355.765 258.628C356.213 258.628 356.563 258.497 356.815 258.236C357.067 257.975 357.193 257.601 357.193 257.116V255.184C357.193 254.699 357.067 254.325 356.815 254.064C356.563 253.803 356.213 253.672 355.765 253.672C355.327 253.672 354.981 253.807 354.729 254.078C354.477 254.339 354.351 254.708 354.351 255.184V257.116C354.351 257.592 354.477 257.965 354.729 258.236C354.981 258.497 355.327 258.628 355.765 258.628ZM364.118 260.14C363.138 260.14 362.368 259.869 361.808 259.328C361.248 258.777 360.968 258.031 360.968 257.088V252.3H362.718V257.074C362.718 257.569 362.839 257.951 363.082 258.222C363.325 258.483 363.67 258.614 364.118 258.614C364.557 258.614 364.897 258.483 365.14 258.222C365.392 257.951 365.518 257.569 365.518 257.074V252.3H367.268V257.088C367.268 258.031 366.983 258.777 366.414 259.328C365.845 259.869 365.079 260.14 364.118 260.14ZM373.171 260.14C372.536 260.14 372.032 259.963 371.659 259.608C371.285 259.244 371.099 258.749 371.099 258.124L371.491 258.53H371.099V260H369.391V249.78H371.141V251.936L371.085 253.77H371.491L371.099 254.176C371.099 253.551 371.285 253.061 371.659 252.706C372.032 252.342 372.536 252.16 373.171 252.16C373.945 252.16 374.566 252.426 375.033 252.958C375.499 253.49 375.733 254.209 375.733 255.114V257.2C375.733 258.096 375.499 258.81 375.033 259.342C374.566 259.874 373.945 260.14 373.171 260.14ZM372.555 258.628C373.003 258.628 373.353 258.497 373.605 258.236C373.857 257.975 373.983 257.601 373.983 257.116V255.184C373.983 254.699 373.857 254.325 373.605 254.064C373.353 253.803 373.003 253.672 372.555 253.672C372.116 253.672 371.771 253.807 371.519 254.078C371.267 254.339 371.141 254.708 371.141 255.184V257.116C371.141 257.592 371.267 257.965 371.519 258.236C371.771 258.497 372.116 258.628 372.555 258.628ZM382.083 260C381.579 260 381.136 259.897 380.753 259.692C380.38 259.487 380.086 259.197 379.871 258.824C379.656 258.441 379.549 258.003 379.549 257.508V251.362H377.085V249.78H381.299V257.508C381.299 257.788 381.378 258.012 381.537 258.18C381.705 258.339 381.929 258.418 382.209 258.418H384.533V260H382.083ZM386.166 260V258.404H388.854V253.882H386.516V252.3H390.534V258.404H392.914V260H386.166ZM389.554 251.012C389.199 251.012 388.919 250.923 388.714 250.746C388.508 250.559 388.406 250.312 388.406 250.004C388.406 249.696 388.508 249.453 388.714 249.276C388.919 249.089 389.199 248.996 389.554 248.996C389.908 248.996 390.188 249.089 390.394 249.276C390.599 249.453 390.702 249.696 390.702 250.004C390.702 250.312 390.599 250.559 390.394 250.746C390.188 250.923 389.908 251.012 389.554 251.012ZM397.738 260.14C397.085 260.14 396.511 260.019 396.016 259.776C395.531 259.524 395.153 259.174 394.882 258.726C394.611 258.269 394.476 257.732 394.476 257.116V255.184C394.476 254.559 394.611 254.022 394.882 253.574C395.153 253.126 395.531 252.781 396.016 252.538C396.511 252.286 397.085 252.16 397.738 252.16C398.709 252.16 399.483 252.412 400.062 252.916C400.641 253.411 400.944 254.087 400.972 254.946H399.222C399.194 254.545 399.049 254.237 398.788 254.022C398.536 253.798 398.186 253.686 397.738 253.686C397.271 253.686 396.903 253.817 396.632 254.078C396.361 254.33 396.226 254.694 396.226 255.17V257.116C396.226 257.592 396.361 257.961 396.632 258.222C396.903 258.483 397.271 258.614 397.738 258.614C398.186 258.614 398.536 258.507 398.788 258.292C399.049 258.068 399.194 257.755 399.222 257.354H400.972C400.944 258.213 400.641 258.894 400.062 259.398C399.483 259.893 398.709 260.14 397.738 260.14ZM411.405 260V249.78H413.155V255.324H414.373L416.249 252.3H418.209L415.885 256.024L418.251 260H416.249L414.373 256.808H413.155V260H411.405ZM422.894 260.14C422.24 260.14 421.671 260.014 421.186 259.762C420.7 259.51 420.322 259.16 420.052 258.712C419.79 258.255 419.66 257.723 419.66 257.116V255.184C419.66 254.577 419.79 254.05 420.052 253.602C420.322 253.145 420.7 252.79 421.186 252.538C421.671 252.286 422.24 252.16 422.894 252.16C423.538 252.16 424.098 252.286 424.574 252.538C425.059 252.79 425.432 253.145 425.694 253.602C425.964 254.05 426.1 254.577 426.1 255.184V256.57H421.354V257.116C421.354 257.657 421.484 258.068 421.746 258.348C422.007 258.619 422.394 258.754 422.908 258.754C423.3 258.754 423.617 258.689 423.86 258.558C424.102 258.418 424.256 258.217 424.322 257.956H426.044C425.913 258.619 425.558 259.151 424.98 259.552C424.41 259.944 423.715 260.14 422.894 260.14ZM424.406 255.59V255.17C424.406 254.638 424.28 254.232 424.028 253.952C423.776 253.663 423.398 253.518 422.894 253.518C422.39 253.518 422.007 253.663 421.746 253.952C421.484 254.241 421.354 254.652 421.354 255.184V255.478L424.532 255.45L424.406 255.59ZM429.398 262.52L430.476 259.58L427.606 252.3H429.524L430.952 256.234C431.027 256.449 431.102 256.71 431.176 257.018C431.251 257.317 431.307 257.564 431.344 257.76C431.391 257.564 431.452 257.317 431.526 257.018C431.601 256.71 431.676 256.449 431.75 256.234L433.094 252.3H434.942L431.232 262.52H429.398Z" fill="white"/>
<rect x="191" y="33" width="282" height="70" rx="2.59984" stroke="black" stroke-width="2"/>
<path d="M251.7 14L254.36 3.78H256.054L258.7 14H257.426L256.754 11.284H253.66L252.988 14H251.7ZM253.912 10.22H256.488L255.704 7.07C255.555 6.47267 255.438 5.97333 255.354 5.572C255.27 5.17067 255.219 4.90933 255.2 4.788C255.181 4.90933 255.13 5.17067 255.046 5.572C254.962 5.97333 254.845 6.468 254.696 7.056L253.912 10.22ZM271.695 14.126C271.107 14.126 270.594 14.0327 270.155 13.846C269.716 13.6593 269.371 13.4027 269.119 13.076C268.876 12.74 268.746 12.348 268.727 11.9H270.477C270.496 12.1427 270.612 12.3387 270.827 12.488C271.051 12.6373 271.34 12.712 271.695 12.712H272.311C272.74 12.712 273.062 12.628 273.277 12.46C273.492 12.292 273.599 12.0633 273.599 11.774C273.599 11.5033 273.501 11.2933 273.305 11.144C273.118 10.9853 272.824 10.8827 272.423 10.836L271.471 10.696C270.594 10.5747 269.95 10.3413 269.539 9.996C269.128 9.65067 268.923 9.13267 268.923 8.442C268.923 7.72333 269.166 7.168 269.651 6.776C270.136 6.37467 270.85 6.174 271.793 6.174H272.325C273.184 6.174 273.87 6.36533 274.383 6.748C274.896 7.13067 275.172 7.644 275.209 8.288H273.459C273.431 8.08267 273.314 7.91467 273.109 7.784C272.913 7.65333 272.652 7.588 272.325 7.588H271.793C271.392 7.588 271.098 7.66267 270.911 7.812C270.734 7.952 270.645 8.162 270.645 8.442C270.645 8.70333 270.724 8.89933 270.883 9.03C271.042 9.15133 271.298 9.24 271.653 9.296L272.647 9.436C273.562 9.56667 274.234 9.814 274.663 10.178C275.102 10.5327 275.321 11.06 275.321 11.76C275.321 12.5067 275.064 13.09 274.551 13.51C274.047 13.9207 273.3 14.126 272.311 14.126H271.695ZM280.384 14.126C279.73 14.126 279.161 14.0047 278.676 13.762C278.2 13.51 277.826 13.16 277.556 12.712C277.294 12.2547 277.164 11.718 277.164 11.102V9.198C277.164 8.582 277.294 8.05 277.556 7.602C277.826 7.14467 278.2 6.79467 278.676 6.552C279.161 6.3 279.73 6.174 280.384 6.174C281.046 6.174 281.616 6.3 282.092 6.552C282.568 6.79467 282.936 7.14467 283.198 7.602C283.468 8.05 283.604 8.57733 283.604 9.184V11.102C283.604 11.718 283.468 12.2547 283.198 12.712C282.936 13.16 282.568 13.51 282.092 13.762C281.616 14.0047 281.046 14.126 280.384 14.126ZM280.384 12.6C280.85 12.6 281.21 12.474 281.462 12.222C281.723 11.9607 281.854 11.5873 281.854 11.102V9.198C281.854 8.70333 281.723 8.33 281.462 8.078C281.21 7.826 280.85 7.7 280.384 7.7C279.926 7.7 279.567 7.826 279.306 8.078C279.044 8.33 278.914 8.70333 278.914 9.198V11.102C278.914 11.5873 279.044 11.9607 279.306 12.222C279.567 12.474 279.926 12.6 280.384 12.6ZM287.658 14L285.124 6.3H286.916L288.386 10.976C288.47 11.256 288.549 11.5453 288.624 11.844C288.708 12.1427 288.769 12.3807 288.806 12.558C288.853 12.3807 288.913 12.1427 288.988 11.844C289.063 11.5453 289.137 11.2607 289.212 10.99L290.654 6.3H292.432L289.912 14H287.658ZM297.187 14.14C296.533 14.14 295.964 14.014 295.479 13.762C294.993 13.51 294.615 13.16 294.345 12.712C294.083 12.2547 293.953 11.7227 293.953 11.116V9.184C293.953 8.57733 294.083 8.05 294.345 7.602C294.615 7.14467 294.993 6.79 295.479 6.538C295.964 6.286 296.533 6.16 297.187 6.16C297.831 6.16 298.391 6.286 298.867 6.538C299.352 6.79 299.725 7.14467 299.987 7.602C300.257 8.05 300.393 8.57733 300.393 9.184V10.57H295.647V11.116C295.647 11.6573 295.777 12.068 296.039 12.348C296.3 12.6187 296.687 12.754 297.201 12.754C297.593 12.754 297.91 12.6887 298.153 12.558C298.395 12.418 298.549 12.2173 298.615 11.956H300.337C300.206 12.6187 299.851 13.1507 299.273 13.552C298.703 13.944 298.008 14.14 297.187 14.14ZM298.699 9.59V9.17C298.699 8.638 298.573 8.232 298.321 7.952C298.069 7.66267 297.691 7.518 297.187 7.518C296.683 7.518 296.3 7.66267 296.039 7.952C295.777 8.24133 295.647 8.652 295.647 9.184V9.478L298.825 9.45L298.699 9.59ZM302.683 14V6.3H304.335V7.77H304.769L304.251 8.666C304.251 7.83533 304.438 7.21 304.811 6.79C305.185 6.37 305.735 6.16 306.463 6.16C307.294 6.16 307.947 6.41667 308.423 6.93C308.899 7.44333 309.137 8.15267 309.137 9.058V9.618H307.303V9.184C307.303 8.68933 307.173 8.30667 306.911 8.036C306.659 7.76533 306.309 7.63 305.861 7.63C305.404 7.63 305.049 7.76533 304.797 8.036C304.555 8.30667 304.433 8.68933 304.433 9.184V14H302.683ZM313.976 14.14C313.322 14.14 312.753 14.014 312.268 13.762C311.782 13.51 311.404 13.16 311.134 12.712C310.872 12.2547 310.742 11.7227 310.742 11.116V9.184C310.742 8.57733 310.872 8.05 311.134 7.602C311.404 7.14467 311.782 6.79 312.268 6.538C312.753 6.286 313.322 6.16 313.976 6.16C314.62 6.16 315.18 6.286 315.656 6.538C316.141 6.79 316.514 7.14467 316.776 7.602C317.046 8.05 317.182 8.57733 317.182 9.184V10.57H312.436V11.116C312.436 11.6573 312.566 12.068 312.828 12.348C313.089 12.6187 313.476 12.754 313.99 12.754C314.382 12.754 314.699 12.6887 314.942 12.558C315.184 12.418 315.338 12.2173 315.404 11.956H317.126C316.995 12.6187 316.64 13.1507 316.062 13.552C315.492 13.944 314.797 14.14 313.976 14.14ZM315.488 9.59V9.17C315.488 8.638 315.362 8.232 315.11 7.952C314.858 7.66267 314.48 7.518 313.976 7.518C313.472 7.518 313.089 7.66267 312.828 7.952C312.566 8.24133 312.436 8.652 312.436 9.184V9.478L315.614 9.45L315.488 9.59ZM319.22 14V12.404H321.908V7.882H319.57V6.3H323.588V12.404H325.968V14H319.22ZM322.608 5.012C322.254 5.012 321.974 4.92333 321.768 4.746C321.563 4.55933 321.46 4.312 321.46 4.004C321.46 3.696 321.563 3.45333 321.768 3.276C321.974 3.08933 322.254 2.996 322.608 2.996C322.963 2.996 323.243 3.08933 323.448 3.276C323.654 3.45333 323.756 3.696 323.756 4.004C323.756 4.312 323.654 4.55933 323.448 4.746C323.243 4.92333 322.963 5.012 322.608 5.012ZM328.679 16.52V15.064H330.961C331.353 15.064 331.647 14.966 331.843 14.77C332.039 14.5833 332.137 14.3127 332.137 13.958V13.384L332.165 11.942H331.787L332.165 11.564C332.165 12.1893 331.978 12.6793 331.605 13.034C331.241 13.3793 330.746 13.552 330.121 13.552C329.337 13.552 328.711 13.286 328.245 12.754C327.787 12.222 327.559 11.5033 327.559 10.598V9.1C327.559 8.204 327.787 7.49 328.245 6.958C328.711 6.426 329.337 6.16 330.121 6.16C330.746 6.16 331.241 6.33733 331.605 6.692C331.978 7.03733 332.165 7.52267 332.165 8.148L331.787 7.77H332.165L332.123 6.3H333.873V14C333.873 14.7747 333.616 15.386 333.103 15.834C332.589 16.2913 331.885 16.52 330.989 16.52H328.679ZM330.709 12.04C331.157 12.04 331.502 11.9093 331.745 11.648C331.997 11.3773 332.123 11.004 332.123 10.528V9.184C332.123 8.708 331.997 8.33933 331.745 8.078C331.502 7.80733 331.157 7.672 330.709 7.672C330.261 7.672 329.915 7.80267 329.673 8.064C329.43 8.32533 329.309 8.69867 329.309 9.184V10.528C329.309 11.0133 329.43 11.3867 329.673 11.648C329.915 11.9093 330.261 12.04 330.709 12.04ZM336.023 14V6.3H337.731V7.77H338.207L337.731 8.176C337.731 7.54133 337.913 7.04667 338.277 6.692C338.651 6.33733 339.159 6.16 339.803 6.16C340.559 6.16 341.161 6.412 341.609 6.916C342.067 7.42 342.295 8.09667 342.295 8.946V14H340.545V9.128C340.545 8.66133 340.424 8.302 340.181 8.05C339.939 7.798 339.598 7.672 339.159 7.672C338.73 7.672 338.389 7.80267 338.137 8.064C337.895 8.32533 337.773 8.69867 337.773 9.184V14H336.023ZM352.812 14V3.78H354.562V6.3L354.52 7.77H354.996L354.52 8.176C354.52 7.54133 354.702 7.04667 355.066 6.692C355.44 6.33733 355.948 6.16 356.592 6.16C357.348 6.16 357.95 6.412 358.398 6.916C358.856 7.42 359.084 8.09667 359.084 8.946V14H357.334V9.128C357.334 8.66133 357.213 8.302 356.97 8.05C356.728 7.798 356.387 7.672 355.948 7.672C355.519 7.672 355.178 7.80267 354.926 8.064C354.684 8.32533 354.562 8.69867 354.562 9.184V14H352.812ZM363.475 14.14C362.682 14.14 362.056 13.93 361.599 13.51C361.142 13.09 360.913 12.5253 360.913 11.816C360.913 11.06 361.165 10.4767 361.669 10.066C362.173 9.65533 362.887 9.45 363.811 9.45H365.729V8.792C365.729 8.41867 365.608 8.12933 365.365 7.924C365.122 7.70933 364.791 7.602 364.371 7.602C363.988 7.602 363.671 7.686 363.419 7.854C363.167 8.022 363.018 8.25067 362.971 8.54H361.263C361.347 7.812 361.674 7.23333 362.243 6.804C362.812 6.37467 363.54 6.16 364.427 6.16C365.37 6.16 366.112 6.398 366.653 6.874C367.204 7.34067 367.479 7.97533 367.479 8.778V14H365.785V12.656H365.505L365.785 12.278C365.785 12.8473 365.575 13.3 365.155 13.636C364.735 13.972 364.175 14.14 363.475 14.14ZM364.049 12.824C364.544 12.824 364.945 12.698 365.253 12.446C365.57 12.194 365.729 11.8673 365.729 11.466V10.528H363.839C363.484 10.528 363.2 10.6307 362.985 10.836C362.77 11.0413 362.663 11.312 362.663 11.648C362.663 12.012 362.784 12.3013 363.027 12.516C363.279 12.7213 363.62 12.824 364.049 12.824ZM369.601 14V6.3H371.309V7.77H371.785L371.309 8.176C371.309 7.54133 371.491 7.04667 371.855 6.692C372.229 6.33733 372.737 6.16 373.381 6.16C374.137 6.16 374.739 6.412 375.187 6.916C375.645 7.42 375.873 8.09667 375.873 8.946V14H374.123V9.128C374.123 8.66133 374.002 8.302 373.759 8.05C373.517 7.798 373.176 7.672 372.737 7.672C372.308 7.672 371.967 7.80267 371.715 8.064C371.473 8.32533 371.351 8.69867 371.351 9.184V14H369.601ZM380.46 14.14C379.695 14.14 379.074 13.874 378.598 13.342C378.131 12.81 377.898 12.096 377.898 11.2V9.114C377.898 8.20867 378.131 7.49 378.598 6.958C379.065 6.426 379.685 6.16 380.46 6.16C381.095 6.16 381.599 6.342 381.972 6.706C382.345 7.06067 382.532 7.55067 382.532 8.176L382.14 7.77H382.546L382.49 5.936V3.78H384.24V14H382.532V12.53H382.14L382.532 12.124C382.532 12.7493 382.345 13.244 381.972 13.608C381.599 13.9627 381.095 14.14 380.46 14.14ZM381.076 12.628C381.524 12.628 381.869 12.4973 382.112 12.236C382.364 11.9653 382.49 11.592 382.49 11.116V9.184C382.49 8.708 382.364 8.33933 382.112 8.078C381.869 7.80733 381.524 7.672 381.076 7.672C380.628 7.672 380.278 7.80267 380.026 8.064C379.774 8.32533 379.648 8.69867 379.648 9.184V11.116C379.648 11.6013 379.774 11.9747 380.026 12.236C380.278 12.4973 380.628 12.628 381.076 12.628ZM390.689 14C390.185 14 389.741 13.8973 389.359 13.692C388.985 13.4867 388.691 13.1973 388.477 12.824C388.262 12.4413 388.155 12.0027 388.155 11.508V5.362H385.691V3.78H389.905V11.508C389.905 11.788 389.984 12.012 390.143 12.18C390.311 12.3387 390.535 12.418 390.815 12.418H393.139V14H390.689ZM397.921 14.14C397.268 14.14 396.698 14.014 396.213 13.762C395.728 13.51 395.35 13.16 395.079 12.712C394.818 12.2547 394.687 11.7227 394.687 11.116V9.184C394.687 8.57733 394.818 8.05 395.079 7.602C395.35 7.14467 395.728 6.79 396.213 6.538C396.698 6.286 397.268 6.16 397.921 6.16C398.565 6.16 399.125 6.286 399.601 6.538C400.086 6.79 400.46 7.14467 400.721 7.602C400.992 8.05 401.127 8.57733 401.127 9.184V10.57H396.381V11.116C396.381 11.6573 396.512 12.068 396.773 12.348C397.034 12.6187 397.422 12.754 397.935 12.754C398.327 12.754 398.644 12.6887 398.887 12.558C399.13 12.418 399.284 12.2173 399.349 11.956H401.071C400.94 12.6187 400.586 13.1507 400.007 13.552C399.438 13.944 398.742 14.14 397.921 14.14ZM399.433 9.59V9.17C399.433 8.638 399.307 8.232 399.055 7.952C398.803 7.66267 398.425 7.518 397.921 7.518C397.417 7.518 397.034 7.66267 396.773 7.952C396.512 8.24133 396.381 8.652 396.381 9.184V9.478L399.559 9.45L399.433 9.59Z" fill="white"/>
<path d="M215.937 80.315C214.111 80.315 212.672 79.853 211.622 78.9291C210.572 77.9841 210.047 76.7137 210.047 75.1178C210.047 73.5009 210.572 72.2305 211.622 71.3066C212.672 70.3826 214.09 69.9207 215.874 69.9207H221.229V68.1883C221.229 67.1173 220.904 66.2984 220.253 65.7314C219.623 65.1435 218.72 64.8495 217.544 64.8495C216.515 64.8495 215.654 65.07 214.961 65.511C214.268 65.9309 213.869 66.5084 213.764 67.2433H210.929C211.118 65.7524 211.822 64.566 213.04 63.6841C214.258 62.8021 215.78 62.3612 217.607 62.3612C219.602 62.3612 221.177 62.8756 222.332 63.9046C223.486 64.9335 224.064 66.3299 224.064 68.0938V80H221.292V76.6927H220.82L221.292 76.2202C221.292 77.4802 220.799 78.4776 219.812 79.2126C218.846 79.9475 217.554 80.315 215.937 80.315ZM216.63 78.0786C217.974 78.0786 219.077 77.7426 219.938 77.0707C220.799 76.3987 221.229 75.5378 221.229 74.4879V72.031H215.937C214.993 72.031 214.247 72.2935 213.701 72.8185C213.155 73.3434 212.882 74.0574 212.882 74.9603C212.882 75.9263 213.208 76.6927 213.859 77.2597C214.531 77.8056 215.455 78.0786 216.63 78.0786ZM238.698 80C237.69 80 236.808 79.8005 236.052 79.4015C235.296 79.0026 234.708 78.4356 234.288 77.7007C233.868 76.9657 233.659 76.1048 233.659 75.1178V59.5893H227.831V57.0065H236.493V75.1178C236.493 75.8318 236.693 76.3987 237.092 76.8187C237.491 77.2177 238.026 77.4172 238.698 77.4172H244.21V80H238.698ZM248.45 80V77.4172H254.592V65.259H249.238V62.6761H257.427V77.4172H263.254V80H248.45ZM255.695 59.5578C255.002 59.5578 254.456 59.3794 254.057 59.0224C253.658 58.6654 253.458 58.1824 253.458 57.5735C253.458 56.9435 253.658 56.45 254.057 56.0931C254.456 55.7151 255.002 55.5261 255.695 55.5261C256.388 55.5261 256.934 55.7151 257.333 56.0931C257.732 56.45 257.931 56.9435 257.931 57.5735C257.931 58.1824 257.732 58.6654 257.333 59.0224C256.934 59.3794 256.388 59.5578 255.695 59.5578ZM274.235 80.315C272.849 80.315 271.631 80.0525 270.581 79.5275C269.552 79.0026 268.754 78.2466 268.187 77.2597C267.62 76.2517 267.337 75.0653 267.337 73.7004V68.9757C267.337 67.5898 267.62 66.4034 268.187 65.4165C268.754 64.4295 269.552 63.6736 270.581 63.1486C271.631 62.6236 272.849 62.3612 274.235 62.3612C276.23 62.3612 277.836 62.8966 279.054 63.9676C280.272 65.0385 280.912 66.4979 280.975 68.3458H278.14C278.077 67.2328 277.7 66.3824 277.007 65.7944C276.335 65.1855 275.411 64.881 274.235 64.881C272.996 64.881 272.009 65.238 271.274 65.9519C270.539 66.6449 270.172 67.6423 270.172 68.9442V73.7004C270.172 75.0023 270.539 76.0103 271.274 76.7242C272.009 77.4382 272.996 77.7951 274.235 77.7951C275.411 77.7951 276.335 77.4907 277.007 76.8817C277.7 76.2727 278.077 75.4223 278.14 74.3304H280.975C280.912 76.1783 280.272 77.6377 279.054 78.7086C277.836 79.7795 276.23 80.315 274.235 80.315ZM292.995 80.315C291.63 80.315 290.433 80.042 289.404 79.496C288.396 78.9501 287.609 78.1836 287.042 77.1967C286.496 76.1888 286.223 75.0233 286.223 73.7004V68.9757C286.223 67.6318 286.496 66.4664 287.042 65.4795C287.609 64.4925 288.396 63.7261 289.404 63.1801C290.433 62.6341 291.63 62.3612 292.995 62.3612C294.36 62.3612 295.547 62.6341 296.554 63.1801C297.583 63.7261 298.371 64.4925 298.917 65.4795C299.484 66.4664 299.767 67.6318 299.767 68.9757V72.031H288.995V73.7004C288.995 75.0653 289.341 76.1153 290.034 76.8502C290.727 77.5642 291.714 77.9211 292.995 77.9211C294.087 77.9211 294.969 77.7321 295.641 77.3542C296.313 76.9552 296.722 76.3672 296.869 75.5903H299.704C299.515 77.0392 298.801 78.1941 297.562 79.0551C296.344 79.895 294.822 80.315 292.995 80.315ZM296.995 70.1411V68.9757C296.995 67.6108 296.649 66.5609 295.956 65.8259C295.284 65.091 294.297 64.7235 292.995 64.7235C291.714 64.7235 290.727 65.091 290.034 65.8259C289.341 66.5609 288.995 67.6108 288.995 68.9757V69.8892H297.216L296.995 70.1411Z" fill="#413F3E"/>
<path d="M312.669 85.6696C310.884 85.6696 309.33 85.2917 308.007 84.5357C306.684 83.8008 305.656 82.7403 304.921 81.3544C304.207 79.9895 303.85 78.3831 303.85 76.5352V65.8259C303.85 63.9361 304.186 62.3087 304.858 60.9438C305.551 59.5788 306.527 58.5289 307.787 57.794C309.068 57.059 310.59 56.6915 312.354 56.6915C313.95 56.6915 315.325 57.0065 316.48 57.6365C317.635 58.2454 318.517 59.1274 319.126 60.2823C319.756 61.4372 320.071 62.8126 320.071 64.4085V77.9526H317.835V76.2202H316.953L317.551 75.5903C317.551 76.3882 317.247 77.0392 316.638 77.5432C316.029 78.0261 315.22 78.2676 314.212 78.2676C312.848 78.2676 311.798 77.8581 311.063 77.0392C310.349 76.1992 309.992 74.9813 309.992 73.3854V69.6057C309.992 68.0098 310.349 66.8024 311.063 65.9834C311.798 65.1435 312.848 64.7235 314.212 64.7235C315.22 64.7235 316.029 64.9755 316.638 65.4795C317.247 65.9624 317.551 66.6134 317.551 67.4323L317.11 66.7709H317.866L317.551 64.566V64.4085C317.551 63.2116 317.352 62.2037 316.953 61.3847C316.554 60.5658 315.966 59.9463 315.189 59.5263C314.433 59.1064 313.488 58.8964 312.354 58.8964C310.464 58.8964 308.994 59.5053 307.944 60.7233C306.894 61.9412 306.37 63.6421 306.37 65.8259V76.5352C306.37 78.6351 306.926 80.2835 308.039 81.4804C309.173 82.6983 310.716 83.3073 312.669 83.3073H314.874V85.6696H312.669ZM315.031 76.2832C315.892 76.2832 316.522 76.0208 316.921 75.4958C317.341 74.9708 317.551 74.1624 317.551 73.0705V69.5742C317.551 68.5872 317.341 67.8628 316.921 67.4008C316.522 66.9389 315.892 66.7079 315.031 66.7079C314.191 66.7079 313.562 66.9494 313.142 67.4323C312.722 67.8943 312.512 68.6187 312.512 69.6057V73.3854C312.512 74.3724 312.722 75.1073 313.142 75.5903C313.562 76.0523 314.191 76.2832 315.031 76.2832ZM331.776 80.315C330.348 80.315 329.204 79.937 328.343 79.1811C327.482 78.4041 327.051 77.3542 327.051 76.0313L327.618 76.6927H327.051V80H324.217V57.0065H327.051V62.0462L326.988 65.9834H327.618L327.051 66.6449C327.051 65.343 327.482 64.3035 328.343 63.5266C329.225 62.7496 330.369 62.3612 331.776 62.3612C333.519 62.3612 334.915 62.9386 335.965 64.0935C337.015 65.2485 337.54 66.8234 337.54 68.8182V73.8894C337.54 75.8633 337.015 77.4277 335.965 78.5826C334.915 79.7375 333.519 80.315 331.776 80.315ZM330.831 77.8581C332.028 77.8581 332.973 77.5012 333.666 76.7872C334.359 76.0733 334.705 75.0443 334.705 73.7004V68.9757C334.705 67.6318 334.359 66.6029 333.666 65.8889C332.973 65.175 332.028 64.818 330.831 64.818C329.676 64.818 328.752 65.1855 328.059 65.9204C327.387 66.6554 327.051 67.6738 327.051 68.9757V73.7004C327.051 75.0023 327.387 76.0208 328.059 76.7557C328.752 77.4907 329.676 77.8581 330.831 77.8581ZM342.882 80V77.4172H349.025V65.259H343.67V62.6761H351.859V77.4172H357.687V80H342.882ZM350.127 59.5578C349.434 59.5578 348.888 59.3794 348.489 59.0224C348.09 58.6654 347.891 58.1824 347.891 57.5735C347.891 56.9435 348.09 56.45 348.489 56.0931C348.888 55.7151 349.434 55.5261 350.127 55.5261C350.82 55.5261 351.366 55.7151 351.765 56.0931C352.164 56.45 352.363 56.9435 352.363 57.5735C352.363 58.1824 352.164 58.6654 351.765 59.0224C351.366 59.3794 350.82 59.5578 350.127 59.5578ZM370.431 80C368.94 80 367.775 79.601 366.935 78.8031C366.116 78.0051 365.706 76.8817 365.706 75.4328V65.259H360.824V62.6761H365.706V57.794H368.541V62.6761H375.471V65.259H368.541V75.4328C368.541 76.7557 369.171 77.4172 370.431 77.4172H375.156V80H370.431ZM387.553 80.315C386.168 80.315 384.95 80.0525 383.9 79.5275C382.871 79.0026 382.073 78.2466 381.506 77.2597C380.939 76.2517 380.655 75.0653 380.655 73.7004V68.9757C380.655 67.5898 380.939 66.4034 381.506 65.4165C382.073 64.4295 382.871 63.6736 383.9 63.1486C384.95 62.6236 386.168 62.3612 387.553 62.3612C389.548 62.3612 391.155 62.8966 392.373 63.9676C393.591 65.0385 394.231 66.4979 394.294 68.3458H391.459C391.396 67.2328 391.018 66.3824 390.325 65.7944C389.653 65.1855 388.729 64.881 387.553 64.881C386.315 64.881 385.328 65.238 384.593 65.9519C383.858 66.6449 383.49 67.6423 383.49 68.9442V73.7004C383.49 75.0023 383.858 76.0103 384.593 76.7242C385.328 77.4382 386.315 77.7951 387.553 77.7951C388.729 77.7951 389.653 77.4907 390.325 76.8817C391.018 76.2727 391.396 75.4223 391.459 74.3304H394.294C394.231 76.1783 393.591 77.6377 392.373 78.7086C391.155 79.7795 389.548 80.315 387.553 80.315ZM406.314 80.252C404.928 80.252 403.731 79.9895 402.723 79.4645C401.715 78.9396 400.928 78.1836 400.361 77.1967C399.815 76.1888 399.542 75.0023 399.542 73.6374V69.0387C399.542 67.6528 399.815 66.4664 400.361 65.4795C400.928 64.4925 401.715 63.7366 402.723 63.2116C403.731 62.6866 404.928 62.4242 406.314 62.4242C407.7 62.4242 408.897 62.6866 409.905 63.2116C410.913 63.7366 411.69 64.4925 412.236 65.4795C412.802 66.4664 413.086 67.6423 413.086 69.0072V73.6374C413.086 75.0023 412.802 76.1888 412.236 77.1967C411.69 78.1836 410.913 78.9396 409.905 79.4645C408.897 79.9895 407.7 80.252 406.314 80.252ZM406.314 77.7321C407.553 77.7321 408.519 77.3857 409.212 76.6927C409.905 75.9998 410.251 74.9813 410.251 73.6374V69.0387C410.251 67.6948 409.905 66.6764 409.212 65.9834C408.519 65.2905 407.553 64.944 406.314 64.944C405.096 64.944 404.13 65.2905 403.416 65.9834C402.723 66.6764 402.377 67.6948 402.377 69.0387V73.6374C402.377 74.9813 402.723 75.9998 403.416 76.6927C404.13 77.3857 405.096 77.7321 406.314 77.7321ZM418.428 80V77.4172H424.57V65.259H419.216V62.6761H427.405V77.4172H433.232V80H418.428ZM425.673 59.5578C424.98 59.5578 424.434 59.3794 424.035 59.0224C423.636 58.6654 423.436 58.1824 423.436 57.5735C423.436 56.9435 423.636 56.45 424.035 56.0931C424.434 55.7151 424.98 55.5261 425.673 55.5261C426.366 55.5261 426.912 55.7151 427.311 56.0931C427.71 56.45 427.909 56.9435 427.909 57.5735C427.909 58.1824 427.71 58.6654 427.311 59.0224C426.912 59.3794 426.366 59.5578 425.673 59.5578ZM437.535 80V62.6761H440.37V65.9834H440.969L440.37 66.6449C440.37 65.28 440.78 64.23 441.598 63.4951C442.417 62.7391 443.551 62.3612 445 62.3612C446.743 62.3612 448.129 62.8966 449.158 63.9676C450.187 65.0385 450.701 66.4979 450.701 68.3458V80H447.867V68.6607C447.867 67.4218 447.531 66.4769 446.859 65.8259C446.208 65.154 445.315 64.818 444.181 64.818C443.005 64.818 442.071 65.175 441.378 65.8889C440.706 66.6029 440.37 67.6318 440.37 68.9757V80H437.535Z" fill="#FB6E10"/>
<path d="M331.293 148.707C331.683 149.098 332.317 149.098 332.707 148.707L339.071 142.343C339.462 141.953 339.462 141.319 339.071 140.929C338.681 140.538 338.047 140.538 337.657 140.929L332 146.586L326.343 140.929C325.953 140.538 325.319 140.538 324.929 140.929C324.538 141.319 324.538 141.953 324.929 142.343L331.293 148.707ZM331 104V148H333V104H331Z" fill="black"/>
<rect x="1.4909" y="155.491" width="681.018" height="70.0182" rx="1.78134" stroke="black" stroke-width="2.9818"/>
<path d="M23.76 202V185.5H26.46V188.65H27.03L26.46 189.28C26.46 187.98 26.85 186.98 27.63 186.28C28.41 185.56 29.49 185.2 30.87 185.2C32.53 185.2 33.85 185.71 34.83 186.73C35.81 187.75 36.3 189.14 36.3 190.9V202H33.6V191.2C33.6 190.02 33.28 189.12 32.64 188.5C32.02 187.86 31.17 187.54 30.09 187.54C28.97 187.54 28.08 187.88 27.42 188.56C26.78 189.24 26.46 190.22 26.46 191.5V202H23.76ZM41.7483 207.4V185.5H44.4483V188.65H44.9883L44.4483 189.28C44.4483 188.02 44.8583 187.03 45.6783 186.31C46.5183 185.57 47.6183 185.2 48.9783 185.2C50.6383 185.2 51.9583 185.75 52.9383 186.85C53.9383 187.93 54.4383 189.42 54.4383 191.32V196.15C54.4383 197.41 54.2083 198.5 53.7483 199.42C53.3083 200.34 52.6783 201.05 51.8583 201.55C51.0583 202.05 50.0983 202.3 48.9783 202.3C47.6383 202.3 46.5483 201.93 45.7083 201.19C44.8683 200.45 44.4483 199.46 44.4483 198.22L44.9883 198.85H44.3883L44.4483 202.6V207.4H41.7483ZM48.0783 199.96C49.2183 199.96 50.1083 199.62 50.7483 198.94C51.4083 198.26 51.7383 197.28 51.7383 196V191.5C51.7383 190.22 51.4083 189.24 50.7483 188.56C50.1083 187.88 49.2183 187.54 48.0783 187.54C46.9783 187.54 46.0983 187.89 45.4383 188.59C44.7783 189.29 44.4483 190.26 44.4483 191.5V196C44.4483 197.24 44.7783 198.21 45.4383 198.91C46.0983 199.61 46.9783 199.96 48.0783 199.96ZM65.9466 202.3C64.0466 202.3 62.5266 201.74 61.3866 200.62C60.2466 199.48 59.6766 197.94 59.6766 196V185.5H62.3766V196C62.3766 197.24 62.6966 198.21 63.3366 198.91C63.9766 199.59 64.8466 199.93 65.9466 199.93C67.0666 199.93 67.9466 199.59 68.5866 198.91C69.2466 198.21 69.5766 197.24 69.5766 196V185.5H72.2766V196C72.2766 197.94 71.6966 199.48 70.5366 200.62C69.3766 201.74 67.8466 202.3 65.9466 202.3ZM84.9248 202.3C83.5648 202.3 82.4748 201.94 81.6548 201.22C80.8348 200.48 80.4248 199.48 80.4248 198.22L80.9648 198.85H80.4248V202H77.7248V180.1H80.4248V184.9L80.3648 188.65H80.9648L80.4248 189.28C80.4248 188.04 80.8348 187.05 81.6548 186.31C82.4948 185.57 83.5848 185.2 84.9248 185.2C86.5848 185.2 87.9148 185.75 88.9148 186.85C89.9148 187.95 90.4148 189.45 90.4148 191.35V196.18C90.4148 198.06 89.9148 199.55 88.9148 200.65C87.9148 201.75 86.5848 202.3 84.9248 202.3ZM84.0248 199.96C85.1648 199.96 86.0648 199.62 86.7248 198.94C87.3848 198.26 87.7148 197.28 87.7148 196V191.5C87.7148 190.22 87.3848 189.24 86.7248 188.56C86.0648 187.88 85.1648 187.54 84.0248 187.54C82.9248 187.54 82.0448 187.89 81.3848 188.59C80.7448 189.29 80.4248 190.26 80.4248 191.5V196C80.4248 197.24 80.7448 198.21 81.3848 198.91C82.0448 199.61 82.9248 199.96 84.0248 199.96ZM95.6531 202V199.54H101.593V182.35L95.6531 186.79V183.79L100.603 180.1H104.293V199.54H109.153V202H95.6531ZM113.491 207.4V204.91H117.361C118.601 204.91 119.561 204.57 120.241 203.89C120.941 203.23 121.291 202.29 121.291 201.07V187.96H114.391V185.5H123.991V201.07C123.991 203.01 123.391 204.55 122.191 205.69C120.991 206.83 119.381 207.4 117.361 207.4H113.491ZM122.491 182.53C121.831 182.53 121.311 182.36 120.931 182.02C120.551 181.68 120.361 181.22 120.361 180.64C120.361 180.04 120.551 179.57 120.931 179.23C121.311 178.87 121.831 178.69 122.491 178.69C123.151 178.69 123.671 178.87 124.051 179.23C124.431 179.57 124.621 180.04 124.621 180.64C124.621 181.22 124.431 181.68 124.051 182.02C123.671 182.36 123.151 182.53 122.491 182.53ZM140.18 202C139.22 202 138.38 201.81 137.66 201.43C136.94 201.05 136.38 200.51 135.98 199.81C135.58 199.11 135.38 198.29 135.38 197.35V182.56H129.83V180.1H138.08V197.35C138.08 198.03 138.27 198.57 138.65 198.97C139.03 199.35 139.54 199.54 140.18 199.54H145.43V202H140.18ZM150.248 202V185.5H152.888V188.65H153.518L152.648 190.6C152.648 188.82 153.028 187.48 153.788 186.58C154.568 185.66 155.718 185.2 157.238 185.2C158.978 185.2 160.358 185.75 161.378 186.85C162.418 187.93 162.938 189.4 162.938 191.26V192.25H160.238V191.5C160.238 190.2 159.918 189.21 159.278 188.53C158.658 187.83 157.768 187.48 156.608 187.48C155.468 187.48 154.568 187.83 153.908 188.53C153.268 189.23 152.948 190.22 152.948 191.5V202H150.248ZM173.396 202.24C172.276 202.24 171.296 202.07 170.456 201.73C169.636 201.37 168.976 200.87 168.476 200.23C167.996 199.59 167.706 198.83 167.606 197.95H170.306C170.426 198.53 170.746 198.99 171.266 199.33C171.806 199.67 172.516 199.84 173.396 199.84H174.656C175.716 199.84 176.506 199.63 177.026 199.21C177.546 198.77 177.806 198.19 177.806 197.47C177.806 196.77 177.566 196.22 177.086 195.82C176.626 195.4 175.936 195.12 175.016 194.98L172.796 194.62C171.176 194.34 169.966 193.84 169.166 193.12C168.386 192.38 167.996 191.31 167.996 189.91C167.996 188.43 168.466 187.29 169.406 186.49C170.346 185.67 171.756 185.26 173.636 185.26H174.776C176.356 185.26 177.626 185.63 178.586 186.37C179.546 187.11 180.126 188.11 180.326 189.37H177.626C177.506 188.85 177.206 188.44 176.726 188.14C176.246 187.82 175.596 187.66 174.776 187.66H173.636C172.616 187.66 171.866 187.85 171.386 188.23C170.926 188.61 170.696 189.18 170.696 189.94C170.696 190.62 170.896 191.12 171.296 191.44C171.696 191.76 172.326 191.99 173.186 192.13L175.406 192.49C177.186 192.77 178.476 193.29 179.276 194.05C180.096 194.81 180.506 195.91 180.506 197.35C180.506 198.87 180.016 200.07 179.036 200.95C178.076 201.81 176.616 202.24 174.656 202.24H173.396ZM191.835 202.3C190.055 202.3 188.595 201.84 187.455 200.92C186.315 200 185.645 198.76 185.445 197.2H188.145C188.245 198.06 188.615 198.73 189.255 199.21C189.895 199.67 190.765 199.9 191.865 199.9C193.125 199.9 194.065 199.56 194.685 198.88C195.325 198.2 195.645 197.24 195.645 196V193.87C195.645 192.63 195.325 191.67 194.685 190.99C194.065 190.31 193.135 189.97 191.895 189.97C191.115 189.97 190.435 190.18 189.855 190.6C189.275 191 188.855 191.54 188.595 192.22H185.895L186.045 180.1H197.565V182.56H188.655L188.565 189.85H189.405L188.565 190.63C188.565 189.69 188.935 188.95 189.675 188.41C190.435 187.87 191.445 187.6 192.705 187.6C194.485 187.58 195.865 188.13 196.845 189.25C197.845 190.35 198.345 191.89 198.345 193.87V196C198.345 197.94 197.775 199.48 196.635 200.62C195.495 201.74 193.895 202.3 191.835 202.3ZM209.553 202.3C208.233 202.3 207.073 202.04 206.073 201.52C205.093 200.98 204.333 200.24 203.793 199.3C203.253 198.36 202.983 197.26 202.983 196H205.683C205.683 197.22 206.023 198.18 206.703 198.88C207.403 199.56 208.363 199.9 209.583 199.9C210.823 199.9 211.783 199.54 212.463 198.82C213.143 198.1 213.483 197.16 213.483 196V194.44C213.483 193.2 213.143 192.24 212.463 191.56C211.783 190.88 210.823 190.54 209.583 190.54H207.333V187.84L212.763 182.56H203.883V180.1H215.493V182.8L209.643 188.47V188.14C211.643 188.14 213.233 188.71 214.413 189.85C215.593 190.99 216.183 192.52 216.183 194.44V196C216.183 197.26 215.903 198.36 215.343 199.3C214.803 200.24 214.033 200.98 213.033 201.52C212.033 202.04 210.873 202.3 209.553 202.3ZM221.631 207.4V185.5H224.331V188.65H224.871L224.331 189.28C224.331 188.02 224.741 187.03 225.561 186.31C226.401 185.57 227.501 185.2 228.861 185.2C230.521 185.2 231.841 185.75 232.821 186.85C233.821 187.93 234.321 189.42 234.321 191.32V196.15C234.321 197.41 234.091 198.5 233.631 199.42C233.191 200.34 232.561 201.05 231.741 201.55C230.941 202.05 229.981 202.3 228.861 202.3C227.521 202.3 226.431 201.93 225.591 201.19C224.751 200.45 224.331 199.46 224.331 198.22L224.871 198.85H224.271L224.331 202.6V207.4H221.631ZM227.961 199.96C229.101 199.96 229.991 199.62 230.631 198.94C231.291 198.26 231.621 197.28 231.621 196V191.5C231.621 190.22 231.291 189.24 230.631 188.56C229.991 187.88 229.101 187.54 227.961 187.54C226.861 187.54 225.981 187.89 225.321 188.59C224.661 189.29 224.331 190.26 224.331 191.5V196C224.331 197.24 224.661 198.21 225.321 198.91C225.981 199.61 226.861 199.96 227.961 199.96ZM239.709 202V180.1H242.409V192.31H245.589L250.389 185.5H253.479L247.929 193.36L253.569 202H250.419L245.619 194.65H242.409V202H239.709ZM262.888 202.3C261.248 202.3 259.918 201.75 258.898 200.65C257.898 199.55 257.398 198.06 257.398 196.18V191.35C257.398 189.45 257.898 187.95 258.898 186.85C259.898 185.75 261.228 185.2 262.888 185.2C264.248 185.2 265.338 185.57 266.158 186.31C266.978 187.05 267.388 188.04 267.388 189.28L266.848 188.65H267.448L267.388 184.9V180.1H270.088V202H267.388V198.85H266.848L267.388 198.22C267.388 199.48 266.978 200.48 266.158 201.22C265.338 201.94 264.248 202.3 262.888 202.3ZM263.788 199.96C264.908 199.96 265.788 199.61 266.428 198.91C267.068 198.21 267.388 197.24 267.388 196V191.5C267.388 190.26 267.068 189.29 266.428 188.59C265.788 187.89 264.908 187.54 263.788 187.54C262.648 187.54 261.748 187.88 261.088 188.56C260.428 189.24 260.098 190.22 260.098 191.5V196C260.098 197.28 260.428 198.26 261.088 198.94C261.748 199.62 262.648 199.96 263.788 199.96ZM279.436 202V189.61H274.636V187.15H279.436V184.3C279.436 183 279.846 181.98 280.666 181.24C281.486 180.48 282.616 180.1 284.056 180.1H288.886V182.56H284.056C283.436 182.56 282.956 182.71 282.616 183.01C282.296 183.29 282.136 183.72 282.136 184.3V187.15H288.886V189.61H282.136V202H279.436ZM293.374 207.4V204.91H297.244C298.484 204.91 299.444 204.57 300.124 203.89C300.824 203.23 301.174 202.29 301.174 201.07V187.96H294.274V185.5H303.874V201.07C303.874 203.01 303.274 204.55 302.074 205.69C300.874 206.83 299.264 207.4 297.244 207.4H293.374ZM302.374 182.53C301.714 182.53 301.194 182.36 300.814 182.02C300.434 181.68 300.244 181.22 300.244 180.64C300.244 180.04 300.434 179.57 300.814 179.23C301.194 178.87 301.714 178.69 302.374 178.69C303.034 178.69 303.554 178.87 303.934 179.23C304.314 179.57 304.504 180.04 304.504 180.64C304.504 181.22 304.314 181.68 303.934 182.02C303.554 182.36 303.034 182.53 302.374 182.53ZM311.573 202V185.5H314.273V188.65H314.843L314.273 189.28C314.273 187.98 314.663 186.98 315.443 186.28C316.223 185.56 317.303 185.2 318.683 185.2C320.343 185.2 321.663 185.71 322.643 186.73C323.623 187.75 324.113 189.14 324.113 190.9V202H321.413V191.2C321.413 190.02 321.093 189.12 320.453 188.5C319.833 187.86 318.983 187.54 317.903 187.54C316.783 187.54 315.893 187.88 315.233 188.56C314.593 189.24 314.273 190.22 314.273 191.5V202H311.573ZM337.601 202C336.181 202 335.071 201.62 334.271 200.86C333.491 200.1 333.101 199.03 333.101 197.65V187.96H328.451V185.5H333.101V180.85H335.801V185.5H342.401V187.96H335.801V197.65C335.801 198.91 336.401 199.54 337.601 199.54H342.101V202H337.601ZM353.279 202.24C352.159 202.24 351.179 202.07 350.339 201.73C349.519 201.37 348.859 200.87 348.359 200.23C347.879 199.59 347.589 198.83 347.489 197.95H350.189C350.309 198.53 350.629 198.99 351.149 199.33C351.689 199.67 352.399 199.84 353.279 199.84H354.539C355.599 199.84 356.389 199.63 356.909 199.21C357.429 198.77 357.689 198.19 357.689 197.47C357.689 196.77 357.449 196.22 356.969 195.82C356.509 195.4 355.819 195.12 354.899 194.98L352.679 194.62C351.059 194.34 349.849 193.84 349.049 193.12C348.269 192.38 347.879 191.31 347.879 189.91C347.879 188.43 348.349 187.29 349.289 186.49C350.229 185.67 351.639 185.26 353.519 185.26H354.659C356.239 185.26 357.509 185.63 358.469 186.37C359.429 187.11 360.009 188.11 360.209 189.37H357.509C357.389 188.85 357.089 188.44 356.609 188.14C356.129 187.82 355.479 187.66 354.659 187.66H353.519C352.499 187.66 351.749 187.85 351.269 188.23C350.809 188.61 350.579 189.18 350.579 189.94C350.579 190.62 350.779 191.12 351.179 191.44C351.579 191.76 352.209 191.99 353.069 192.13L355.289 192.49C357.069 192.77 358.359 193.29 359.159 194.05C359.979 194.81 360.389 195.91 360.389 197.35C360.389 198.87 359.899 200.07 358.919 200.95C357.959 201.81 356.499 202.24 354.539 202.24H353.279ZM365.537 202V199.24L372.227 192.13C373.367 190.91 374.197 189.83 374.717 188.89C375.237 187.93 375.497 187.01 375.497 186.13C375.497 184.91 375.157 183.95 374.477 183.25C373.817 182.55 372.907 182.2 371.747 182.2C370.467 182.2 369.457 182.56 368.717 183.28C367.997 184 367.637 184.99 367.637 186.25H364.937C364.977 184.93 365.277 183.79 365.837 182.83C366.417 181.85 367.207 181.1 368.207 180.58C369.227 180.06 370.407 179.8 371.747 179.8C373.067 179.8 374.207 180.06 375.167 180.58C376.147 181.08 376.897 181.8 377.417 182.74C377.937 183.68 378.197 184.8 378.197 186.1C378.197 187.34 377.867 188.57 377.207 189.79C376.547 191.01 375.467 192.4 373.967 193.96L368.567 199.54H378.557V202H365.537ZM386.376 202L392.586 192.04L392.466 191.95C392.086 192.51 391.566 192.94 390.906 193.24C390.246 193.54 389.506 193.69 388.686 193.69C387.506 193.69 386.466 193.41 385.566 192.85C384.686 192.29 384.006 191.5 383.526 190.48C383.046 189.44 382.806 188.23 382.806 186.85C382.806 185.43 383.096 184.2 383.676 183.16C384.256 182.1 385.066 181.28 386.106 180.7C387.146 180.1 388.356 179.8 389.736 179.8C391.136 179.8 392.356 180.1 393.396 180.7C394.456 181.28 395.276 182.1 395.856 183.16C396.436 184.2 396.726 185.43 396.726 186.85C396.726 187.95 396.566 189.03 396.246 190.09C395.946 191.15 395.486 192.17 394.866 193.15L389.376 202H386.376ZM389.766 191.5C391.046 191.5 392.076 191.08 392.856 190.24C393.636 189.38 394.026 188.25 394.026 186.85C394.026 185.45 393.636 184.33 392.856 183.49C392.076 182.63 391.046 182.2 389.766 182.2C388.486 182.2 387.456 182.63 386.676 183.49C385.896 184.33 385.506 185.45 385.506 186.85C385.506 188.25 385.896 189.38 386.676 190.24C387.456 191.08 388.486 191.5 389.766 191.5ZM401.604 202V180.1H404.304V192.31H407.484L412.284 185.5H415.374L409.824 193.36L415.464 202H412.314L407.514 194.65H404.304V202H401.604ZM423.912 202L418.392 185.5H421.152L424.812 196.6C425.032 197.26 425.232 197.9 425.412 198.52C425.592 199.12 425.722 199.59 425.802 199.93C425.902 199.59 426.042 199.12 426.222 198.52C426.402 197.9 426.592 197.26 426.792 196.6L430.362 185.5H433.092L427.572 202H423.912ZM443.73 202.3C442.43 202.3 441.29 202.04 440.31 201.52C439.35 201 438.6 200.27 438.06 199.33C437.54 198.37 437.28 197.26 437.28 196V191.5C437.28 190.22 437.54 189.11 438.06 188.17C438.6 187.23 439.35 186.5 440.31 185.98C441.29 185.46 442.43 185.2 443.73 185.2C445.03 185.2 446.16 185.46 447.12 185.98C448.1 186.5 448.85 187.23 449.37 188.17C449.91 189.11 450.18 190.22 450.18 191.5V194.41H439.92V196C439.92 197.3 440.25 198.3 440.91 199C441.57 199.68 442.51 200.02 443.73 200.02C444.77 200.02 445.61 199.84 446.25 199.48C446.89 199.1 447.28 198.54 447.42 197.8H450.12C449.94 199.18 449.26 200.28 448.08 201.1C446.92 201.9 445.47 202.3 443.73 202.3ZM447.54 192.61V191.5C447.54 190.2 447.21 189.2 446.55 188.5C445.91 187.8 444.97 187.45 443.73 187.45C442.51 187.45 441.57 187.8 440.91 188.5C440.25 189.2 439.92 190.2 439.92 191.5V192.37H447.75L447.54 192.61ZM463.969 202C463.009 202 462.169 201.81 461.449 201.43C460.729 201.05 460.169 200.51 459.769 199.81C459.369 199.11 459.169 198.29 459.169 197.35V182.56H453.619V180.1H461.869V197.35C461.869 198.03 462.059 198.57 462.439 198.97C462.819 199.35 463.329 199.54 463.969 199.54H469.219V202H463.969ZM473.257 207.4V204.91H477.127C478.367 204.91 479.327 204.57 480.007 203.89C480.707 203.23 481.057 202.29 481.057 201.07V187.96H474.157V185.5H483.757V201.07C483.757 203.01 483.157 204.55 481.957 205.69C480.757 206.83 479.147 207.4 477.127 207.4H473.257ZM482.257 182.53C481.597 182.53 481.077 182.36 480.697 182.02C480.317 181.68 480.127 181.22 480.127 180.64C480.127 180.04 480.317 179.57 480.697 179.23C481.077 178.87 481.597 178.69 482.257 178.69C482.917 178.69 483.437 178.87 483.817 179.23C484.197 179.57 484.387 180.04 484.387 180.64C484.387 181.22 484.197 181.68 483.817 182.02C483.437 182.36 482.917 182.53 482.257 182.53ZM497.665 202.3C495.765 202.3 494.245 201.74 493.105 200.62C491.965 199.48 491.395 197.94 491.395 196V185.5H494.095V196C494.095 197.24 494.415 198.21 495.055 198.91C495.695 199.59 496.565 199.93 497.665 199.93C498.785 199.93 499.665 199.59 500.305 198.91C500.965 198.21 501.295 197.24 501.295 196V185.5H503.995V196C503.995 197.94 503.415 199.48 502.255 200.62C501.095 201.74 499.565 202.3 497.665 202.3ZM517.934 202C516.974 202 516.134 201.81 515.414 201.43C514.694 201.05 514.134 200.51 513.734 199.81C513.334 199.11 513.134 198.29 513.134 197.35V182.56H507.584V180.1H515.834V197.35C515.834 198.03 516.024 198.57 516.404 198.97C516.784 199.35 517.294 199.54 517.934 199.54H523.184V202H517.934ZM527.432 202V199.24L534.122 192.13C535.262 190.91 536.092 189.83 536.612 188.89C537.132 187.93 537.392 187.01 537.392 186.13C537.392 184.91 537.052 183.95 536.372 183.25C535.712 182.55 534.802 182.2 533.642 182.2C532.362 182.2 531.352 182.56 530.612 183.28C529.892 184 529.532 184.99 529.532 186.25H526.832C526.872 184.93 527.172 183.79 527.732 182.83C528.312 181.85 529.102 181.1 530.102 180.58C531.122 180.06 532.302 179.8 533.642 179.8C534.962 179.8 536.102 180.06 537.062 180.58C538.042 181.08 538.792 181.8 539.312 182.74C539.832 183.68 540.092 184.8 540.092 186.1C540.092 187.34 539.762 188.57 539.102 189.79C538.442 191.01 537.362 192.4 535.862 193.96L530.462 199.54H540.452V202H527.432ZM551.15 202.24C550.03 202.24 549.05 202.07 548.21 201.73C547.39 201.37 546.73 200.87 546.23 200.23C545.75 199.59 545.46 198.83 545.36 197.95H548.06C548.18 198.53 548.5 198.99 549.02 199.33C549.56 199.67 550.27 199.84 551.15 199.84H552.41C553.47 199.84 554.26 199.63 554.78 199.21C555.3 198.77 555.56 198.19 555.56 197.47C555.56 196.77 555.32 196.22 554.84 195.82C554.38 195.4 553.69 195.12 552.77 194.98L550.55 194.62C548.93 194.34 547.72 193.84 546.92 193.12C546.14 192.38 545.75 191.31 545.75 189.91C545.75 188.43 546.22 187.29 547.16 186.49C548.1 185.67 549.51 185.26 551.39 185.26H552.53C554.11 185.26 555.38 185.63 556.34 186.37C557.3 187.11 557.88 188.11 558.08 189.37H555.38C555.26 188.85 554.96 188.44 554.48 188.14C554 187.82 553.35 187.66 552.53 187.66H551.39C550.37 187.66 549.62 187.85 549.14 188.23C548.68 188.61 548.45 189.18 548.45 189.94C548.45 190.62 548.65 191.12 549.05 191.44C549.45 191.76 550.08 191.99 550.94 192.13L553.16 192.49C554.94 192.77 556.23 193.29 557.03 194.05C557.85 194.81 558.26 195.91 558.26 197.35C558.26 198.87 557.77 200.07 556.79 200.95C555.83 201.81 554.37 202.24 552.41 202.24H551.15ZM562.628 202V185.5H564.998V187.48H565.538L565.118 188.2C565.118 187.28 565.358 186.55 565.838 186.01C566.338 185.47 567.008 185.2 567.848 185.2C568.768 185.2 569.478 185.54 569.978 186.22C570.478 186.9 570.728 187.86 570.728 189.1L569.918 187.48H571.178L570.608 188.2C570.608 187.28 570.858 186.55 571.358 186.01C571.878 185.47 572.558 185.2 573.398 185.2C574.438 185.2 575.238 185.59 575.798 186.37C576.378 187.15 576.668 188.18 576.668 189.46V202H574.178V189.43C574.178 188.75 574.028 188.22 573.728 187.84C573.448 187.46 573.028 187.27 572.468 187.27C571.928 187.27 571.498 187.46 571.178 187.84C570.878 188.2 570.728 188.72 570.728 189.4V202H568.568V189.43C568.568 188.73 568.408 188.2 568.088 187.84C567.788 187.46 567.358 187.27 566.798 187.27C566.238 187.27 565.818 187.46 565.538 187.84C565.258 188.2 565.118 188.72 565.118 189.4V202H562.628ZM587.637 202.3C586.297 202.3 585.127 202.04 584.127 201.52C583.147 200.98 582.387 200.23 581.847 199.27C581.307 198.29 581.037 197.15 581.037 195.85V186.25C581.037 184.93 581.307 183.79 581.847 182.83C582.387 181.87 583.147 181.13 584.127 180.61C585.127 180.07 586.297 179.8 587.637 179.8C588.997 179.8 590.167 180.07 591.147 180.61C592.127 181.13 592.887 181.87 593.427 182.83C593.967 183.79 594.237 184.93 594.237 186.25V195.85C594.237 197.15 593.967 198.29 593.427 199.27C592.887 200.23 592.117 200.98 591.117 201.52C590.137 202.04 588.977 202.3 587.637 202.3ZM587.637 199.99C588.837 199.99 589.797 199.61 590.517 198.85C591.257 198.07 591.627 197.07 591.627 195.85V186.25C591.627 185.03 591.257 184.04 590.517 183.28C589.797 182.5 588.837 182.11 587.637 182.11C586.437 182.11 585.467 182.5 584.727 183.28C584.007 184.04 583.647 185.03 583.647 186.25V195.85C583.647 197.07 584.007 198.07 584.727 198.85C585.467 199.61 586.437 199.99 587.637 199.99ZM587.637 192.82C587.097 192.82 586.657 192.65 586.317 192.31C585.997 191.97 585.837 191.52 585.837 190.96C585.837 190.42 585.997 189.99 586.317 189.67C586.657 189.33 587.097 189.16 587.637 189.16C588.177 189.16 588.607 189.33 588.927 189.67C589.267 189.99 589.437 190.42 589.437 190.96C589.437 191.52 589.267 191.97 588.927 192.31C588.607 192.65 588.177 192.82 587.637 192.82ZM604.185 202.3C602.445 202.3 601.075 201.86 600.075 200.98C599.075 200.08 598.575 198.87 598.575 197.35C598.575 195.81 599.075 194.6 600.075 193.72C601.075 192.84 602.425 192.4 604.125 192.4H609.225V190.75C609.225 189.73 608.915 188.95 608.295 188.41C607.695 187.85 606.835 187.57 605.715 187.57C604.735 187.57 603.915 187.78 603.255 188.2C602.595 188.6 602.215 189.15 602.115 189.85H599.415C599.595 188.43 600.265 187.3 601.425 186.46C602.585 185.62 604.035 185.2 605.775 185.2C607.675 185.2 609.175 185.69 610.275 186.67C611.375 187.65 611.925 188.98 611.925 190.66V202H609.285V198.85H608.835L609.285 198.4C609.285 199.6 608.815 200.55 607.875 201.25C606.955 201.95 605.725 202.3 604.185 202.3ZM604.845 200.17C606.125 200.17 607.175 199.85 607.995 199.21C608.815 198.57 609.225 197.75 609.225 196.75V194.41H604.185C603.285 194.41 602.575 194.66 602.055 195.16C601.535 195.66 601.275 196.34 601.275 197.2C601.275 198.12 601.585 198.85 602.205 199.39C602.845 199.91 603.725 200.17 604.845 200.17ZM623.733 202.3C622.413 202.3 621.253 202.05 620.253 201.55C619.273 201.05 618.513 200.33 617.973 199.39C617.433 198.43 617.163 197.3 617.163 196V191.5C617.163 190.18 617.433 189.05 617.973 188.11C618.513 187.17 619.273 186.45 620.253 185.95C621.253 185.45 622.413 185.2 623.733 185.2C625.633 185.2 627.163 185.71 628.323 186.73C629.483 187.75 630.093 189.14 630.153 190.9H627.453C627.393 189.84 627.033 189.03 626.373 188.47C625.733 187.89 624.853 187.6 623.733 187.6C622.553 187.6 621.613 187.94 620.913 188.62C620.213 189.28 619.863 190.23 619.863 191.47V196C619.863 197.24 620.213 198.2 620.913 198.88C621.613 199.56 622.553 199.9 623.733 199.9C624.853 199.9 625.733 199.61 626.373 199.03C627.033 198.45 627.393 197.64 627.453 196.6H630.153C630.093 198.36 629.483 199.75 628.323 200.77C627.163 201.79 625.633 202.3 623.733 202.3ZM644.638 202.3C643.878 202.3 643.278 202.08 642.838 201.64C642.378 201.2 642.148 200.61 642.148 199.87C642.148 199.09 642.378 198.47 642.838 198.01C643.278 197.55 643.878 197.32 644.638 197.32C645.398 197.32 646.008 197.55 646.468 198.01C646.908 198.47 647.128 199.09 647.128 199.87C647.128 200.61 646.908 201.2 646.468 201.64C646.008 202.08 645.398 202.3 644.638 202.3ZM659.608 202.3C658.848 202.3 658.248 202.08 657.808 201.64C657.348 201.2 657.118 200.61 657.118 199.87C657.118 199.09 657.348 198.47 657.808 198.01C658.248 197.55 658.848 197.32 659.608 197.32C660.368 197.32 660.978 197.55 661.438 198.01C661.878 198.47 662.098 199.09 662.098 199.87C662.098 200.61 661.878 201.2 661.438 201.64C660.978 202.08 660.368 202.3 659.608 202.3ZM674.578 202.3C673.818 202.3 673.208 202.08 672.748 201.64C672.308 201.2 672.088 200.61 672.088 199.87C672.088 199.09 672.308 198.47 672.748 198.01C673.208 197.55 673.818 197.32 674.578 197.32C675.338 197.32 675.938 197.55 676.378 198.01C676.838 198.47 677.068 199.09 677.068 199.87C677.068 200.61 676.838 201.2 676.378 201.64C675.938 202.08 675.338 202.3 674.578 202.3Z" fill="#65DE28"/>
</svg>
