<svg width="795" height="264" viewBox="0 0 795 264" fill="none" xmlns="http://www.w3.org/2000/svg">
<path d="M289.288 260V249.78H292.452C293.059 249.78 293.591 249.906 294.048 250.158C294.505 250.401 294.86 250.741 295.112 251.18C295.364 251.619 295.49 252.132 295.49 252.72C295.49 253.411 295.308 254.003 294.944 254.498C294.589 254.993 294.104 255.333 293.488 255.52L295.63 260H294.146L292.186 255.66H290.548V260H289.288ZM290.548 254.526H292.452C292.975 254.526 293.395 254.363 293.712 254.036C294.029 253.7 294.188 253.261 294.188 252.72C294.188 252.169 294.029 251.731 293.712 251.404C293.395 251.077 292.975 250.914 292.452 250.914H290.548V254.526ZM300.595 260.14C299.988 260.14 299.456 260.019 298.999 259.776C298.551 259.533 298.201 259.193 297.949 258.754C297.706 258.306 297.585 257.788 297.585 257.2V255.1C297.585 254.503 297.706 253.985 297.949 253.546C298.201 253.107 298.551 252.767 298.999 252.524C299.456 252.281 299.988 252.16 300.595 252.16C301.201 252.16 301.729 252.281 302.177 252.524C302.634 252.767 302.984 253.107 303.227 253.546C303.479 253.985 303.605 254.503 303.605 255.1V256.458H298.817V257.2C298.817 257.807 298.971 258.273 299.279 258.6C299.587 258.917 300.025 259.076 300.595 259.076C301.08 259.076 301.472 258.992 301.771 258.824C302.069 258.647 302.251 258.385 302.317 258.04H303.577C303.493 258.684 303.175 259.197 302.625 259.58C302.083 259.953 301.407 260.14 300.595 260.14ZM302.373 255.618V255.1C302.373 254.493 302.219 254.027 301.911 253.7C301.612 253.373 301.173 253.21 300.595 253.21C300.025 253.21 299.587 253.373 299.279 253.7C298.971 254.027 298.817 254.493 298.817 255.1V255.506H302.471L302.373 255.618ZM308.751 260.112C308.228 260.112 307.771 260.033 307.379 259.874C306.996 259.706 306.688 259.473 306.455 259.174C306.231 258.875 306.096 258.521 306.049 258.11H307.309C307.365 258.381 307.514 258.595 307.757 258.754C308.009 258.913 308.34 258.992 308.751 258.992H309.339C309.834 258.992 310.202 258.894 310.445 258.698C310.688 258.493 310.809 258.222 310.809 257.886C310.809 257.559 310.697 257.303 310.473 257.116C310.258 256.92 309.936 256.789 309.507 256.724L308.471 256.556C307.715 256.425 307.15 256.192 306.777 255.856C306.413 255.511 306.231 255.011 306.231 254.358C306.231 253.667 306.45 253.135 306.889 252.762C307.328 252.379 307.986 252.188 308.863 252.188H309.395C310.132 252.188 310.725 252.361 311.173 252.706C311.621 253.051 311.892 253.518 311.985 254.106H310.725C310.669 253.863 310.529 253.672 310.305 253.532C310.081 253.383 309.778 253.308 309.395 253.308H308.863C308.387 253.308 308.037 253.397 307.813 253.574C307.598 253.751 307.491 254.017 307.491 254.372C307.491 254.689 307.584 254.923 307.771 255.072C307.958 255.221 308.252 255.329 308.653 255.394L309.689 255.562C310.52 255.693 311.122 255.935 311.495 256.29C311.878 256.645 312.069 257.158 312.069 257.83C312.069 258.539 311.84 259.099 311.383 259.51C310.935 259.911 310.254 260.112 309.339 260.112H308.751ZM317.384 260.112C316.768 260.112 316.236 259.995 315.788 259.762C315.34 259.529 314.99 259.193 314.738 258.754C314.495 258.306 314.374 257.779 314.374 257.172V255.128C314.374 254.512 314.495 253.985 314.738 253.546C314.99 253.107 315.34 252.771 315.788 252.538C316.236 252.305 316.768 252.188 317.384 252.188C318 252.188 318.532 252.305 318.98 252.538C319.428 252.771 319.773 253.107 320.016 253.546C320.268 253.985 320.394 254.507 320.394 255.114V257.172C320.394 257.779 320.268 258.306 320.016 258.754C319.773 259.193 319.428 259.529 318.98 259.762C318.532 259.995 318 260.112 317.384 260.112ZM317.384 258.992C317.934 258.992 318.364 258.838 318.672 258.53C318.98 258.222 319.134 257.769 319.134 257.172V255.128C319.134 254.531 318.98 254.078 318.672 253.77C318.364 253.462 317.934 253.308 317.384 253.308C316.842 253.308 316.413 253.462 316.096 253.77C315.788 254.078 315.634 254.531 315.634 255.128V257.172C315.634 257.769 315.788 258.222 316.096 258.53C316.413 258.838 316.842 258.992 317.384 258.992ZM326.828 260C326.38 260 325.988 259.911 325.652 259.734C325.316 259.557 325.055 259.305 324.868 258.978C324.681 258.651 324.588 258.269 324.588 257.83V250.928H321.998V249.78H325.848V257.83C325.848 258.147 325.937 258.399 326.114 258.586C326.291 258.763 326.529 258.852 326.828 258.852H329.278V260H326.828ZM333.319 260L330.743 252.3H332.031L333.739 257.48C333.841 257.788 333.935 258.087 334.019 258.376C334.103 258.656 334.163 258.875 334.201 259.034C334.247 258.875 334.313 258.656 334.397 258.376C334.481 258.087 334.569 257.788 334.663 257.48L336.329 252.3H337.603L335.027 260H333.319ZM342.567 260.14C341.961 260.14 341.429 260.019 340.971 259.776C340.523 259.533 340.173 259.193 339.921 258.754C339.679 258.306 339.557 257.788 339.557 257.2V255.1C339.557 254.503 339.679 253.985 339.921 253.546C340.173 253.107 340.523 252.767 340.971 252.524C341.429 252.281 341.961 252.16 342.567 252.16C343.174 252.16 343.701 252.281 344.149 252.524C344.607 252.767 344.957 253.107 345.199 253.546C345.451 253.985 345.577 254.503 345.577 255.1V256.458H340.789V257.2C340.789 257.807 340.943 258.273 341.251 258.6C341.559 258.917 341.998 259.076 342.567 259.076C343.053 259.076 343.445 258.992 343.743 258.824C344.042 258.647 344.224 258.385 344.289 258.04H345.549C345.465 258.684 345.148 259.197 344.597 259.58C344.056 259.953 343.379 260.14 342.567 260.14ZM344.345 255.618V255.1C344.345 254.493 344.191 254.027 343.883 253.7C343.585 253.373 343.146 253.21 342.567 253.21C341.998 253.21 341.559 253.373 341.251 253.7C340.943 254.027 340.789 254.493 340.789 255.1V255.506H344.443L344.345 255.618ZM350.724 260.112C350.201 260.112 349.744 260.033 349.352 259.874C348.969 259.706 348.661 259.473 348.428 259.174C348.204 258.875 348.068 258.521 348.022 258.11H349.282C349.338 258.381 349.487 258.595 349.73 258.754C349.982 258.913 350.313 258.992 350.724 258.992H351.312C351.806 258.992 352.175 258.894 352.418 258.698C352.66 258.493 352.782 258.222 352.782 257.886C352.782 257.559 352.67 257.303 352.446 257.116C352.231 256.92 351.909 256.789 351.48 256.724L350.444 256.556C349.688 256.425 349.123 256.192 348.75 255.856C348.386 255.511 348.204 255.011 348.204 254.358C348.204 253.667 348.423 253.135 348.862 252.762C349.3 252.379 349.958 252.188 350.836 252.188H351.368C352.105 252.188 352.698 252.361 353.146 252.706C353.594 253.051 353.864 253.518 353.958 254.106H352.698C352.642 253.863 352.502 253.672 352.278 253.532C352.054 253.383 351.75 253.308 351.368 253.308H350.836C350.36 253.308 350.01 253.397 349.786 253.574C349.571 253.751 349.464 254.017 349.464 254.372C349.464 254.689 349.557 254.923 349.744 255.072C349.93 255.221 350.224 255.329 350.626 255.394L351.662 255.562C352.492 255.693 353.094 255.935 353.468 256.29C353.85 256.645 354.042 257.158 354.042 257.83C354.042 258.539 353.813 259.099 353.356 259.51C352.908 259.911 352.226 260.112 351.312 260.112H350.724ZM368.591 260C367.928 260 367.41 259.823 367.037 259.468C366.673 259.113 366.491 258.614 366.491 257.97V253.448H364.321V252.3H366.491V250.13H367.751V252.3H370.831V253.448H367.751V257.97C367.751 258.558 368.031 258.852 368.591 258.852H370.691V260H368.591ZM376.145 260.112C375.529 260.112 374.997 259.995 374.549 259.762C374.101 259.529 373.751 259.193 373.499 258.754C373.257 258.306 373.135 257.779 373.135 257.172V255.128C373.135 254.512 373.257 253.985 373.499 253.546C373.751 253.107 374.101 252.771 374.549 252.538C374.997 252.305 375.529 252.188 376.145 252.188C376.761 252.188 377.293 252.305 377.741 252.538C378.189 252.771 378.535 253.107 378.777 253.546C379.029 253.985 379.155 254.507 379.155 255.114V257.172C379.155 257.779 379.029 258.306 378.777 258.754C378.535 259.193 378.189 259.529 377.741 259.762C377.293 259.995 376.761 260.112 376.145 260.112ZM376.145 258.992C376.696 258.992 377.125 258.838 377.433 258.53C377.741 258.222 377.895 257.769 377.895 257.172V255.128C377.895 254.531 377.741 254.078 377.433 253.77C377.125 253.462 376.696 253.308 376.145 253.308C375.604 253.308 375.175 253.462 374.857 253.77C374.549 254.078 374.395 254.531 374.395 255.128V257.172C374.395 257.769 374.549 258.222 374.857 258.53C375.175 258.838 375.604 258.992 376.145 258.992ZM392.262 260.14C391.45 260.14 390.811 259.935 390.344 259.524C389.878 259.104 389.644 258.539 389.644 257.83C389.644 257.111 389.878 256.547 390.344 256.136C390.811 255.725 391.441 255.52 392.234 255.52H394.614V254.75C394.614 254.274 394.47 253.91 394.18 253.658C393.9 253.397 393.499 253.266 392.976 253.266C392.519 253.266 392.136 253.364 391.828 253.56C391.52 253.747 391.343 254.003 391.296 254.33H390.036C390.12 253.667 390.433 253.14 390.974 252.748C391.516 252.356 392.192 252.16 393.004 252.16C393.891 252.16 394.591 252.389 395.104 252.846C395.618 253.303 395.874 253.924 395.874 254.708V260H394.642V258.53H394.432L394.642 258.32C394.642 258.88 394.423 259.323 393.984 259.65C393.555 259.977 392.981 260.14 392.262 260.14ZM392.57 259.146C393.168 259.146 393.658 258.997 394.04 258.698C394.423 258.399 394.614 258.017 394.614 257.55V256.458H392.262C391.842 256.458 391.511 256.575 391.268 256.808C391.026 257.041 390.904 257.359 390.904 257.76C390.904 258.189 391.049 258.53 391.338 258.782C391.637 259.025 392.048 259.146 392.57 259.146ZM406.601 262.52V252.3H408.309V253.77H408.701L408.309 254.176C408.309 253.551 408.496 253.061 408.869 252.706C409.243 252.342 409.747 252.16 410.381 252.16C411.156 252.16 411.777 252.426 412.243 252.958C412.71 253.49 412.943 254.204 412.943 255.1V257.186C412.943 257.783 412.836 258.306 412.621 258.754C412.416 259.193 412.122 259.533 411.739 259.776C411.357 260.019 410.904 260.14 410.381 260.14C409.747 260.14 409.243 259.963 408.869 259.608C408.496 259.244 408.309 258.749 408.309 258.124L408.701 258.53H408.295L408.351 260.364V262.52H406.601ZM409.765 258.628C410.213 258.628 410.563 258.497 410.815 258.236C411.067 257.975 411.193 257.601 411.193 257.116V255.184C411.193 254.699 411.067 254.325 410.815 254.064C410.563 253.803 410.213 253.672 409.765 253.672C409.327 253.672 408.981 253.807 408.729 254.078C408.477 254.339 408.351 254.708 408.351 255.184V257.116C408.351 257.592 408.477 257.965 408.729 258.236C408.981 258.497 409.327 258.628 409.765 258.628ZM418.118 260.14C417.138 260.14 416.368 259.869 415.808 259.328C415.248 258.777 414.968 258.031 414.968 257.088V252.3H416.718V257.074C416.718 257.569 416.839 257.951 417.082 258.222C417.325 258.483 417.67 258.614 418.118 258.614C418.557 258.614 418.897 258.483 419.14 258.222C419.392 257.951 419.518 257.569 419.518 257.074V252.3H421.268V257.088C421.268 258.031 420.983 258.777 420.414 259.328C419.845 259.869 419.079 260.14 418.118 260.14ZM427.171 260.14C426.536 260.14 426.032 259.963 425.659 259.608C425.285 259.244 425.099 258.749 425.099 258.124L425.491 258.53H425.099V260H423.391V249.78H425.141V251.936L425.085 253.77H425.491L425.099 254.176C425.099 253.551 425.285 253.061 425.659 252.706C426.032 252.342 426.536 252.16 427.171 252.16C427.945 252.16 428.566 252.426 429.033 252.958C429.499 253.49 429.733 254.209 429.733 255.114V257.2C429.733 258.096 429.499 258.81 429.033 259.342C428.566 259.874 427.945 260.14 427.171 260.14ZM426.555 258.628C427.003 258.628 427.353 258.497 427.605 258.236C427.857 257.975 427.983 257.601 427.983 257.116V255.184C427.983 254.699 427.857 254.325 427.605 254.064C427.353 253.803 427.003 253.672 426.555 253.672C426.116 253.672 425.771 253.807 425.519 254.078C425.267 254.339 425.141 254.708 425.141 255.184V257.116C425.141 257.592 425.267 257.965 425.519 258.236C425.771 258.497 426.116 258.628 426.555 258.628ZM436.083 260C435.579 260 435.136 259.897 434.753 259.692C434.38 259.487 434.086 259.197 433.871 258.824C433.656 258.441 433.549 258.003 433.549 257.508V251.362H431.085V249.78H435.299V257.508C435.299 257.788 435.378 258.012 435.537 258.18C435.705 258.339 435.929 258.418 436.209 258.418H438.533V260H436.083ZM440.166 260V258.404H442.854V253.882H440.516V252.3H444.534V258.404H446.914V260H440.166ZM443.554 251.012C443.199 251.012 442.919 250.923 442.714 250.746C442.508 250.559 442.406 250.312 442.406 250.004C442.406 249.696 442.508 249.453 442.714 249.276C442.919 249.089 443.199 248.996 443.554 248.996C443.908 248.996 444.188 249.089 444.394 249.276C444.599 249.453 444.702 249.696 444.702 250.004C444.702 250.312 444.599 250.559 444.394 250.746C444.188 250.923 443.908 251.012 443.554 251.012ZM451.738 260.14C451.085 260.14 450.511 260.019 450.016 259.776C449.531 259.524 449.153 259.174 448.882 258.726C448.611 258.269 448.476 257.732 448.476 257.116V255.184C448.476 254.559 448.611 254.022 448.882 253.574C449.153 253.126 449.531 252.781 450.016 252.538C450.511 252.286 451.085 252.16 451.738 252.16C452.709 252.16 453.483 252.412 454.062 252.916C454.641 253.411 454.944 254.087 454.972 254.946H453.222C453.194 254.545 453.049 254.237 452.788 254.022C452.536 253.798 452.186 253.686 451.738 253.686C451.271 253.686 450.903 253.817 450.632 254.078C450.361 254.33 450.226 254.694 450.226 255.17V257.116C450.226 257.592 450.361 257.961 450.632 258.222C450.903 258.483 451.271 258.614 451.738 258.614C452.186 258.614 452.536 258.507 452.788 258.292C453.049 258.068 453.194 257.755 453.222 257.354H454.972C454.944 258.213 454.641 258.894 454.062 259.398C453.483 259.893 452.709 260.14 451.738 260.14ZM465.405 260V249.78H467.155V255.324H468.373L470.249 252.3H472.209L469.885 256.024L472.251 260H470.249L468.373 256.808H467.155V260H465.405ZM476.894 260.14C476.24 260.14 475.671 260.014 475.186 259.762C474.7 259.51 474.322 259.16 474.052 258.712C473.79 258.255 473.66 257.723 473.66 257.116V255.184C473.66 254.577 473.79 254.05 474.052 253.602C474.322 253.145 474.7 252.79 475.186 252.538C475.671 252.286 476.24 252.16 476.894 252.16C477.538 252.16 478.098 252.286 478.574 252.538C479.059 252.79 479.432 253.145 479.694 253.602C479.964 254.05 480.1 254.577 480.1 255.184V256.57H475.354V257.116C475.354 257.657 475.484 258.068 475.746 258.348C476.007 258.619 476.394 258.754 476.908 258.754C477.3 258.754 477.617 258.689 477.86 258.558C478.102 258.418 478.256 258.217 478.322 257.956H480.044C479.913 258.619 479.558 259.151 478.98 259.552C478.41 259.944 477.715 260.14 476.894 260.14ZM478.406 255.59V255.17C478.406 254.638 478.28 254.232 478.028 253.952C477.776 253.663 477.398 253.518 476.894 253.518C476.39 253.518 476.007 253.663 475.746 253.952C475.484 254.241 475.354 254.652 475.354 255.184V255.478L478.532 255.45L478.406 255.59ZM483.398 262.52L484.476 259.58L481.606 252.3H483.524L484.952 256.234C485.027 256.449 485.102 256.71 485.176 257.018C485.251 257.317 485.307 257.564 485.344 257.76C485.391 257.564 485.452 257.317 485.526 257.018C485.601 256.71 485.676 256.449 485.75 256.234L487.094 252.3H488.942L485.232 262.52H483.398Z" fill="#161513"/>
<rect x="245" y="33" width="282" height="70" rx="2.59984" fill="white" stroke="black" stroke-width="2"/>
<path d="M305.7 14L308.36 3.78H310.054L312.7 14H311.426L310.754 11.284H307.66L306.988 14H305.7ZM307.912 10.22H310.488L309.704 7.07C309.555 6.47267 309.438 5.97333 309.354 5.572C309.27 5.17067 309.219 4.90933 309.2 4.788C309.181 4.90933 309.13 5.17067 309.046 5.572C308.962 5.97333 308.845 6.468 308.696 7.056L307.912 10.22ZM325.695 14.126C325.107 14.126 324.594 14.0327 324.155 13.846C323.716 13.6593 323.371 13.4027 323.119 13.076C322.876 12.74 322.746 12.348 322.727 11.9H324.477C324.496 12.1427 324.612 12.3387 324.827 12.488C325.051 12.6373 325.34 12.712 325.695 12.712H326.311C326.74 12.712 327.062 12.628 327.277 12.46C327.492 12.292 327.599 12.0633 327.599 11.774C327.599 11.5033 327.501 11.2933 327.305 11.144C327.118 10.9853 326.824 10.8827 326.423 10.836L325.471 10.696C324.594 10.5747 323.95 10.3413 323.539 9.996C323.128 9.65067 322.923 9.13267 322.923 8.442C322.923 7.72333 323.166 7.168 323.651 6.776C324.136 6.37467 324.85 6.174 325.793 6.174H326.325C327.184 6.174 327.87 6.36533 328.383 6.748C328.896 7.13067 329.172 7.644 329.209 8.288H327.459C327.431 8.08267 327.314 7.91467 327.109 7.784C326.913 7.65333 326.652 7.588 326.325 7.588H325.793C325.392 7.588 325.098 7.66267 324.911 7.812C324.734 7.952 324.645 8.162 324.645 8.442C324.645 8.70333 324.724 8.89933 324.883 9.03C325.042 9.15133 325.298 9.24 325.653 9.296L326.647 9.436C327.562 9.56667 328.234 9.814 328.663 10.178C329.102 10.5327 329.321 11.06 329.321 11.76C329.321 12.5067 329.064 13.09 328.551 13.51C328.047 13.9207 327.3 14.126 326.311 14.126H325.695ZM334.384 14.126C333.73 14.126 333.161 14.0047 332.676 13.762C332.2 13.51 331.826 13.16 331.556 12.712C331.294 12.2547 331.164 11.718 331.164 11.102V9.198C331.164 8.582 331.294 8.05 331.556 7.602C331.826 7.14467 332.2 6.79467 332.676 6.552C333.161 6.3 333.73 6.174 334.384 6.174C335.046 6.174 335.616 6.3 336.092 6.552C336.568 6.79467 336.936 7.14467 337.198 7.602C337.468 8.05 337.604 8.57733 337.604 9.184V11.102C337.604 11.718 337.468 12.2547 337.198 12.712C336.936 13.16 336.568 13.51 336.092 13.762C335.616 14.0047 335.046 14.126 334.384 14.126ZM334.384 12.6C334.85 12.6 335.21 12.474 335.462 12.222C335.723 11.9607 335.854 11.5873 335.854 11.102V9.198C335.854 8.70333 335.723 8.33 335.462 8.078C335.21 7.826 334.85 7.7 334.384 7.7C333.926 7.7 333.567 7.826 333.306 8.078C333.044 8.33 332.914 8.70333 332.914 9.198V11.102C332.914 11.5873 333.044 11.9607 333.306 12.222C333.567 12.474 333.926 12.6 334.384 12.6ZM341.658 14L339.124 6.3H340.916L342.386 10.976C342.47 11.256 342.549 11.5453 342.624 11.844C342.708 12.1427 342.769 12.3807 342.806 12.558C342.853 12.3807 342.913 12.1427 342.988 11.844C343.063 11.5453 343.137 11.2607 343.212 10.99L344.654 6.3H346.432L343.912 14H341.658ZM351.187 14.14C350.533 14.14 349.964 14.014 349.479 13.762C348.993 13.51 348.615 13.16 348.345 12.712C348.083 12.2547 347.953 11.7227 347.953 11.116V9.184C347.953 8.57733 348.083 8.05 348.345 7.602C348.615 7.14467 348.993 6.79 349.479 6.538C349.964 6.286 350.533 6.16 351.187 6.16C351.831 6.16 352.391 6.286 352.867 6.538C353.352 6.79 353.725 7.14467 353.987 7.602C354.257 8.05 354.393 8.57733 354.393 9.184V10.57H349.647V11.116C349.647 11.6573 349.777 12.068 350.039 12.348C350.3 12.6187 350.687 12.754 351.201 12.754C351.593 12.754 351.91 12.6887 352.153 12.558C352.395 12.418 352.549 12.2173 352.615 11.956H354.337C354.206 12.6187 353.851 13.1507 353.273 13.552C352.703 13.944 352.008 14.14 351.187 14.14ZM352.699 9.59V9.17C352.699 8.638 352.573 8.232 352.321 7.952C352.069 7.66267 351.691 7.518 351.187 7.518C350.683 7.518 350.3 7.66267 350.039 7.952C349.777 8.24133 349.647 8.652 349.647 9.184V9.478L352.825 9.45L352.699 9.59ZM356.683 14V6.3H358.335V7.77H358.769L358.251 8.666C358.251 7.83533 358.438 7.21 358.811 6.79C359.185 6.37 359.735 6.16 360.463 6.16C361.294 6.16 361.947 6.41667 362.423 6.93C362.899 7.44333 363.137 8.15267 363.137 9.058V9.618H361.303V9.184C361.303 8.68933 361.173 8.30667 360.911 8.036C360.659 7.76533 360.309 7.63 359.861 7.63C359.404 7.63 359.049 7.76533 358.797 8.036C358.555 8.30667 358.433 8.68933 358.433 9.184V14H356.683ZM367.976 14.14C367.322 14.14 366.753 14.014 366.268 13.762C365.782 13.51 365.404 13.16 365.134 12.712C364.872 12.2547 364.742 11.7227 364.742 11.116V9.184C364.742 8.57733 364.872 8.05 365.134 7.602C365.404 7.14467 365.782 6.79 366.268 6.538C366.753 6.286 367.322 6.16 367.976 6.16C368.62 6.16 369.18 6.286 369.656 6.538C370.141 6.79 370.514 7.14467 370.776 7.602C371.046 8.05 371.182 8.57733 371.182 9.184V10.57H366.436V11.116C366.436 11.6573 366.566 12.068 366.828 12.348C367.089 12.6187 367.476 12.754 367.99 12.754C368.382 12.754 368.699 12.6887 368.942 12.558C369.184 12.418 369.338 12.2173 369.404 11.956H371.126C370.995 12.6187 370.64 13.1507 370.062 13.552C369.492 13.944 368.797 14.14 367.976 14.14ZM369.488 9.59V9.17C369.488 8.638 369.362 8.232 369.11 7.952C368.858 7.66267 368.48 7.518 367.976 7.518C367.472 7.518 367.089 7.66267 366.828 7.952C366.566 8.24133 366.436 8.652 366.436 9.184V9.478L369.614 9.45L369.488 9.59ZM373.22 14V12.404H375.908V7.882H373.57V6.3H377.588V12.404H379.968V14H373.22ZM376.608 5.012C376.254 5.012 375.974 4.92333 375.768 4.746C375.563 4.55933 375.46 4.312 375.46 4.004C375.46 3.696 375.563 3.45333 375.768 3.276C375.974 3.08933 376.254 2.996 376.608 2.996C376.963 2.996 377.243 3.08933 377.448 3.276C377.654 3.45333 377.756 3.696 377.756 4.004C377.756 4.312 377.654 4.55933 377.448 4.746C377.243 4.92333 376.963 5.012 376.608 5.012ZM382.679 16.52V15.064H384.961C385.353 15.064 385.647 14.966 385.843 14.77C386.039 14.5833 386.137 14.3127 386.137 13.958V13.384L386.165 11.942H385.787L386.165 11.564C386.165 12.1893 385.978 12.6793 385.605 13.034C385.241 13.3793 384.746 13.552 384.121 13.552C383.337 13.552 382.711 13.286 382.245 12.754C381.787 12.222 381.559 11.5033 381.559 10.598V9.1C381.559 8.204 381.787 7.49 382.245 6.958C382.711 6.426 383.337 6.16 384.121 6.16C384.746 6.16 385.241 6.33733 385.605 6.692C385.978 7.03733 386.165 7.52267 386.165 8.148L385.787 7.77H386.165L386.123 6.3H387.873V14C387.873 14.7747 387.616 15.386 387.103 15.834C386.589 16.2913 385.885 16.52 384.989 16.52H382.679ZM384.709 12.04C385.157 12.04 385.502 11.9093 385.745 11.648C385.997 11.3773 386.123 11.004 386.123 10.528V9.184C386.123 8.708 385.997 8.33933 385.745 8.078C385.502 7.80733 385.157 7.672 384.709 7.672C384.261 7.672 383.915 7.80267 383.673 8.064C383.43 8.32533 383.309 8.69867 383.309 9.184V10.528C383.309 11.0133 383.43 11.3867 383.673 11.648C383.915 11.9093 384.261 12.04 384.709 12.04ZM390.023 14V6.3H391.731V7.77H392.207L391.731 8.176C391.731 7.54133 391.913 7.04667 392.277 6.692C392.651 6.33733 393.159 6.16 393.803 6.16C394.559 6.16 395.161 6.412 395.609 6.916C396.067 7.42 396.295 8.09667 396.295 8.946V14H394.545V9.128C394.545 8.66133 394.424 8.302 394.181 8.05C393.939 7.798 393.598 7.672 393.159 7.672C392.73 7.672 392.389 7.80267 392.137 8.064C391.895 8.32533 391.773 8.69867 391.773 9.184V14H390.023ZM406.812 14V3.78H408.562V6.3L408.52 7.77H408.996L408.52 8.176C408.52 7.54133 408.702 7.04667 409.066 6.692C409.44 6.33733 409.948 6.16 410.592 6.16C411.348 6.16 411.95 6.412 412.398 6.916C412.856 7.42 413.084 8.09667 413.084 8.946V14H411.334V9.128C411.334 8.66133 411.213 8.302 410.97 8.05C410.728 7.798 410.387 7.672 409.948 7.672C409.519 7.672 409.178 7.80267 408.926 8.064C408.684 8.32533 408.562 8.69867 408.562 9.184V14H406.812ZM417.475 14.14C416.682 14.14 416.056 13.93 415.599 13.51C415.142 13.09 414.913 12.5253 414.913 11.816C414.913 11.06 415.165 10.4767 415.669 10.066C416.173 9.65533 416.887 9.45 417.811 9.45H419.729V8.792C419.729 8.41867 419.608 8.12933 419.365 7.924C419.122 7.70933 418.791 7.602 418.371 7.602C417.988 7.602 417.671 7.686 417.419 7.854C417.167 8.022 417.018 8.25067 416.971 8.54H415.263C415.347 7.812 415.674 7.23333 416.243 6.804C416.812 6.37467 417.54 6.16 418.427 6.16C419.37 6.16 420.112 6.398 420.653 6.874C421.204 7.34067 421.479 7.97533 421.479 8.778V14H419.785V12.656H419.505L419.785 12.278C419.785 12.8473 419.575 13.3 419.155 13.636C418.735 13.972 418.175 14.14 417.475 14.14ZM418.049 12.824C418.544 12.824 418.945 12.698 419.253 12.446C419.57 12.194 419.729 11.8673 419.729 11.466V10.528H417.839C417.484 10.528 417.2 10.6307 416.985 10.836C416.77 11.0413 416.663 11.312 416.663 11.648C416.663 12.012 416.784 12.3013 417.027 12.516C417.279 12.7213 417.62 12.824 418.049 12.824ZM423.601 14V6.3H425.309V7.77H425.785L425.309 8.176C425.309 7.54133 425.491 7.04667 425.855 6.692C426.229 6.33733 426.737 6.16 427.381 6.16C428.137 6.16 428.739 6.412 429.187 6.916C429.645 7.42 429.873 8.09667 429.873 8.946V14H428.123V9.128C428.123 8.66133 428.002 8.302 427.759 8.05C427.517 7.798 427.176 7.672 426.737 7.672C426.308 7.672 425.967 7.80267 425.715 8.064C425.473 8.32533 425.351 8.69867 425.351 9.184V14H423.601ZM434.46 14.14C433.695 14.14 433.074 13.874 432.598 13.342C432.131 12.81 431.898 12.096 431.898 11.2V9.114C431.898 8.20867 432.131 7.49 432.598 6.958C433.065 6.426 433.685 6.16 434.46 6.16C435.095 6.16 435.599 6.342 435.972 6.706C436.345 7.06067 436.532 7.55067 436.532 8.176L436.14 7.77H436.546L436.49 5.936V3.78H438.24V14H436.532V12.53H436.14L436.532 12.124C436.532 12.7493 436.345 13.244 435.972 13.608C435.599 13.9627 435.095 14.14 434.46 14.14ZM435.076 12.628C435.524 12.628 435.869 12.4973 436.112 12.236C436.364 11.9653 436.49 11.592 436.49 11.116V9.184C436.49 8.708 436.364 8.33933 436.112 8.078C435.869 7.80733 435.524 7.672 435.076 7.672C434.628 7.672 434.278 7.80267 434.026 8.064C433.774 8.32533 433.648 8.69867 433.648 9.184V11.116C433.648 11.6013 433.774 11.9747 434.026 12.236C434.278 12.4973 434.628 12.628 435.076 12.628ZM444.689 14C444.185 14 443.741 13.8973 443.359 13.692C442.985 13.4867 442.691 13.1973 442.477 12.824C442.262 12.4413 442.155 12.0027 442.155 11.508V5.362H439.691V3.78H443.905V11.508C443.905 11.788 443.984 12.012 444.143 12.18C444.311 12.3387 444.535 12.418 444.815 12.418H447.139V14H444.689ZM451.921 14.14C451.268 14.14 450.698 14.014 450.213 13.762C449.728 13.51 449.35 13.16 449.079 12.712C448.818 12.2547 448.687 11.7227 448.687 11.116V9.184C448.687 8.57733 448.818 8.05 449.079 7.602C449.35 7.14467 449.728 6.79 450.213 6.538C450.698 6.286 451.268 6.16 451.921 6.16C452.565 6.16 453.125 6.286 453.601 6.538C454.086 6.79 454.46 7.14467 454.721 7.602C454.992 8.05 455.127 8.57733 455.127 9.184V10.57H450.381V11.116C450.381 11.6573 450.512 12.068 450.773 12.348C451.034 12.6187 451.422 12.754 451.935 12.754C452.327 12.754 452.644 12.6887 452.887 12.558C453.13 12.418 453.284 12.2173 453.349 11.956H455.071C454.94 12.6187 454.586 13.1507 454.007 13.552C453.438 13.944 452.742 14.14 451.921 14.14ZM453.433 9.59V9.17C453.433 8.638 453.307 8.232 453.055 7.952C452.803 7.66267 452.425 7.518 451.921 7.518C451.417 7.518 451.034 7.66267 450.773 7.952C450.512 8.24133 450.381 8.652 450.381 9.184V9.478L453.559 9.45L453.433 9.59Z" fill="#161513"/>
<path d="M269.937 80.315C268.111 80.315 266.672 79.853 265.622 78.9291C264.572 77.9841 264.047 76.7137 264.047 75.1178C264.047 73.5009 264.572 72.2305 265.622 71.3066C266.672 70.3826 268.09 69.9207 269.874 69.9207H275.229V68.1883C275.229 67.1173 274.904 66.2984 274.253 65.7314C273.623 65.1435 272.72 64.8495 271.544 64.8495C270.515 64.8495 269.654 65.07 268.961 65.511C268.268 65.9309 267.869 66.5084 267.764 67.2433H264.929C265.118 65.7524 265.822 64.566 267.04 63.6841C268.258 62.8021 269.78 62.3612 271.607 62.3612C273.602 62.3612 275.177 62.8756 276.332 63.9046C277.486 64.9335 278.064 66.3299 278.064 68.0938V80H275.292V76.6927H274.82L275.292 76.2202C275.292 77.4802 274.799 78.4776 273.812 79.2126C272.846 79.9475 271.554 80.315 269.937 80.315ZM270.63 78.0786C271.974 78.0786 273.077 77.7426 273.938 77.0707C274.799 76.3987 275.229 75.5378 275.229 74.4879V72.031H269.937C268.993 72.031 268.247 72.2935 267.701 72.8185C267.155 73.3434 266.882 74.0574 266.882 74.9603C266.882 75.9263 267.208 76.6927 267.859 77.2597C268.531 77.8056 269.455 78.0786 270.63 78.0786ZM292.698 80C291.69 80 290.808 79.8005 290.052 79.4015C289.296 79.0026 288.708 78.4356 288.288 77.7007C287.868 76.9657 287.659 76.1048 287.659 75.1178V59.5893H281.831V57.0065H290.493V75.1178C290.493 75.8318 290.693 76.3987 291.092 76.8187C291.491 77.2177 292.026 77.4172 292.698 77.4172H298.21V80H292.698ZM302.45 80V77.4172H308.592V65.259H303.238V62.6761H311.427V77.4172H317.254V80H302.45ZM309.695 59.5578C309.002 59.5578 308.456 59.3794 308.057 59.0224C307.658 58.6654 307.458 58.1824 307.458 57.5735C307.458 56.9435 307.658 56.45 308.057 56.0931C308.456 55.7151 309.002 55.5261 309.695 55.5261C310.388 55.5261 310.934 55.7151 311.333 56.0931C311.732 56.45 311.931 56.9435 311.931 57.5735C311.931 58.1824 311.732 58.6654 311.333 59.0224C310.934 59.3794 310.388 59.5578 309.695 59.5578ZM328.235 80.315C326.849 80.315 325.631 80.0525 324.581 79.5275C323.552 79.0026 322.754 78.2466 322.187 77.2597C321.62 76.2517 321.337 75.0653 321.337 73.7004V68.9757C321.337 67.5898 321.62 66.4034 322.187 65.4165C322.754 64.4295 323.552 63.6736 324.581 63.1486C325.631 62.6236 326.849 62.3612 328.235 62.3612C330.23 62.3612 331.836 62.8966 333.054 63.9676C334.272 65.0385 334.912 66.4979 334.975 68.3458H332.14C332.077 67.2328 331.7 66.3824 331.007 65.7944C330.335 65.1855 329.411 64.881 328.235 64.881C326.996 64.881 326.009 65.238 325.274 65.9519C324.539 66.6449 324.172 67.6423 324.172 68.9442V73.7004C324.172 75.0023 324.539 76.0103 325.274 76.7242C326.009 77.4382 326.996 77.7951 328.235 77.7951C329.411 77.7951 330.335 77.4907 331.007 76.8817C331.7 76.2727 332.077 75.4223 332.14 74.3304H334.975C334.912 76.1783 334.272 77.6377 333.054 78.7086C331.836 79.7795 330.23 80.315 328.235 80.315ZM346.995 80.315C345.63 80.315 344.433 80.042 343.404 79.496C342.396 78.9501 341.609 78.1836 341.042 77.1967C340.496 76.1888 340.223 75.0233 340.223 73.7004V68.9757C340.223 67.6318 340.496 66.4664 341.042 65.4795C341.609 64.4925 342.396 63.7261 343.404 63.1801C344.433 62.6341 345.63 62.3612 346.995 62.3612C348.36 62.3612 349.547 62.6341 350.554 63.1801C351.583 63.7261 352.371 64.4925 352.917 65.4795C353.484 66.4664 353.767 67.6318 353.767 68.9757V72.031H342.995V73.7004C342.995 75.0653 343.341 76.1153 344.034 76.8502C344.727 77.5642 345.714 77.9211 346.995 77.9211C348.087 77.9211 348.969 77.7321 349.641 77.3542C350.313 76.9552 350.722 76.3672 350.869 75.5903H353.704C353.515 77.0392 352.801 78.1941 351.562 79.0551C350.344 79.895 348.822 80.315 346.995 80.315ZM350.995 70.1411V68.9757C350.995 67.6108 350.649 66.5609 349.956 65.8259C349.284 65.091 348.297 64.7235 346.995 64.7235C345.714 64.7235 344.727 65.091 344.034 65.8259C343.341 66.5609 342.995 67.6108 342.995 68.9757V69.8892H351.216L350.995 70.1411Z" fill="#413F3E"/>
<path d="M366.669 85.6696C364.884 85.6696 363.33 85.2917 362.007 84.5357C360.684 83.8008 359.656 82.7403 358.921 81.3544C358.207 79.9895 357.85 78.3831 357.85 76.5352V65.8259C357.85 63.9361 358.186 62.3087 358.858 60.9438C359.551 59.5788 360.527 58.5289 361.787 57.794C363.068 57.059 364.59 56.6915 366.354 56.6915C367.95 56.6915 369.325 57.0065 370.48 57.6365C371.635 58.2454 372.517 59.1274 373.126 60.2823C373.756 61.4372 374.071 62.8126 374.071 64.4085V77.9526H371.835V76.2202H370.953L371.551 75.5903C371.551 76.3882 371.247 77.0392 370.638 77.5432C370.029 78.0261 369.22 78.2676 368.212 78.2676C366.848 78.2676 365.798 77.8581 365.063 77.0392C364.349 76.1992 363.992 74.9813 363.992 73.3854V69.6057C363.992 68.0098 364.349 66.8024 365.063 65.9834C365.798 65.1435 366.848 64.7235 368.212 64.7235C369.22 64.7235 370.029 64.9755 370.638 65.4795C371.247 65.9624 371.551 66.6134 371.551 67.4323L371.11 66.7709H371.866L371.551 64.566V64.4085C371.551 63.2116 371.352 62.2037 370.953 61.3847C370.554 60.5658 369.966 59.9463 369.189 59.5263C368.433 59.1064 367.488 58.8964 366.354 58.8964C364.464 58.8964 362.994 59.5053 361.944 60.7233C360.894 61.9412 360.37 63.6421 360.37 65.8259V76.5352C360.37 78.6351 360.926 80.2835 362.039 81.4804C363.173 82.6983 364.716 83.3073 366.669 83.3073H368.874V85.6696H366.669ZM369.031 76.2832C369.892 76.2832 370.522 76.0208 370.921 75.4958C371.341 74.9708 371.551 74.1624 371.551 73.0705V69.5742C371.551 68.5872 371.341 67.8628 370.921 67.4008C370.522 66.9389 369.892 66.7079 369.031 66.7079C368.191 66.7079 367.562 66.9494 367.142 67.4323C366.722 67.8943 366.512 68.6187 366.512 69.6057V73.3854C366.512 74.3724 366.722 75.1073 367.142 75.5903C367.562 76.0523 368.191 76.2832 369.031 76.2832ZM385.776 80.315C384.348 80.315 383.204 79.937 382.343 79.1811C381.482 78.4041 381.051 77.3542 381.051 76.0313L381.618 76.6927H381.051V80H378.217V57.0065H381.051V62.0462L380.988 65.9834H381.618L381.051 66.6449C381.051 65.343 381.482 64.3035 382.343 63.5266C383.225 62.7496 384.369 62.3612 385.776 62.3612C387.519 62.3612 388.915 62.9386 389.965 64.0935C391.015 65.2485 391.54 66.8234 391.54 68.8182V73.8894C391.54 75.8633 391.015 77.4277 389.965 78.5826C388.915 79.7375 387.519 80.315 385.776 80.315ZM384.831 77.8581C386.028 77.8581 386.973 77.5012 387.666 76.7872C388.359 76.0733 388.705 75.0443 388.705 73.7004V68.9757C388.705 67.6318 388.359 66.6029 387.666 65.8889C386.973 65.175 386.028 64.818 384.831 64.818C383.676 64.818 382.752 65.1855 382.059 65.9204C381.387 66.6554 381.051 67.6738 381.051 68.9757V73.7004C381.051 75.0023 381.387 76.0208 382.059 76.7557C382.752 77.4907 383.676 77.8581 384.831 77.8581ZM396.882 80V77.4172H403.025V65.259H397.67V62.6761H405.859V77.4172H411.687V80H396.882ZM404.127 59.5578C403.434 59.5578 402.888 59.3794 402.489 59.0224C402.09 58.6654 401.891 58.1824 401.891 57.5735C401.891 56.9435 402.09 56.45 402.489 56.0931C402.888 55.7151 403.434 55.5261 404.127 55.5261C404.82 55.5261 405.366 55.7151 405.765 56.0931C406.164 56.45 406.363 56.9435 406.363 57.5735C406.363 58.1824 406.164 58.6654 405.765 59.0224C405.366 59.3794 404.82 59.5578 404.127 59.5578ZM424.431 80C422.94 80 421.775 79.601 420.935 78.8031C420.116 78.0051 419.706 76.8817 419.706 75.4328V65.259H414.824V62.6761H419.706V57.794H422.541V62.6761H429.471V65.259H422.541V75.4328C422.541 76.7557 423.171 77.4172 424.431 77.4172H429.156V80H424.431ZM441.553 80.315C440.168 80.315 438.95 80.0525 437.9 79.5275C436.871 79.0026 436.073 78.2466 435.506 77.2597C434.939 76.2517 434.655 75.0653 434.655 73.7004V68.9757C434.655 67.5898 434.939 66.4034 435.506 65.4165C436.073 64.4295 436.871 63.6736 437.9 63.1486C438.95 62.6236 440.168 62.3612 441.553 62.3612C443.548 62.3612 445.155 62.8966 446.373 63.9676C447.591 65.0385 448.231 66.4979 448.294 68.3458H445.459C445.396 67.2328 445.018 66.3824 444.325 65.7944C443.653 65.1855 442.729 64.881 441.553 64.881C440.315 64.881 439.328 65.238 438.593 65.9519C437.858 66.6449 437.49 67.6423 437.49 68.9442V73.7004C437.49 75.0023 437.858 76.0103 438.593 76.7242C439.328 77.4382 440.315 77.7951 441.553 77.7951C442.729 77.7951 443.653 77.4907 444.325 76.8817C445.018 76.2727 445.396 75.4223 445.459 74.3304H448.294C448.231 76.1783 447.591 77.6377 446.373 78.7086C445.155 79.7795 443.548 80.315 441.553 80.315ZM460.314 80.252C458.928 80.252 457.731 79.9895 456.723 79.4645C455.715 78.9396 454.928 78.1836 454.361 77.1967C453.815 76.1888 453.542 75.0023 453.542 73.6374V69.0387C453.542 67.6528 453.815 66.4664 454.361 65.4795C454.928 64.4925 455.715 63.7366 456.723 63.2116C457.731 62.6866 458.928 62.4242 460.314 62.4242C461.7 62.4242 462.897 62.6866 463.905 63.2116C464.913 63.7366 465.69 64.4925 466.236 65.4795C466.802 66.4664 467.086 67.6423 467.086 69.0072V73.6374C467.086 75.0023 466.802 76.1888 466.236 77.1967C465.69 78.1836 464.913 78.9396 463.905 79.4645C462.897 79.9895 461.7 80.252 460.314 80.252ZM460.314 77.7321C461.553 77.7321 462.519 77.3857 463.212 76.6927C463.905 75.9998 464.251 74.9813 464.251 73.6374V69.0387C464.251 67.6948 463.905 66.6764 463.212 65.9834C462.519 65.2905 461.553 64.944 460.314 64.944C459.096 64.944 458.13 65.2905 457.416 65.9834C456.723 66.6764 456.377 67.6948 456.377 69.0387V73.6374C456.377 74.9813 456.723 75.9998 457.416 76.6927C458.13 77.3857 459.096 77.7321 460.314 77.7321ZM472.428 80V77.4172H478.57V65.259H473.216V62.6761H481.405V77.4172H487.232V80H472.428ZM479.673 59.5578C478.98 59.5578 478.434 59.3794 478.035 59.0224C477.636 58.6654 477.436 58.1824 477.436 57.5735C477.436 56.9435 477.636 56.45 478.035 56.0931C478.434 55.7151 478.98 55.5261 479.673 55.5261C480.366 55.5261 480.912 55.7151 481.311 56.0931C481.71 56.45 481.909 56.9435 481.909 57.5735C481.909 58.1824 481.71 58.6654 481.311 59.0224C480.912 59.3794 480.366 59.5578 479.673 59.5578ZM491.535 80V62.6761H494.37V65.9834H494.969L494.37 66.6449C494.37 65.28 494.78 64.23 495.598 63.4951C496.417 62.7391 497.551 62.3612 499 62.3612C500.743 62.3612 502.129 62.8966 503.158 63.9676C504.187 65.0385 504.701 66.4979 504.701 68.3458V80H501.867V68.6607C501.867 67.4218 501.531 66.4769 500.859 65.8259C500.208 65.154 499.315 64.818 498.181 64.818C497.005 64.818 496.071 65.175 495.378 65.8889C494.706 66.6029 494.37 67.6318 494.37 68.9757V80H491.535Z" fill="#FB6E10"/>
<path d="M385.293 148.707C385.683 149.098 386.317 149.098 386.707 148.707L393.071 142.343C393.462 141.953 393.462 141.319 393.071 140.929C392.681 140.538 392.047 140.538 391.657 140.929L386 146.586L380.343 140.929C379.953 140.538 379.319 140.538 378.929 140.929C378.538 141.319 378.538 141.953 378.929 142.343L385.293 148.707ZM385 104V148H387V104H385Z" fill="black"/>
<rect x="55.4909" y="155.491" width="681.018" height="70.0182" rx="1.78134" fill="white" stroke="black" stroke-width="2.9818"/>
<path d="M77.76 202V185.5H80.46V188.65H81.03L80.46 189.28C80.46 187.98 80.85 186.98 81.63 186.28C82.41 185.56 83.49 185.2 84.87 185.2C86.53 185.2 87.85 185.71 88.83 186.73C89.81 187.75 90.3 189.14 90.3 190.9V202H87.6V191.2C87.6 190.02 87.28 189.12 86.64 188.5C86.02 187.86 85.17 187.54 84.09 187.54C82.97 187.54 82.08 187.88 81.42 188.56C80.78 189.24 80.46 190.22 80.46 191.5V202H77.76ZM95.7483 207.4V185.5H98.4483V188.65H98.9883L98.4483 189.28C98.4483 188.02 98.8583 187.03 99.6783 186.31C100.518 185.57 101.618 185.2 102.978 185.2C104.638 185.2 105.958 185.75 106.938 186.85C107.938 187.93 108.438 189.42 108.438 191.32V196.15C108.438 197.41 108.208 198.5 107.748 199.42C107.308 200.34 106.678 201.05 105.858 201.55C105.058 202.05 104.098 202.3 102.978 202.3C101.638 202.3 100.548 201.93 99.7083 201.19C98.8683 200.45 98.4483 199.46 98.4483 198.22L98.9883 198.85H98.3883L98.4483 202.6V207.4H95.7483ZM102.078 199.96C103.218 199.96 104.108 199.62 104.748 198.94C105.408 198.26 105.738 197.28 105.738 196V191.5C105.738 190.22 105.408 189.24 104.748 188.56C104.108 187.88 103.218 187.54 102.078 187.54C100.978 187.54 100.098 187.89 99.4383 188.59C98.7783 189.29 98.4483 190.26 98.4483 191.5V196C98.4483 197.24 98.7783 198.21 99.4383 198.91C100.098 199.61 100.978 199.96 102.078 199.96ZM119.947 202.3C118.047 202.3 116.527 201.74 115.387 200.62C114.247 199.48 113.677 197.94 113.677 196V185.5H116.377V196C116.377 197.24 116.697 198.21 117.337 198.91C117.977 199.59 118.847 199.93 119.947 199.93C121.067 199.93 121.947 199.59 122.587 198.91C123.247 198.21 123.577 197.24 123.577 196V185.5H126.277V196C126.277 197.94 125.697 199.48 124.537 200.62C123.377 201.74 121.847 202.3 119.947 202.3ZM138.925 202.3C137.565 202.3 136.475 201.94 135.655 201.22C134.835 200.48 134.425 199.48 134.425 198.22L134.965 198.85H134.425V202H131.725V180.1H134.425V184.9L134.365 188.65H134.965L134.425 189.28C134.425 188.04 134.835 187.05 135.655 186.31C136.495 185.57 137.585 185.2 138.925 185.2C140.585 185.2 141.915 185.75 142.915 186.85C143.915 187.95 144.415 189.45 144.415 191.35V196.18C144.415 198.06 143.915 199.55 142.915 200.65C141.915 201.75 140.585 202.3 138.925 202.3ZM138.025 199.96C139.165 199.96 140.065 199.62 140.725 198.94C141.385 198.26 141.715 197.28 141.715 196V191.5C141.715 190.22 141.385 189.24 140.725 188.56C140.065 187.88 139.165 187.54 138.025 187.54C136.925 187.54 136.045 187.89 135.385 188.59C134.745 189.29 134.425 190.26 134.425 191.5V196C134.425 197.24 134.745 198.21 135.385 198.91C136.045 199.61 136.925 199.96 138.025 199.96ZM149.653 202V199.54H155.593V182.35L149.653 186.79V183.79L154.603 180.1H158.293V199.54H163.153V202H149.653ZM167.491 207.4V204.91H171.361C172.601 204.91 173.561 204.57 174.241 203.89C174.941 203.23 175.291 202.29 175.291 201.07V187.96H168.391V185.5H177.991V201.07C177.991 203.01 177.391 204.55 176.191 205.69C174.991 206.83 173.381 207.4 171.361 207.4H167.491ZM176.491 182.53C175.831 182.53 175.311 182.36 174.931 182.02C174.551 181.68 174.361 181.22 174.361 180.64C174.361 180.04 174.551 179.57 174.931 179.23C175.311 178.87 175.831 178.69 176.491 178.69C177.151 178.69 177.671 178.87 178.051 179.23C178.431 179.57 178.621 180.04 178.621 180.64C178.621 181.22 178.431 181.68 178.051 182.02C177.671 182.36 177.151 182.53 176.491 182.53ZM194.18 202C193.22 202 192.38 201.81 191.66 201.43C190.94 201.05 190.38 200.51 189.98 199.81C189.58 199.11 189.38 198.29 189.38 197.35V182.56H183.83V180.1H192.08V197.35C192.08 198.03 192.27 198.57 192.65 198.97C193.03 199.35 193.54 199.54 194.18 199.54H199.43V202H194.18ZM204.248 202V185.5H206.888V188.65H207.518L206.648 190.6C206.648 188.82 207.028 187.48 207.788 186.58C208.568 185.66 209.718 185.2 211.238 185.2C212.978 185.2 214.358 185.75 215.378 186.85C216.418 187.93 216.938 189.4 216.938 191.26V192.25H214.238V191.5C214.238 190.2 213.918 189.21 213.278 188.53C212.658 187.83 211.768 187.48 210.608 187.48C209.468 187.48 208.568 187.83 207.908 188.53C207.268 189.23 206.948 190.22 206.948 191.5V202H204.248ZM227.396 202.24C226.276 202.24 225.296 202.07 224.456 201.73C223.636 201.37 222.976 200.87 222.476 200.23C221.996 199.59 221.706 198.83 221.606 197.95H224.306C224.426 198.53 224.746 198.99 225.266 199.33C225.806 199.67 226.516 199.84 227.396 199.84H228.656C229.716 199.84 230.506 199.63 231.026 199.21C231.546 198.77 231.806 198.19 231.806 197.47C231.806 196.77 231.566 196.22 231.086 195.82C230.626 195.4 229.936 195.12 229.016 194.98L226.796 194.62C225.176 194.34 223.966 193.84 223.166 193.12C222.386 192.38 221.996 191.31 221.996 189.91C221.996 188.43 222.466 187.29 223.406 186.49C224.346 185.67 225.756 185.26 227.636 185.26H228.776C230.356 185.26 231.626 185.63 232.586 186.37C233.546 187.11 234.126 188.11 234.326 189.37H231.626C231.506 188.85 231.206 188.44 230.726 188.14C230.246 187.82 229.596 187.66 228.776 187.66H227.636C226.616 187.66 225.866 187.85 225.386 188.23C224.926 188.61 224.696 189.18 224.696 189.94C224.696 190.62 224.896 191.12 225.296 191.44C225.696 191.76 226.326 191.99 227.186 192.13L229.406 192.49C231.186 192.77 232.476 193.29 233.276 194.05C234.096 194.81 234.506 195.91 234.506 197.35C234.506 198.87 234.016 200.07 233.036 200.95C232.076 201.81 230.616 202.24 228.656 202.24H227.396ZM245.835 202.3C244.055 202.3 242.595 201.84 241.455 200.92C240.315 200 239.645 198.76 239.445 197.2H242.145C242.245 198.06 242.615 198.73 243.255 199.21C243.895 199.67 244.765 199.9 245.865 199.9C247.125 199.9 248.065 199.56 248.685 198.88C249.325 198.2 249.645 197.24 249.645 196V193.87C249.645 192.63 249.325 191.67 248.685 190.99C248.065 190.31 247.135 189.97 245.895 189.97C245.115 189.97 244.435 190.18 243.855 190.6C243.275 191 242.855 191.54 242.595 192.22H239.895L240.045 180.1H251.565V182.56H242.655L242.565 189.85H243.405L242.565 190.63C242.565 189.69 242.935 188.95 243.675 188.41C244.435 187.87 245.445 187.6 246.705 187.6C248.485 187.58 249.865 188.13 250.845 189.25C251.845 190.35 252.345 191.89 252.345 193.87V196C252.345 197.94 251.775 199.48 250.635 200.62C249.495 201.74 247.895 202.3 245.835 202.3ZM263.553 202.3C262.233 202.3 261.073 202.04 260.073 201.52C259.093 200.98 258.333 200.24 257.793 199.3C257.253 198.36 256.983 197.26 256.983 196H259.683C259.683 197.22 260.023 198.18 260.703 198.88C261.403 199.56 262.363 199.9 263.583 199.9C264.823 199.9 265.783 199.54 266.463 198.82C267.143 198.1 267.483 197.16 267.483 196V194.44C267.483 193.2 267.143 192.24 266.463 191.56C265.783 190.88 264.823 190.54 263.583 190.54H261.333V187.84L266.763 182.56H257.883V180.1H269.493V182.8L263.643 188.47V188.14C265.643 188.14 267.233 188.71 268.413 189.85C269.593 190.99 270.183 192.52 270.183 194.44V196C270.183 197.26 269.903 198.36 269.343 199.3C268.803 200.24 268.033 200.98 267.033 201.52C266.033 202.04 264.873 202.3 263.553 202.3ZM275.631 207.4V185.5H278.331V188.65H278.871L278.331 189.28C278.331 188.02 278.741 187.03 279.561 186.31C280.401 185.57 281.501 185.2 282.861 185.2C284.521 185.2 285.841 185.75 286.821 186.85C287.821 187.93 288.321 189.42 288.321 191.32V196.15C288.321 197.41 288.091 198.5 287.631 199.42C287.191 200.34 286.561 201.05 285.741 201.55C284.941 202.05 283.981 202.3 282.861 202.3C281.521 202.3 280.431 201.93 279.591 201.19C278.751 200.45 278.331 199.46 278.331 198.22L278.871 198.85H278.271L278.331 202.6V207.4H275.631ZM281.961 199.96C283.101 199.96 283.991 199.62 284.631 198.94C285.291 198.26 285.621 197.28 285.621 196V191.5C285.621 190.22 285.291 189.24 284.631 188.56C283.991 187.88 283.101 187.54 281.961 187.54C280.861 187.54 279.981 187.89 279.321 188.59C278.661 189.29 278.331 190.26 278.331 191.5V196C278.331 197.24 278.661 198.21 279.321 198.91C279.981 199.61 280.861 199.96 281.961 199.96ZM293.709 202V180.1H296.409V192.31H299.589L304.389 185.5H307.479L301.929 193.36L307.569 202H304.419L299.619 194.65H296.409V202H293.709ZM316.888 202.3C315.248 202.3 313.918 201.75 312.898 200.65C311.898 199.55 311.398 198.06 311.398 196.18V191.35C311.398 189.45 311.898 187.95 312.898 186.85C313.898 185.75 315.228 185.2 316.888 185.2C318.248 185.2 319.338 185.57 320.158 186.31C320.978 187.05 321.388 188.04 321.388 189.28L320.848 188.65H321.448L321.388 184.9V180.1H324.088V202H321.388V198.85H320.848L321.388 198.22C321.388 199.48 320.978 200.48 320.158 201.22C319.338 201.94 318.248 202.3 316.888 202.3ZM317.788 199.96C318.908 199.96 319.788 199.61 320.428 198.91C321.068 198.21 321.388 197.24 321.388 196V191.5C321.388 190.26 321.068 189.29 320.428 188.59C319.788 187.89 318.908 187.54 317.788 187.54C316.648 187.54 315.748 187.88 315.088 188.56C314.428 189.24 314.098 190.22 314.098 191.5V196C314.098 197.28 314.428 198.26 315.088 198.94C315.748 199.62 316.648 199.96 317.788 199.96ZM333.436 202V189.61H328.636V187.15H333.436V184.3C333.436 183 333.846 181.98 334.666 181.24C335.486 180.48 336.616 180.1 338.056 180.1H342.886V182.56H338.056C337.436 182.56 336.956 182.71 336.616 183.01C336.296 183.29 336.136 183.72 336.136 184.3V187.15H342.886V189.61H336.136V202H333.436ZM347.374 207.4V204.91H351.244C352.484 204.91 353.444 204.57 354.124 203.89C354.824 203.23 355.174 202.29 355.174 201.07V187.96H348.274V185.5H357.874V201.07C357.874 203.01 357.274 204.55 356.074 205.69C354.874 206.83 353.264 207.4 351.244 207.4H347.374ZM356.374 182.53C355.714 182.53 355.194 182.36 354.814 182.02C354.434 181.68 354.244 181.22 354.244 180.64C354.244 180.04 354.434 179.57 354.814 179.23C355.194 178.87 355.714 178.69 356.374 178.69C357.034 178.69 357.554 178.87 357.934 179.23C358.314 179.57 358.504 180.04 358.504 180.64C358.504 181.22 358.314 181.68 357.934 182.02C357.554 182.36 357.034 182.53 356.374 182.53ZM365.573 202V185.5H368.273V188.65H368.843L368.273 189.28C368.273 187.98 368.663 186.98 369.443 186.28C370.223 185.56 371.303 185.2 372.683 185.2C374.343 185.2 375.663 185.71 376.643 186.73C377.623 187.75 378.113 189.14 378.113 190.9V202H375.413V191.2C375.413 190.02 375.093 189.12 374.453 188.5C373.833 187.86 372.983 187.54 371.903 187.54C370.783 187.54 369.893 187.88 369.233 188.56C368.593 189.24 368.273 190.22 368.273 191.5V202H365.573ZM391.601 202C390.181 202 389.071 201.62 388.271 200.86C387.491 200.1 387.101 199.03 387.101 197.65V187.96H382.451V185.5H387.101V180.85H389.801V185.5H396.401V187.96H389.801V197.65C389.801 198.91 390.401 199.54 391.601 199.54H396.101V202H391.601ZM407.279 202.24C406.159 202.24 405.179 202.07 404.339 201.73C403.519 201.37 402.859 200.87 402.359 200.23C401.879 199.59 401.589 198.83 401.489 197.95H404.189C404.309 198.53 404.629 198.99 405.149 199.33C405.689 199.67 406.399 199.84 407.279 199.84H408.539C409.599 199.84 410.389 199.63 410.909 199.21C411.429 198.77 411.689 198.19 411.689 197.47C411.689 196.77 411.449 196.22 410.969 195.82C410.509 195.4 409.819 195.12 408.899 194.98L406.679 194.62C405.059 194.34 403.849 193.84 403.049 193.12C402.269 192.38 401.879 191.31 401.879 189.91C401.879 188.43 402.349 187.29 403.289 186.49C404.229 185.67 405.639 185.26 407.519 185.26H408.659C410.239 185.26 411.509 185.63 412.469 186.37C413.429 187.11 414.009 188.11 414.209 189.37H411.509C411.389 188.85 411.089 188.44 410.609 188.14C410.129 187.82 409.479 187.66 408.659 187.66H407.519C406.499 187.66 405.749 187.85 405.269 188.23C404.809 188.61 404.579 189.18 404.579 189.94C404.579 190.62 404.779 191.12 405.179 191.44C405.579 191.76 406.209 191.99 407.069 192.13L409.289 192.49C411.069 192.77 412.359 193.29 413.159 194.05C413.979 194.81 414.389 195.91 414.389 197.35C414.389 198.87 413.899 200.07 412.919 200.95C411.959 201.81 410.499 202.24 408.539 202.24H407.279ZM419.537 202V199.24L426.227 192.13C427.367 190.91 428.197 189.83 428.717 188.89C429.237 187.93 429.497 187.01 429.497 186.13C429.497 184.91 429.157 183.95 428.477 183.25C427.817 182.55 426.907 182.2 425.747 182.2C424.467 182.2 423.457 182.56 422.717 183.28C421.997 184 421.637 184.99 421.637 186.25H418.937C418.977 184.93 419.277 183.79 419.837 182.83C420.417 181.85 421.207 181.1 422.207 180.58C423.227 180.06 424.407 179.8 425.747 179.8C427.067 179.8 428.207 180.06 429.167 180.58C430.147 181.08 430.897 181.8 431.417 182.74C431.937 183.68 432.197 184.8 432.197 186.1C432.197 187.34 431.867 188.57 431.207 189.79C430.547 191.01 429.467 192.4 427.967 193.96L422.567 199.54H432.557V202H419.537ZM440.376 202L446.586 192.04L446.466 191.95C446.086 192.51 445.566 192.94 444.906 193.24C444.246 193.54 443.506 193.69 442.686 193.69C441.506 193.69 440.466 193.41 439.566 192.85C438.686 192.29 438.006 191.5 437.526 190.48C437.046 189.44 436.806 188.23 436.806 186.85C436.806 185.43 437.096 184.2 437.676 183.16C438.256 182.1 439.066 181.28 440.106 180.7C441.146 180.1 442.356 179.8 443.736 179.8C445.136 179.8 446.356 180.1 447.396 180.7C448.456 181.28 449.276 182.1 449.856 183.16C450.436 184.2 450.726 185.43 450.726 186.85C450.726 187.95 450.566 189.03 450.246 190.09C449.946 191.15 449.486 192.17 448.866 193.15L443.376 202H440.376ZM443.766 191.5C445.046 191.5 446.076 191.08 446.856 190.24C447.636 189.38 448.026 188.25 448.026 186.85C448.026 185.45 447.636 184.33 446.856 183.49C446.076 182.63 445.046 182.2 443.766 182.2C442.486 182.2 441.456 182.63 440.676 183.49C439.896 184.33 439.506 185.45 439.506 186.85C439.506 188.25 439.896 189.38 440.676 190.24C441.456 191.08 442.486 191.5 443.766 191.5ZM455.604 202V180.1H458.304V192.31H461.484L466.284 185.5H469.374L463.824 193.36L469.464 202H466.314L461.514 194.65H458.304V202H455.604ZM477.912 202L472.392 185.5H475.152L478.812 196.6C479.032 197.26 479.232 197.9 479.412 198.52C479.592 199.12 479.722 199.59 479.802 199.93C479.902 199.59 480.042 199.12 480.222 198.52C480.402 197.9 480.592 197.26 480.792 196.6L484.362 185.5H487.092L481.572 202H477.912ZM497.73 202.3C496.43 202.3 495.29 202.04 494.31 201.52C493.35 201 492.6 200.27 492.06 199.33C491.54 198.37 491.28 197.26 491.28 196V191.5C491.28 190.22 491.54 189.11 492.06 188.17C492.6 187.23 493.35 186.5 494.31 185.98C495.29 185.46 496.43 185.2 497.73 185.2C499.03 185.2 500.16 185.46 501.12 185.98C502.1 186.5 502.85 187.23 503.37 188.17C503.91 189.11 504.18 190.22 504.18 191.5V194.41H493.92V196C493.92 197.3 494.25 198.3 494.91 199C495.57 199.68 496.51 200.02 497.73 200.02C498.77 200.02 499.61 199.84 500.25 199.48C500.89 199.1 501.28 198.54 501.42 197.8H504.12C503.94 199.18 503.26 200.28 502.08 201.1C500.92 201.9 499.47 202.3 497.73 202.3ZM501.54 192.61V191.5C501.54 190.2 501.21 189.2 500.55 188.5C499.91 187.8 498.97 187.45 497.73 187.45C496.51 187.45 495.57 187.8 494.91 188.5C494.25 189.2 493.92 190.2 493.92 191.5V192.37H501.75L501.54 192.61ZM517.969 202C517.009 202 516.169 201.81 515.449 201.43C514.729 201.05 514.169 200.51 513.769 199.81C513.369 199.11 513.169 198.29 513.169 197.35V182.56H507.619V180.1H515.869V197.35C515.869 198.03 516.059 198.57 516.439 198.97C516.819 199.35 517.329 199.54 517.969 199.54H523.219V202H517.969ZM527.257 207.4V204.91H531.127C532.367 204.91 533.327 204.57 534.007 203.89C534.707 203.23 535.057 202.29 535.057 201.07V187.96H528.157V185.5H537.757V201.07C537.757 203.01 537.157 204.55 535.957 205.69C534.757 206.83 533.147 207.4 531.127 207.4H527.257ZM536.257 182.53C535.597 182.53 535.077 182.36 534.697 182.02C534.317 181.68 534.127 181.22 534.127 180.64C534.127 180.04 534.317 179.57 534.697 179.23C535.077 178.87 535.597 178.69 536.257 178.69C536.917 178.69 537.437 178.87 537.817 179.23C538.197 179.57 538.387 180.04 538.387 180.64C538.387 181.22 538.197 181.68 537.817 182.02C537.437 182.36 536.917 182.53 536.257 182.53ZM551.665 202.3C549.765 202.3 548.245 201.74 547.105 200.62C545.965 199.48 545.395 197.94 545.395 196V185.5H548.095V196C548.095 197.24 548.415 198.21 549.055 198.91C549.695 199.59 550.565 199.93 551.665 199.93C552.785 199.93 553.665 199.59 554.305 198.91C554.965 198.21 555.295 197.24 555.295 196V185.5H557.995V196C557.995 197.94 557.415 199.48 556.255 200.62C555.095 201.74 553.565 202.3 551.665 202.3ZM571.934 202C570.974 202 570.134 201.81 569.414 201.43C568.694 201.05 568.134 200.51 567.734 199.81C567.334 199.11 567.134 198.29 567.134 197.35V182.56H561.584V180.1H569.834V197.35C569.834 198.03 570.024 198.57 570.404 198.97C570.784 199.35 571.294 199.54 571.934 199.54H577.184V202H571.934ZM581.432 202V199.24L588.122 192.13C589.262 190.91 590.092 189.83 590.612 188.89C591.132 187.93 591.392 187.01 591.392 186.13C591.392 184.91 591.052 183.95 590.372 183.25C589.712 182.55 588.802 182.2 587.642 182.2C586.362 182.2 585.352 182.56 584.612 183.28C583.892 184 583.532 184.99 583.532 186.25H580.832C580.872 184.93 581.172 183.79 581.732 182.83C582.312 181.85 583.102 181.1 584.102 180.58C585.122 180.06 586.302 179.8 587.642 179.8C588.962 179.8 590.102 180.06 591.062 180.58C592.042 181.08 592.792 181.8 593.312 182.74C593.832 183.68 594.092 184.8 594.092 186.1C594.092 187.34 593.762 188.57 593.102 189.79C592.442 191.01 591.362 192.4 589.862 193.96L584.462 199.54H594.452V202H581.432ZM605.15 202.24C604.03 202.24 603.05 202.07 602.21 201.73C601.39 201.37 600.73 200.87 600.23 200.23C599.75 199.59 599.46 198.83 599.36 197.95H602.06C602.18 198.53 602.5 198.99 603.02 199.33C603.56 199.67 604.27 199.84 605.15 199.84H606.41C607.47 199.84 608.26 199.63 608.78 199.21C609.3 198.77 609.56 198.19 609.56 197.47C609.56 196.77 609.32 196.22 608.84 195.82C608.38 195.4 607.69 195.12 606.77 194.98L604.55 194.62C602.93 194.34 601.72 193.84 600.92 193.12C600.14 192.38 599.75 191.31 599.75 189.91C599.75 188.43 600.22 187.29 601.16 186.49C602.1 185.67 603.51 185.26 605.39 185.26H606.53C608.11 185.26 609.38 185.63 610.34 186.37C611.3 187.11 611.88 188.11 612.08 189.37H609.38C609.26 188.85 608.96 188.44 608.48 188.14C608 187.82 607.35 187.66 606.53 187.66H605.39C604.37 187.66 603.62 187.85 603.14 188.23C602.68 188.61 602.45 189.18 602.45 189.94C602.45 190.62 602.65 191.12 603.05 191.44C603.45 191.76 604.08 191.99 604.94 192.13L607.16 192.49C608.94 192.77 610.23 193.29 611.03 194.05C611.85 194.81 612.26 195.91 612.26 197.35C612.26 198.87 611.77 200.07 610.79 200.95C609.83 201.81 608.37 202.24 606.41 202.24H605.15ZM616.628 202V185.5H618.998V187.48H619.538L619.118 188.2C619.118 187.28 619.358 186.55 619.838 186.01C620.338 185.47 621.008 185.2 621.848 185.2C622.768 185.2 623.478 185.54 623.978 186.22C624.478 186.9 624.728 187.86 624.728 189.1L623.918 187.48H625.178L624.608 188.2C624.608 187.28 624.858 186.55 625.358 186.01C625.878 185.47 626.558 185.2 627.398 185.2C628.438 185.2 629.238 185.59 629.798 186.37C630.378 187.15 630.668 188.18 630.668 189.46V202H628.178V189.43C628.178 188.75 628.028 188.22 627.728 187.84C627.448 187.46 627.028 187.27 626.468 187.27C625.928 187.27 625.498 187.46 625.178 187.84C624.878 188.2 624.728 188.72 624.728 189.4V202H622.568V189.43C622.568 188.73 622.408 188.2 622.088 187.84C621.788 187.46 621.358 187.27 620.798 187.27C620.238 187.27 619.818 187.46 619.538 187.84C619.258 188.2 619.118 188.72 619.118 189.4V202H616.628ZM641.637 202.3C640.297 202.3 639.127 202.04 638.127 201.52C637.147 200.98 636.387 200.23 635.847 199.27C635.307 198.29 635.037 197.15 635.037 195.85V186.25C635.037 184.93 635.307 183.79 635.847 182.83C636.387 181.87 637.147 181.13 638.127 180.61C639.127 180.07 640.297 179.8 641.637 179.8C642.997 179.8 644.167 180.07 645.147 180.61C646.127 181.13 646.887 181.87 647.427 182.83C647.967 183.79 648.237 184.93 648.237 186.25V195.85C648.237 197.15 647.967 198.29 647.427 199.27C646.887 200.23 646.117 200.98 645.117 201.52C644.137 202.04 642.977 202.3 641.637 202.3ZM641.637 199.99C642.837 199.99 643.797 199.61 644.517 198.85C645.257 198.07 645.627 197.07 645.627 195.85V186.25C645.627 185.03 645.257 184.04 644.517 183.28C643.797 182.5 642.837 182.11 641.637 182.11C640.437 182.11 639.467 182.5 638.727 183.28C638.007 184.04 637.647 185.03 637.647 186.25V195.85C637.647 197.07 638.007 198.07 638.727 198.85C639.467 199.61 640.437 199.99 641.637 199.99ZM641.637 192.82C641.097 192.82 640.657 192.65 640.317 192.31C639.997 191.97 639.837 191.52 639.837 190.96C639.837 190.42 639.997 189.99 640.317 189.67C640.657 189.33 641.097 189.16 641.637 189.16C642.177 189.16 642.607 189.33 642.927 189.67C643.267 189.99 643.437 190.42 643.437 190.96C643.437 191.52 643.267 191.97 642.927 192.31C642.607 192.65 642.177 192.82 641.637 192.82ZM658.185 202.3C656.445 202.3 655.075 201.86 654.075 200.98C653.075 200.08 652.575 198.87 652.575 197.35C652.575 195.81 653.075 194.6 654.075 193.72C655.075 192.84 656.425 192.4 658.125 192.4H663.225V190.75C663.225 189.73 662.915 188.95 662.295 188.41C661.695 187.85 660.835 187.57 659.715 187.57C658.735 187.57 657.915 187.78 657.255 188.2C656.595 188.6 656.215 189.15 656.115 189.85H653.415C653.595 188.43 654.265 187.3 655.425 186.46C656.585 185.62 658.035 185.2 659.775 185.2C661.675 185.2 663.175 185.69 664.275 186.67C665.375 187.65 665.925 188.98 665.925 190.66V202H663.285V198.85H662.835L663.285 198.4C663.285 199.6 662.815 200.55 661.875 201.25C660.955 201.95 659.725 202.3 658.185 202.3ZM658.845 200.17C660.125 200.17 661.175 199.85 661.995 199.21C662.815 198.57 663.225 197.75 663.225 196.75V194.41H658.185C657.285 194.41 656.575 194.66 656.055 195.16C655.535 195.66 655.275 196.34 655.275 197.2C655.275 198.12 655.585 198.85 656.205 199.39C656.845 199.91 657.725 200.17 658.845 200.17ZM677.733 202.3C676.413 202.3 675.253 202.05 674.253 201.55C673.273 201.05 672.513 200.33 671.973 199.39C671.433 198.43 671.163 197.3 671.163 196V191.5C671.163 190.18 671.433 189.05 671.973 188.11C672.513 187.17 673.273 186.45 674.253 185.95C675.253 185.45 676.413 185.2 677.733 185.2C679.633 185.2 681.163 185.71 682.323 186.73C683.483 187.75 684.093 189.14 684.153 190.9H681.453C681.393 189.84 681.033 189.03 680.373 188.47C679.733 187.89 678.853 187.6 677.733 187.6C676.553 187.6 675.613 187.94 674.913 188.62C674.213 189.28 673.863 190.23 673.863 191.47V196C673.863 197.24 674.213 198.2 674.913 198.88C675.613 199.56 676.553 199.9 677.733 199.9C678.853 199.9 679.733 199.61 680.373 199.03C681.033 198.45 681.393 197.64 681.453 196.6H684.153C684.093 198.36 683.483 199.75 682.323 200.77C681.163 201.79 679.633 202.3 677.733 202.3ZM698.638 202.3C697.878 202.3 697.278 202.08 696.838 201.64C696.378 201.2 696.148 200.61 696.148 199.87C696.148 199.09 696.378 198.47 696.838 198.01C697.278 197.55 697.878 197.32 698.638 197.32C699.398 197.32 700.008 197.55 700.468 198.01C700.908 198.47 701.128 199.09 701.128 199.87C701.128 200.61 700.908 201.2 700.468 201.64C700.008 202.08 699.398 202.3 698.638 202.3ZM713.608 202.3C712.848 202.3 712.248 202.08 711.808 201.64C711.348 201.2 711.118 200.61 711.118 199.87C711.118 199.09 711.348 198.47 711.808 198.01C712.248 197.55 712.848 197.32 713.608 197.32C714.368 197.32 714.978 197.55 715.438 198.01C715.878 198.47 716.098 199.09 716.098 199.87C716.098 200.61 715.878 201.2 715.438 201.64C714.978 202.08 714.368 202.3 713.608 202.3ZM728.578 202.3C727.818 202.3 727.208 202.08 726.748 201.64C726.308 201.2 726.088 200.61 726.088 199.87C726.088 199.09 726.308 198.47 726.748 198.01C727.208 197.55 727.818 197.32 728.578 197.32C729.338 197.32 729.938 197.55 730.378 198.01C730.838 198.47 731.068 199.09 731.068 199.87C731.068 200.61 730.838 201.2 730.378 201.64C729.938 202.08 729.338 202.3 728.578 202.3Z" fill="#65DE28"/>
<rect y="152" width="54" height="78" fill="white" fill-opacity="0.93"/>
<rect x="738" y="154" width="57" height="78" fill="white" fill-opacity="0.87"/>
</svg>
