<svg width="795" height="264" viewBox="0 0 795 264" fill="none" xmlns="http://www.w3.org/2000/svg">
<path d="M289.288 260V249.78H292.452C293.059 249.78 293.591 249.906 294.048 250.158C294.505 250.401 294.86 250.741 295.112 251.18C295.364 251.619 295.49 252.132 295.49 252.72C295.49 253.411 295.308 254.003 294.944 254.498C294.589 254.993 294.104 255.333 293.488 255.52L295.63 260H294.146L292.186 255.66H290.548V260H289.288ZM290.548 254.526H292.452C292.975 254.526 293.395 254.363 293.712 254.036C294.029 253.7 294.188 253.261 294.188 252.72C294.188 252.169 294.029 251.731 293.712 251.404C293.395 251.077 292.975 250.914 292.452 250.914H290.548V254.526ZM300.595 260.14C299.988 260.14 299.456 260.019 298.999 259.776C298.551 259.533 298.201 259.193 297.949 258.754C297.706 258.306 297.585 257.788 297.585 257.2V255.1C297.585 254.503 297.706 253.985 297.949 253.546C298.201 253.107 298.551 252.767 298.999 252.524C299.456 252.281 299.988 252.16 300.595 252.16C301.201 252.16 301.729 252.281 302.177 252.524C302.634 252.767 302.984 253.107 303.227 253.546C303.479 253.985 303.605 254.503 303.605 255.1V256.458H298.817V257.2C298.817 257.807 298.971 258.273 299.279 258.6C299.587 258.917 300.025 259.076 300.595 259.076C301.08 259.076 301.472 258.992 301.771 258.824C302.069 258.647 302.251 258.385 302.317 258.04H303.577C303.493 258.684 303.175 259.197 302.625 259.58C302.083 259.953 301.407 260.14 300.595 260.14ZM302.373 255.618V255.1C302.373 254.493 302.219 254.027 301.911 253.7C301.612 253.373 301.173 253.21 300.595 253.21C300.025 253.21 299.587 253.373 299.279 253.7C298.971 254.027 298.817 254.493 298.817 255.1V255.506H302.471L302.373 255.618ZM308.751 260.112C308.228 260.112 307.771 260.033 307.379 259.874C306.996 259.706 306.688 259.473 306.455 259.174C306.231 258.875 306.096 258.521 306.049 258.11H307.309C307.365 258.381 307.514 258.595 307.757 258.754C308.009 258.913 308.34 258.992 308.751 258.992H309.339C309.834 258.992 310.202 258.894 310.445 258.698C310.688 258.493 310.809 258.222 310.809 257.886C310.809 257.559 310.697 257.303 310.473 257.116C310.258 256.92 309.936 256.789 309.507 256.724L308.471 256.556C307.715 256.425 307.15 256.192 306.777 255.856C306.413 255.511 306.231 255.011 306.231 254.358C306.231 253.667 306.45 253.135 306.889 252.762C307.328 252.379 307.986 252.188 308.863 252.188H309.395C310.132 252.188 310.725 252.361 311.173 252.706C311.621 253.051 311.892 253.518 311.985 254.106H310.725C310.669 253.863 310.529 253.672 310.305 253.532C310.081 253.383 309.778 253.308 309.395 253.308H308.863C308.387 253.308 308.037 253.397 307.813 253.574C307.598 253.751 307.491 254.017 307.491 254.372C307.491 254.689 307.584 254.923 307.771 255.072C307.958 255.221 308.252 255.329 308.653 255.394L309.689 255.562C310.52 255.693 311.122 255.935 311.495 256.29C311.878 256.645 312.069 257.158 312.069 257.83C312.069 258.539 311.84 259.099 311.383 259.51C310.935 259.911 310.254 260.112 309.339 260.112H308.751ZM317.384 260.112C316.768 260.112 316.236 259.995 315.788 259.762C315.34 259.529 314.99 259.193 314.738 258.754C314.495 258.306 314.374 257.779 314.374 257.172V255.128C314.374 254.512 314.495 253.985 314.738 253.546C314.99 253.107 315.34 252.771 315.788 252.538C316.236 252.305 316.768 252.188 317.384 252.188C318 252.188 318.532 252.305 318.98 252.538C319.428 252.771 319.773 253.107 320.016 253.546C320.268 253.985 320.394 254.507 320.394 255.114V257.172C320.394 257.779 320.268 258.306 320.016 258.754C319.773 259.193 319.428 259.529 318.98 259.762C318.532 259.995 318 260.112 317.384 260.112ZM317.384 258.992C317.934 258.992 318.364 258.838 318.672 258.53C318.98 258.222 319.134 257.769 319.134 257.172V255.128C319.134 254.531 318.98 254.078 318.672 253.77C318.364 253.462 317.934 253.308 317.384 253.308C316.842 253.308 316.413 253.462 316.096 253.77C315.788 254.078 315.634 254.531 315.634 255.128V257.172C315.634 257.769 315.788 258.222 316.096 258.53C316.413 258.838 316.842 258.992 317.384 258.992ZM326.828 260C326.38 260 325.988 259.911 325.652 259.734C325.316 259.557 325.055 259.305 324.868 258.978C324.681 258.651 324.588 258.269 324.588 257.83V250.928H321.998V249.78H325.848V257.83C325.848 258.147 325.937 258.399 326.114 258.586C326.291 258.763 326.529 258.852 326.828 258.852H329.278V260H326.828ZM333.319 260L330.743 252.3H332.031L333.739 257.48C333.841 257.788 333.935 258.087 334.019 258.376C334.103 258.656 334.163 258.875 334.201 259.034C334.247 258.875 334.313 258.656 334.397 258.376C334.481 258.087 334.569 257.788 334.663 257.48L336.329 252.3H337.603L335.027 260H333.319ZM342.567 260.14C341.961 260.14 341.429 260.019 340.971 259.776C340.523 259.533 340.173 259.193 339.921 258.754C339.679 258.306 339.557 257.788 339.557 257.2V255.1C339.557 254.503 339.679 253.985 339.921 253.546C340.173 253.107 340.523 252.767 340.971 252.524C341.429 252.281 341.961 252.16 342.567 252.16C343.174 252.16 343.701 252.281 344.149 252.524C344.607 252.767 344.957 253.107 345.199 253.546C345.451 253.985 345.577 254.503 345.577 255.1V256.458H340.789V257.2C340.789 257.807 340.943 258.273 341.251 258.6C341.559 258.917 341.998 259.076 342.567 259.076C343.053 259.076 343.445 258.992 343.743 258.824C344.042 258.647 344.224 258.385 344.289 258.04H345.549C345.465 258.684 345.148 259.197 344.597 259.58C344.056 259.953 343.379 260.14 342.567 260.14ZM344.345 255.618V255.1C344.345 254.493 344.191 254.027 343.883 253.7C343.585 253.373 343.146 253.21 342.567 253.21C341.998 253.21 341.559 253.373 341.251 253.7C340.943 254.027 340.789 254.493 340.789 255.1V255.506H344.443L344.345 255.618ZM350.724 260.112C350.201 260.112 349.744 260.033 349.352 259.874C348.969 259.706 348.661 259.473 348.428 259.174C348.204 258.875 348.068 258.521 348.022 258.11H349.282C349.338 258.381 349.487 258.595 349.73 258.754C349.982 258.913 350.313 258.992 350.724 258.992H351.312C351.806 258.992 352.175 258.894 352.418 258.698C352.66 258.493 352.782 258.222 352.782 257.886C352.782 257.559 352.67 257.303 352.446 257.116C352.231 256.92 351.909 256.789 351.48 256.724L350.444 256.556C349.688 256.425 349.123 256.192 348.75 255.856C348.386 255.511 348.204 255.011 348.204 254.358C348.204 253.667 348.423 253.135 348.862 252.762C349.3 252.379 349.958 252.188 350.836 252.188H351.368C352.105 252.188 352.698 252.361 353.146 252.706C353.594 253.051 353.864 253.518 353.958 254.106H352.698C352.642 253.863 352.502 253.672 352.278 253.532C352.054 253.383 351.75 253.308 351.368 253.308H350.836C350.36 253.308 350.01 253.397 349.786 253.574C349.571 253.751 349.464 254.017 349.464 254.372C349.464 254.689 349.557 254.923 349.744 255.072C349.93 255.221 350.224 255.329 350.626 255.394L351.662 255.562C352.492 255.693 353.094 255.935 353.468 256.29C353.85 256.645 354.042 257.158 354.042 257.83C354.042 258.539 353.813 259.099 353.356 259.51C352.908 259.911 352.226 260.112 351.312 260.112H350.724ZM368.591 260C367.928 260 367.41 259.823 367.037 259.468C366.673 259.113 366.491 258.614 366.491 257.97V253.448H364.321V252.3H366.491V250.13H367.751V252.3H370.831V253.448H367.751V257.97C367.751 258.558 368.031 258.852 368.591 258.852H370.691V260H368.591ZM376.145 260.112C375.529 260.112 374.997 259.995 374.549 259.762C374.101 259.529 373.751 259.193 373.499 258.754C373.257 258.306 373.135 257.779 373.135 257.172V255.128C373.135 254.512 373.257 253.985 373.499 253.546C373.751 253.107 374.101 252.771 374.549 252.538C374.997 252.305 375.529 252.188 376.145 252.188C376.761 252.188 377.293 252.305 377.741 252.538C378.189 252.771 378.535 253.107 378.777 253.546C379.029 253.985 379.155 254.507 379.155 255.114V257.172C379.155 257.779 379.029 258.306 378.777 258.754C378.535 259.193 378.189 259.529 377.741 259.762C377.293 259.995 376.761 260.112 376.145 260.112ZM376.145 258.992C376.696 258.992 377.125 258.838 377.433 258.53C377.741 258.222 377.895 257.769 377.895 257.172V255.128C377.895 254.531 377.741 254.078 377.433 253.77C377.125 253.462 376.696 253.308 376.145 253.308C375.604 253.308 375.175 253.462 374.857 253.77C374.549 254.078 374.395 254.531 374.395 255.128V257.172C374.395 257.769 374.549 258.222 374.857 258.53C375.175 258.838 375.604 258.992 376.145 258.992ZM392.262 260.14C391.45 260.14 390.811 259.935 390.344 259.524C389.878 259.104 389.644 258.539 389.644 257.83C389.644 257.111 389.878 256.547 390.344 256.136C390.811 255.725 391.441 255.52 392.234 255.52H394.614V254.75C394.614 254.274 394.47 253.91 394.18 253.658C393.9 253.397 393.499 253.266 392.976 253.266C392.519 253.266 392.136 253.364 391.828 253.56C391.52 253.747 391.343 254.003 391.296 254.33H390.036C390.12 253.667 390.433 253.14 390.974 252.748C391.516 252.356 392.192 252.16 393.004 252.16C393.891 252.16 394.591 252.389 395.104 252.846C395.618 253.303 395.874 253.924 395.874 254.708V260H394.642V258.53H394.432L394.642 258.32C394.642 258.88 394.423 259.323 393.984 259.65C393.555 259.977 392.981 260.14 392.262 260.14ZM392.57 259.146C393.168 259.146 393.658 258.997 394.04 258.698C394.423 258.399 394.614 258.017 394.614 257.55V256.458H392.262C391.842 256.458 391.511 256.575 391.268 256.808C391.026 257.041 390.904 257.359 390.904 257.76C390.904 258.189 391.049 258.53 391.338 258.782C391.637 259.025 392.048 259.146 392.57 259.146ZM406.811 262.52V252.3H408.071V253.77H408.323L408.071 254.064C408.071 253.476 408.263 253.014 408.645 252.678C409.037 252.333 409.551 252.16 410.185 252.16C410.96 252.16 411.576 252.417 412.033 252.93C412.5 253.434 412.733 254.129 412.733 255.016V257.27C412.733 257.858 412.626 258.367 412.411 258.796C412.206 259.225 411.912 259.557 411.529 259.79C411.156 260.023 410.708 260.14 410.185 260.14C409.56 260.14 409.051 259.967 408.659 259.622C408.267 259.277 408.071 258.815 408.071 258.236L408.323 258.53H408.043L408.071 260.28V262.52H406.811ZM409.765 259.048C410.297 259.048 410.713 258.889 411.011 258.572C411.319 258.255 411.473 257.797 411.473 257.2V255.1C411.473 254.503 411.319 254.045 411.011 253.728C410.713 253.411 410.297 253.252 409.765 253.252C409.252 253.252 408.841 253.415 408.533 253.742C408.225 254.069 408.071 254.521 408.071 255.1V257.2C408.071 257.779 408.225 258.231 408.533 258.558C408.841 258.885 409.252 259.048 409.765 259.048ZM418.104 260.14C417.217 260.14 416.508 259.879 415.976 259.356C415.444 258.824 415.178 258.105 415.178 257.2V252.3H416.438V257.2C416.438 257.779 416.587 258.231 416.886 258.558C417.185 258.875 417.591 259.034 418.104 259.034C418.627 259.034 419.037 258.875 419.336 258.558C419.644 258.231 419.798 257.779 419.798 257.2V252.3H421.058V257.2C421.058 258.105 420.787 258.824 420.246 259.356C419.705 259.879 418.991 260.14 418.104 260.14ZM426.961 260.14C426.326 260.14 425.817 259.972 425.435 259.636C425.052 259.291 424.861 258.824 424.861 258.236L425.113 258.53H424.861V260H423.601V249.78H424.861V252.02L424.833 253.77H425.113L424.861 254.064C424.861 253.485 425.052 253.023 425.435 252.678C425.827 252.333 426.335 252.16 426.961 252.16C427.735 252.16 428.356 252.417 428.823 252.93C429.289 253.443 429.523 254.143 429.523 255.03V257.284C429.523 258.161 429.289 258.857 428.823 259.37C428.356 259.883 427.735 260.14 426.961 260.14ZM426.541 259.048C427.073 259.048 427.493 258.889 427.801 258.572C428.109 258.255 428.263 257.797 428.263 257.2V255.1C428.263 254.503 428.109 254.045 427.801 253.728C427.493 253.411 427.073 253.252 426.541 253.252C426.027 253.252 425.617 253.415 425.309 253.742C425.01 254.069 424.861 254.521 424.861 255.1V257.2C424.861 257.779 425.01 258.231 425.309 258.558C425.617 258.885 426.027 259.048 426.541 259.048ZM435.957 260C435.509 260 435.117 259.911 434.781 259.734C434.445 259.557 434.184 259.305 433.997 258.978C433.81 258.651 433.717 258.269 433.717 257.83V250.928H431.127V249.78H434.977V257.83C434.977 258.147 435.066 258.399 435.243 258.586C435.42 258.763 435.658 258.852 435.957 258.852H438.407V260H435.957ZM440.292 260V258.852H443.022V253.448H440.642V252.3H444.282V258.852H446.872V260H440.292ZM443.512 250.914C443.204 250.914 442.961 250.835 442.784 250.676C442.606 250.517 442.518 250.303 442.518 250.032C442.518 249.752 442.606 249.533 442.784 249.374C442.961 249.206 443.204 249.122 443.512 249.122C443.82 249.122 444.062 249.206 444.24 249.374C444.417 249.533 444.506 249.752 444.506 250.032C444.506 250.303 444.417 250.517 444.24 250.676C444.062 250.835 443.82 250.914 443.512 250.914ZM451.752 260.14C451.136 260.14 450.595 260.023 450.128 259.79C449.671 259.557 449.316 259.221 449.064 258.782C448.812 258.334 448.686 257.807 448.686 257.2V255.1C448.686 254.484 448.812 253.957 449.064 253.518C449.316 253.079 449.671 252.743 450.128 252.51C450.595 252.277 451.136 252.16 451.752 252.16C452.639 252.16 453.353 252.398 453.894 252.874C454.435 253.35 454.72 253.999 454.748 254.82H453.488C453.46 254.325 453.292 253.947 452.984 253.686C452.685 253.415 452.275 253.28 451.752 253.28C451.201 253.28 450.763 253.439 450.436 253.756C450.109 254.064 449.946 254.507 449.946 255.086V257.2C449.946 257.779 450.109 258.227 450.436 258.544C450.763 258.861 451.201 259.02 451.752 259.02C452.275 259.02 452.685 258.885 452.984 258.614C453.292 258.343 453.46 257.965 453.488 257.48H454.748C454.72 258.301 454.435 258.95 453.894 259.426C453.353 259.902 452.639 260.14 451.752 260.14ZM465.615 260V249.78H466.875V255.478H468.359L470.599 252.3H472.041L469.451 255.968L472.083 260H470.613L468.373 256.57H466.875V260H465.615ZM476.88 260.14C476.273 260.14 475.741 260.019 475.284 259.776C474.836 259.533 474.486 259.193 474.234 258.754C473.991 258.306 473.87 257.788 473.87 257.2V255.1C473.87 254.503 473.991 253.985 474.234 253.546C474.486 253.107 474.836 252.767 475.284 252.524C475.741 252.281 476.273 252.16 476.88 252.16C477.486 252.16 478.014 252.281 478.462 252.524C478.919 252.767 479.269 253.107 479.512 253.546C479.764 253.985 479.89 254.503 479.89 255.1V256.458H475.102V257.2C475.102 257.807 475.256 258.273 475.564 258.6C475.872 258.917 476.31 259.076 476.88 259.076C477.365 259.076 477.757 258.992 478.056 258.824C478.354 258.647 478.536 258.385 478.602 258.04H479.862C479.778 258.684 479.46 259.197 478.91 259.58C478.368 259.953 477.692 260.14 476.88 260.14ZM478.658 255.618V255.1C478.658 254.493 478.504 254.027 478.196 253.7C477.897 253.373 477.458 253.21 476.88 253.21C476.31 253.21 475.872 253.373 475.564 253.7C475.256 254.027 475.102 254.493 475.102 255.1V255.506H478.756L478.658 255.618ZM483.566 262.52L484.7 259.524L481.844 252.3H483.244L485.036 257.06C485.102 257.219 485.162 257.41 485.218 257.634C485.274 257.849 485.321 258.031 485.358 258.18C485.396 258.031 485.442 257.849 485.498 257.634C485.554 257.41 485.61 257.219 485.666 257.06L487.346 252.3H488.704L484.91 262.52H483.566Z" fill="#161513"/>
<rect x="245" y="33" width="282" height="70" rx="2.59984" fill="white" stroke="black" stroke-width="2"/>
<path d="M305.7 14L308.36 3.78H310.054L312.7 14H311.426L310.754 11.284H307.66L306.988 14H305.7ZM307.912 10.22H310.488L309.704 7.07C309.555 6.47267 309.438 5.97333 309.354 5.572C309.27 5.17067 309.219 4.90933 309.2 4.788C309.181 4.90933 309.13 5.17067 309.046 5.572C308.962 5.97333 308.845 6.468 308.696 7.056L307.912 10.22ZM325.695 14.126C325.107 14.126 324.594 14.0327 324.155 13.846C323.716 13.6593 323.371 13.4027 323.119 13.076C322.876 12.74 322.746 12.348 322.727 11.9H324.477C324.496 12.1427 324.612 12.3387 324.827 12.488C325.051 12.6373 325.34 12.712 325.695 12.712H326.311C326.74 12.712 327.062 12.628 327.277 12.46C327.492 12.292 327.599 12.0633 327.599 11.774C327.599 11.5033 327.501 11.2933 327.305 11.144C327.118 10.9853 326.824 10.8827 326.423 10.836L325.471 10.696C324.594 10.5747 323.95 10.3413 323.539 9.996C323.128 9.65067 322.923 9.13267 322.923 8.442C322.923 7.72333 323.166 7.168 323.651 6.776C324.136 6.37467 324.85 6.174 325.793 6.174H326.325C327.184 6.174 327.87 6.36533 328.383 6.748C328.896 7.13067 329.172 7.644 329.209 8.288H327.459C327.431 8.08267 327.314 7.91467 327.109 7.784C326.913 7.65333 326.652 7.588 326.325 7.588H325.793C325.392 7.588 325.098 7.66267 324.911 7.812C324.734 7.952 324.645 8.162 324.645 8.442C324.645 8.70333 324.724 8.89933 324.883 9.03C325.042 9.15133 325.298 9.24 325.653 9.296L326.647 9.436C327.562 9.56667 328.234 9.814 328.663 10.178C329.102 10.5327 329.321 11.06 329.321 11.76C329.321 12.5067 329.064 13.09 328.551 13.51C328.047 13.9207 327.3 14.126 326.311 14.126H325.695ZM334.384 14.126C333.73 14.126 333.161 14.0047 332.676 13.762C332.2 13.51 331.826 13.16 331.556 12.712C331.294 12.2547 331.164 11.718 331.164 11.102V9.198C331.164 8.582 331.294 8.05 331.556 7.602C331.826 7.14467 332.2 6.79467 332.676 6.552C333.161 6.3 333.73 6.174 334.384 6.174C335.046 6.174 335.616 6.3 336.092 6.552C336.568 6.79467 336.936 7.14467 337.198 7.602C337.468 8.05 337.604 8.57733 337.604 9.184V11.102C337.604 11.718 337.468 12.2547 337.198 12.712C336.936 13.16 336.568 13.51 336.092 13.762C335.616 14.0047 335.046 14.126 334.384 14.126ZM334.384 12.6C334.85 12.6 335.21 12.474 335.462 12.222C335.723 11.9607 335.854 11.5873 335.854 11.102V9.198C335.854 8.70333 335.723 8.33 335.462 8.078C335.21 7.826 334.85 7.7 334.384 7.7C333.926 7.7 333.567 7.826 333.306 8.078C333.044 8.33 332.914 8.70333 332.914 9.198V11.102C332.914 11.5873 333.044 11.9607 333.306 12.222C333.567 12.474 333.926 12.6 334.384 12.6ZM341.658 14L339.124 6.3H340.916L342.386 10.976C342.47 11.256 342.549 11.5453 342.624 11.844C342.708 12.1427 342.769 12.3807 342.806 12.558C342.853 12.3807 342.913 12.1427 342.988 11.844C343.063 11.5453 343.137 11.2607 343.212 10.99L344.654 6.3H346.432L343.912 14H341.658ZM351.187 14.14C350.533 14.14 349.964 14.014 349.479 13.762C348.993 13.51 348.615 13.16 348.345 12.712C348.083 12.2547 347.953 11.7227 347.953 11.116V9.184C347.953 8.57733 348.083 8.05 348.345 7.602C348.615 7.14467 348.993 6.79 349.479 6.538C349.964 6.286 350.533 6.16 351.187 6.16C351.831 6.16 352.391 6.286 352.867 6.538C353.352 6.79 353.725 7.14467 353.987 7.602C354.257 8.05 354.393 8.57733 354.393 9.184V10.57H349.647V11.116C349.647 11.6573 349.777 12.068 350.039 12.348C350.3 12.6187 350.687 12.754 351.201 12.754C351.593 12.754 351.91 12.6887 352.153 12.558C352.395 12.418 352.549 12.2173 352.615 11.956H354.337C354.206 12.6187 353.851 13.1507 353.273 13.552C352.703 13.944 352.008 14.14 351.187 14.14ZM352.699 9.59V9.17C352.699 8.638 352.573 8.232 352.321 7.952C352.069 7.66267 351.691 7.518 351.187 7.518C350.683 7.518 350.3 7.66267 350.039 7.952C349.777 8.24133 349.647 8.652 349.647 9.184V9.478L352.825 9.45L352.699 9.59ZM356.683 14V6.3H358.335V7.77H358.769L358.251 8.666C358.251 7.83533 358.438 7.21 358.811 6.79C359.185 6.37 359.735 6.16 360.463 6.16C361.294 6.16 361.947 6.41667 362.423 6.93C362.899 7.44333 363.137 8.15267 363.137 9.058V9.618H361.303V9.184C361.303 8.68933 361.173 8.30667 360.911 8.036C360.659 7.76533 360.309 7.63 359.861 7.63C359.404 7.63 359.049 7.76533 358.797 8.036C358.555 8.30667 358.433 8.68933 358.433 9.184V14H356.683ZM367.976 14.14C367.322 14.14 366.753 14.014 366.268 13.762C365.782 13.51 365.404 13.16 365.134 12.712C364.872 12.2547 364.742 11.7227 364.742 11.116V9.184C364.742 8.57733 364.872 8.05 365.134 7.602C365.404 7.14467 365.782 6.79 366.268 6.538C366.753 6.286 367.322 6.16 367.976 6.16C368.62 6.16 369.18 6.286 369.656 6.538C370.141 6.79 370.514 7.14467 370.776 7.602C371.046 8.05 371.182 8.57733 371.182 9.184V10.57H366.436V11.116C366.436 11.6573 366.566 12.068 366.828 12.348C367.089 12.6187 367.476 12.754 367.99 12.754C368.382 12.754 368.699 12.6887 368.942 12.558C369.184 12.418 369.338 12.2173 369.404 11.956H371.126C370.995 12.6187 370.64 13.1507 370.062 13.552C369.492 13.944 368.797 14.14 367.976 14.14ZM369.488 9.59V9.17C369.488 8.638 369.362 8.232 369.11 7.952C368.858 7.66267 368.48 7.518 367.976 7.518C367.472 7.518 367.089 7.66267 366.828 7.952C366.566 8.24133 366.436 8.652 366.436 9.184V9.478L369.614 9.45L369.488 9.59ZM373.22 14V12.404H375.908V7.882H373.57V6.3H377.588V12.404H379.968V14H373.22ZM376.608 5.012C376.254 5.012 375.974 4.92333 375.768 4.746C375.563 4.55933 375.46 4.312 375.46 4.004C375.46 3.696 375.563 3.45333 375.768 3.276C375.974 3.08933 376.254 2.996 376.608 2.996C376.963 2.996 377.243 3.08933 377.448 3.276C377.654 3.45333 377.756 3.696 377.756 4.004C377.756 4.312 377.654 4.55933 377.448 4.746C377.243 4.92333 376.963 5.012 376.608 5.012ZM382.679 16.52V15.064H384.961C385.353 15.064 385.647 14.966 385.843 14.77C386.039 14.5833 386.137 14.3127 386.137 13.958V13.384L386.165 11.942H385.787L386.165 11.564C386.165 12.1893 385.978 12.6793 385.605 13.034C385.241 13.3793 384.746 13.552 384.121 13.552C383.337 13.552 382.711 13.286 382.245 12.754C381.787 12.222 381.559 11.5033 381.559 10.598V9.1C381.559 8.204 381.787 7.49 382.245 6.958C382.711 6.426 383.337 6.16 384.121 6.16C384.746 6.16 385.241 6.33733 385.605 6.692C385.978 7.03733 386.165 7.52267 386.165 8.148L385.787 7.77H386.165L386.123 6.3H387.873V14C387.873 14.7747 387.616 15.386 387.103 15.834C386.589 16.2913 385.885 16.52 384.989 16.52H382.679ZM384.709 12.04C385.157 12.04 385.502 11.9093 385.745 11.648C385.997 11.3773 386.123 11.004 386.123 10.528V9.184C386.123 8.708 385.997 8.33933 385.745 8.078C385.502 7.80733 385.157 7.672 384.709 7.672C384.261 7.672 383.915 7.80267 383.673 8.064C383.43 8.32533 383.309 8.69867 383.309 9.184V10.528C383.309 11.0133 383.43 11.3867 383.673 11.648C383.915 11.9093 384.261 12.04 384.709 12.04ZM390.023 14V6.3H391.731V7.77H392.207L391.731 8.176C391.731 7.54133 391.913 7.04667 392.277 6.692C392.651 6.33733 393.159 6.16 393.803 6.16C394.559 6.16 395.161 6.412 395.609 6.916C396.067 7.42 396.295 8.09667 396.295 8.946V14H394.545V9.128C394.545 8.66133 394.424 8.302 394.181 8.05C393.939 7.798 393.598 7.672 393.159 7.672C392.73 7.672 392.389 7.80267 392.137 8.064C391.895 8.32533 391.773 8.69867 391.773 9.184V14H390.023ZM406.812 14V3.78H408.562V6.3L408.52 7.77H408.996L408.52 8.176C408.52 7.54133 408.702 7.04667 409.066 6.692C409.44 6.33733 409.948 6.16 410.592 6.16C411.348 6.16 411.95 6.412 412.398 6.916C412.856 7.42 413.084 8.09667 413.084 8.946V14H411.334V9.128C411.334 8.66133 411.213 8.302 410.97 8.05C410.728 7.798 410.387 7.672 409.948 7.672C409.519 7.672 409.178 7.80267 408.926 8.064C408.684 8.32533 408.562 8.69867 408.562 9.184V14H406.812ZM417.475 14.14C416.682 14.14 416.056 13.93 415.599 13.51C415.142 13.09 414.913 12.5253 414.913 11.816C414.913 11.06 415.165 10.4767 415.669 10.066C416.173 9.65533 416.887 9.45 417.811 9.45H419.729V8.792C419.729 8.41867 419.608 8.12933 419.365 7.924C419.122 7.70933 418.791 7.602 418.371 7.602C417.988 7.602 417.671 7.686 417.419 7.854C417.167 8.022 417.018 8.25067 416.971 8.54H415.263C415.347 7.812 415.674 7.23333 416.243 6.804C416.812 6.37467 417.54 6.16 418.427 6.16C419.37 6.16 420.112 6.398 420.653 6.874C421.204 7.34067 421.479 7.97533 421.479 8.778V14H419.785V12.656H419.505L419.785 12.278C419.785 12.8473 419.575 13.3 419.155 13.636C418.735 13.972 418.175 14.14 417.475 14.14ZM418.049 12.824C418.544 12.824 418.945 12.698 419.253 12.446C419.57 12.194 419.729 11.8673 419.729 11.466V10.528H417.839C417.484 10.528 417.2 10.6307 416.985 10.836C416.77 11.0413 416.663 11.312 416.663 11.648C416.663 12.012 416.784 12.3013 417.027 12.516C417.279 12.7213 417.62 12.824 418.049 12.824ZM423.601 14V6.3H425.309V7.77H425.785L425.309 8.176C425.309 7.54133 425.491 7.04667 425.855 6.692C426.229 6.33733 426.737 6.16 427.381 6.16C428.137 6.16 428.739 6.412 429.187 6.916C429.645 7.42 429.873 8.09667 429.873 8.946V14H428.123V9.128C428.123 8.66133 428.002 8.302 427.759 8.05C427.517 7.798 427.176 7.672 426.737 7.672C426.308 7.672 425.967 7.80267 425.715 8.064C425.473 8.32533 425.351 8.69867 425.351 9.184V14H423.601ZM434.46 14.14C433.695 14.14 433.074 13.874 432.598 13.342C432.131 12.81 431.898 12.096 431.898 11.2V9.114C431.898 8.20867 432.131 7.49 432.598 6.958C433.065 6.426 433.685 6.16 434.46 6.16C435.095 6.16 435.599 6.342 435.972 6.706C436.345 7.06067 436.532 7.55067 436.532 8.176L436.14 7.77H436.546L436.49 5.936V3.78H438.24V14H436.532V12.53H436.14L436.532 12.124C436.532 12.7493 436.345 13.244 435.972 13.608C435.599 13.9627 435.095 14.14 434.46 14.14ZM435.076 12.628C435.524 12.628 435.869 12.4973 436.112 12.236C436.364 11.9653 436.49 11.592 436.49 11.116V9.184C436.49 8.708 436.364 8.33933 436.112 8.078C435.869 7.80733 435.524 7.672 435.076 7.672C434.628 7.672 434.278 7.80267 434.026 8.064C433.774 8.32533 433.648 8.69867 433.648 9.184V11.116C433.648 11.6013 433.774 11.9747 434.026 12.236C434.278 12.4973 434.628 12.628 435.076 12.628ZM444.689 14C444.185 14 443.741 13.8973 443.359 13.692C442.985 13.4867 442.691 13.1973 442.477 12.824C442.262 12.4413 442.155 12.0027 442.155 11.508V5.362H439.691V3.78H443.905V11.508C443.905 11.788 443.984 12.012 444.143 12.18C444.311 12.3387 444.535 12.418 444.815 12.418H447.139V14H444.689ZM451.921 14.14C451.268 14.14 450.698 14.014 450.213 13.762C449.728 13.51 449.35 13.16 449.079 12.712C448.818 12.2547 448.687 11.7227 448.687 11.116V9.184C448.687 8.57733 448.818 8.05 449.079 7.602C449.35 7.14467 449.728 6.79 450.213 6.538C450.698 6.286 451.268 6.16 451.921 6.16C452.565 6.16 453.125 6.286 453.601 6.538C454.086 6.79 454.46 7.14467 454.721 7.602C454.992 8.05 455.127 8.57733 455.127 9.184V10.57H450.381V11.116C450.381 11.6573 450.512 12.068 450.773 12.348C451.034 12.6187 451.422 12.754 451.935 12.754C452.327 12.754 452.644 12.6887 452.887 12.558C453.13 12.418 453.284 12.2173 453.349 11.956H455.071C454.94 12.6187 454.586 13.1507 454.007 13.552C453.438 13.944 452.742 14.14 451.921 14.14ZM453.433 9.59V9.17C453.433 8.638 453.307 8.232 453.055 7.952C452.803 7.66267 452.425 7.518 451.921 7.518C451.417 7.518 451.034 7.66267 450.773 7.952C450.512 8.24133 450.381 8.652 450.381 9.184V9.478L453.559 9.45L453.433 9.59Z" fill="#161513"/>
<path d="M292.457 80.315C291.029 80.315 289.885 79.937 289.024 79.1811C288.163 78.4041 287.733 77.3542 287.733 76.0313L288.3 76.6927H287.733V80H284.898V57.0065H287.733V62.0462L287.67 65.9834H288.3L287.733 66.6449C287.733 65.343 288.163 64.3035 289.024 63.5266C289.906 62.7496 291.05 62.3612 292.457 62.3612C294.2 62.3612 295.597 62.9386 296.647 64.0935C297.696 65.2485 298.221 66.8234 298.221 68.8182V73.8894C298.221 75.8633 297.696 77.4277 296.647 78.5826C295.597 79.7375 294.2 80.315 292.457 80.315ZM291.512 77.8581C292.709 77.8581 293.654 77.5012 294.347 76.7872C295.04 76.0733 295.387 75.0443 295.387 73.7004V68.9757C295.387 67.6318 295.04 66.6029 294.347 65.8889C293.654 65.175 292.709 64.818 291.512 64.818C290.357 64.818 289.434 65.1855 288.741 65.9204C288.069 66.6554 287.733 67.6738 287.733 68.9757V73.7004C287.733 75.0023 288.069 76.0208 288.741 76.7557C289.434 77.4907 290.357 77.8581 291.512 77.8581ZM310.336 80.252C308.95 80.252 307.753 79.9895 306.745 79.4645C305.737 78.9396 304.95 78.1836 304.383 77.1967C303.837 76.1888 303.564 75.0023 303.564 73.6374V69.0387C303.564 67.6528 303.837 66.4664 304.383 65.4795C304.95 64.4925 305.737 63.7366 306.745 63.2116C307.753 62.6866 308.95 62.4242 310.336 62.4242C311.722 62.4242 312.919 62.6866 313.927 63.2116C314.935 63.7366 315.711 64.4925 316.257 65.4795C316.824 66.4664 317.108 67.6423 317.108 69.0072V73.6374C317.108 75.0023 316.824 76.1888 316.257 77.1967C315.711 78.1836 314.935 78.9396 313.927 79.4645C312.919 79.9895 311.722 80.252 310.336 80.252ZM310.336 77.7321C311.575 77.7321 312.541 77.3857 313.234 76.6927C313.927 75.9998 314.273 74.9813 314.273 73.6374V69.0387C314.273 67.6948 313.927 66.6764 313.234 65.9834C312.541 65.2905 311.575 64.944 310.336 64.944C309.118 64.944 308.152 65.2905 307.438 65.9834C306.745 66.6764 306.399 67.6948 306.399 69.0387V73.6374C306.399 74.9813 306.745 75.9998 307.438 76.6927C308.152 77.3857 309.118 77.7321 310.336 77.7321ZM330.23 80.315C328.802 80.315 327.658 79.937 326.797 79.1811C325.936 78.4041 325.506 77.3542 325.506 76.0313L326.072 76.6927H325.506V80H322.671V57.0065H325.506V62.0462L325.443 65.9834H326.072L325.506 66.6449C325.506 65.343 325.936 64.3035 326.797 63.5266C327.679 62.7496 328.823 62.3612 330.23 62.3612C331.973 62.3612 333.37 62.9386 334.419 64.0935C335.469 65.2485 335.994 66.8234 335.994 68.8182V73.8894C335.994 75.8633 335.469 77.4277 334.419 78.5826C333.37 79.7375 331.973 80.315 330.23 80.315ZM329.285 77.8581C330.482 77.8581 331.427 77.5012 332.12 76.7872C332.813 76.0733 333.16 75.0443 333.16 73.7004V68.9757C333.16 67.6318 332.813 66.6029 332.12 65.8889C331.427 65.175 330.482 64.818 329.285 64.818C328.13 64.818 327.206 65.1855 326.513 65.9204C325.842 66.6554 325.506 67.6738 325.506 68.9757V73.7004C325.506 75.0023 325.842 76.0208 326.513 76.7557C327.206 77.4907 328.13 77.8581 329.285 77.8581Z" fill="#413F3E"/>
<path d="M348.896 85.6696C347.111 85.6696 345.557 85.2917 344.234 84.5357C342.912 83.8008 341.883 82.7403 341.148 81.3544C340.434 79.9895 340.077 78.3831 340.077 76.5352V65.8259C340.077 63.9361 340.413 62.3087 341.085 60.9438C341.778 59.5788 342.754 58.5289 344.014 57.794C345.295 57.059 346.817 56.6915 348.581 56.6915C350.177 56.6915 351.553 57.0065 352.707 57.6365C353.862 58.2454 354.744 59.1274 355.353 60.2823C355.983 61.4372 356.298 62.8126 356.298 64.4085V77.9526H354.062V76.2202H353.18L353.778 75.5903C353.778 76.3882 353.474 77.0392 352.865 77.5432C352.256 78.0261 351.448 78.2676 350.44 78.2676C349.075 78.2676 348.025 77.8581 347.29 77.0392C346.576 76.1992 346.219 74.9813 346.219 73.3854V69.6057C346.219 68.0098 346.576 66.8024 347.29 65.9834C348.025 65.1435 349.075 64.7235 350.44 64.7235C351.448 64.7235 352.256 64.9755 352.865 65.4795C353.474 65.9624 353.778 66.6134 353.778 67.4323L353.337 66.7709H354.093L353.778 64.566V64.4085C353.778 63.2116 353.579 62.2037 353.18 61.3847C352.781 60.5658 352.193 59.9463 351.416 59.5263C350.66 59.1064 349.715 58.8964 348.581 58.8964C346.691 58.8964 345.221 59.5053 344.172 60.7233C343.122 61.9412 342.597 63.6421 342.597 65.8259V76.5352C342.597 78.6351 343.153 80.2835 344.266 81.4804C345.4 82.6983 346.943 83.3073 348.896 83.3073H351.101V85.6696H348.896ZM351.259 76.2832C352.119 76.2832 352.749 76.0208 353.148 75.4958C353.568 74.9708 353.778 74.1624 353.778 73.0705V69.5742C353.778 68.5872 353.568 67.8628 353.148 67.4008C352.749 66.9389 352.119 66.7079 351.259 66.7079C350.419 66.7079 349.789 66.9494 349.369 67.4323C348.949 67.8943 348.739 68.6187 348.739 69.6057V73.3854C348.739 74.3724 348.949 75.1073 349.369 75.5903C349.789 76.0523 350.419 76.2832 351.259 76.2832ZM368.003 80.315C366.575 80.315 365.431 79.937 364.57 79.1811C363.709 78.4041 363.278 77.3542 363.278 76.0313L363.845 76.6927H363.278V80H360.444V57.0065H363.278V62.0462L363.215 65.9834H363.845L363.278 66.6449C363.278 65.343 363.709 64.3035 364.57 63.5266C365.452 62.7496 366.596 62.3612 368.003 62.3612C369.746 62.3612 371.142 62.9386 372.192 64.0935C373.242 65.2485 373.767 66.8234 373.767 68.8182V73.8894C373.767 75.8633 373.242 77.4277 372.192 78.5826C371.142 79.7375 369.746 80.315 368.003 80.315ZM367.058 77.8581C368.255 77.8581 369.2 77.5012 369.893 76.7872C370.586 76.0733 370.932 75.0443 370.932 73.7004V68.9757C370.932 67.6318 370.586 66.6029 369.893 65.8889C369.2 65.175 368.255 64.818 367.058 64.818C365.903 64.818 364.979 65.1855 364.286 65.9204C363.614 66.6554 363.278 67.6738 363.278 68.9757V73.7004C363.278 75.0023 363.614 76.0208 364.286 76.7557C364.979 77.4907 365.903 77.8581 367.058 77.8581ZM379.11 80V77.4172H385.252V65.259H379.897V62.6761H388.086V77.4172H393.914V80H379.11ZM386.354 59.5578C385.661 59.5578 385.115 59.3794 384.716 59.0224C384.317 58.6654 384.118 58.1824 384.118 57.5735C384.118 56.9435 384.317 56.45 384.716 56.0931C385.115 55.7151 385.661 55.5261 386.354 55.5261C387.047 55.5261 387.593 55.7151 387.992 56.0931C388.391 56.45 388.59 56.9435 388.59 57.5735C388.59 58.1824 388.391 58.6654 387.992 59.0224C387.593 59.3794 387.047 59.5578 386.354 59.5578ZM406.658 80C405.167 80 404.002 79.601 403.162 78.8031C402.343 78.0051 401.933 76.8817 401.933 75.4328V65.259H397.051V62.6761H401.933V57.794H404.768V62.6761H411.698V65.259H404.768V75.4328C404.768 76.7557 405.398 77.4172 406.658 77.4172H411.383V80H406.658ZM423.781 80.315C422.395 80.315 421.177 80.0525 420.127 79.5275C419.098 79.0026 418.3 78.2466 417.733 77.2597C417.166 76.2517 416.882 75.0653 416.882 73.7004V68.9757C416.882 67.5898 417.166 66.4034 417.733 65.4165C418.3 64.4295 419.098 63.6736 420.127 63.1486C421.177 62.6236 422.395 62.3612 423.781 62.3612C425.775 62.3612 427.382 62.8966 428.6 63.9676C429.818 65.0385 430.458 66.4979 430.521 68.3458H427.686C427.623 67.2328 427.245 66.3824 426.552 65.7944C425.88 65.1855 424.956 64.881 423.781 64.881C422.542 64.881 421.555 65.238 420.82 65.9519C420.085 66.6449 419.717 67.6423 419.717 68.9442V73.7004C419.717 75.0023 420.085 76.0103 420.82 76.7242C421.555 77.4382 422.542 77.7951 423.781 77.7951C424.956 77.7951 425.88 77.4907 426.552 76.8817C427.245 76.2727 427.623 75.4223 427.686 74.3304H430.521C430.458 76.1783 429.818 77.6377 428.6 78.7086C427.382 79.7795 425.775 80.315 423.781 80.315ZM442.541 80.252C441.155 80.252 439.958 79.9895 438.95 79.4645C437.942 78.9396 437.155 78.1836 436.588 77.1967C436.042 76.1888 435.769 75.0023 435.769 73.6374V69.0387C435.769 67.6528 436.042 66.4664 436.588 65.4795C437.155 64.4925 437.942 63.7366 438.95 63.2116C439.958 62.6866 441.155 62.4242 442.541 62.4242C443.927 62.4242 445.124 62.6866 446.132 63.2116C447.14 63.7366 447.917 64.4925 448.463 65.4795C449.03 66.4664 449.313 67.6423 449.313 69.0072V73.6374C449.313 75.0023 449.03 76.1888 448.463 77.1967C447.917 78.1836 447.14 78.9396 446.132 79.4645C445.124 79.9895 443.927 80.252 442.541 80.252ZM442.541 77.7321C443.78 77.7321 444.746 77.3857 445.439 76.6927C446.132 75.9998 446.478 74.9813 446.478 73.6374V69.0387C446.478 67.6948 446.132 66.6764 445.439 65.9834C444.746 65.2905 443.78 64.944 442.541 64.944C441.323 64.944 440.357 65.2905 439.643 65.9834C438.95 66.6764 438.604 67.6948 438.604 69.0387V73.6374C438.604 74.9813 438.95 75.9998 439.643 76.6927C440.357 77.3857 441.323 77.7321 442.541 77.7321ZM454.655 80V77.4172H460.798V65.259H455.443V62.6761H463.632V77.4172H469.459V80H454.655ZM461.9 59.5578C461.207 59.5578 460.661 59.3794 460.262 59.0224C459.863 58.6654 459.664 58.1824 459.664 57.5735C459.664 56.9435 459.863 56.45 460.262 56.0931C460.661 55.7151 461.207 55.5261 461.9 55.5261C462.593 55.5261 463.139 55.7151 463.538 56.0931C463.937 56.45 464.136 56.9435 464.136 57.5735C464.136 58.1824 463.937 58.6654 463.538 59.0224C463.139 59.3794 462.593 59.5578 461.9 59.5578ZM473.762 80V62.6761H476.597V65.9834H477.196L476.597 66.6449C476.597 65.28 477.007 64.23 477.826 63.4951C478.645 62.7391 479.778 62.3612 481.227 62.3612C482.97 62.3612 484.356 62.8966 485.385 63.9676C486.414 65.0385 486.928 66.4979 486.928 68.3458V80H484.094V68.6607C484.094 67.4218 483.758 66.4769 483.086 65.8259C482.435 65.154 481.542 64.818 480.408 64.818C479.232 64.818 478.298 65.175 477.605 65.8889C476.933 66.6029 476.597 67.6318 476.597 68.9757V80H473.762Z" fill="#FB6E10"/>
<path d="M385.293 148.707C385.683 149.098 386.317 149.098 386.707 148.707L393.071 142.343C393.462 141.953 393.462 141.319 393.071 140.929C392.681 140.538 392.047 140.538 391.657 140.929L386 146.586L380.343 140.929C379.953 140.538 379.319 140.538 378.929 140.929C378.538 141.319 378.538 141.953 378.929 142.343L385.293 148.707ZM385 104V148H387V104H385Z" fill="black"/>
<rect x="55.4909" y="155.491" width="681.018" height="70.0182" rx="1.78134" fill="white" stroke="black" stroke-width="2.9818"/>
<path d="M77.76 202V185.5H80.46V188.65H81.03L80.46 189.28C80.46 187.98 80.85 186.98 81.63 186.28C82.41 185.56 83.49 185.2 84.87 185.2C86.53 185.2 87.85 185.71 88.83 186.73C89.81 187.75 90.3 189.14 90.3 190.9V202H87.6V191.2C87.6 190.02 87.28 189.12 86.64 188.5C86.02 187.86 85.17 187.54 84.09 187.54C82.97 187.54 82.08 187.88 81.42 188.56C80.78 189.24 80.46 190.22 80.46 191.5V202H77.76ZM95.7483 207.4V185.5H98.4483V188.65H98.9883L98.4483 189.28C98.4483 188.02 98.8583 187.03 99.6783 186.31C100.518 185.57 101.618 185.2 102.978 185.2C104.638 185.2 105.958 185.75 106.938 186.85C107.938 187.93 108.438 189.42 108.438 191.32V196.15C108.438 197.41 108.208 198.5 107.748 199.42C107.308 200.34 106.678 201.05 105.858 201.55C105.058 202.05 104.098 202.3 102.978 202.3C101.638 202.3 100.548 201.93 99.7083 201.19C98.8683 200.45 98.4483 199.46 98.4483 198.22L98.9883 198.85H98.3883L98.4483 202.6V207.4H95.7483ZM102.078 199.96C103.218 199.96 104.108 199.62 104.748 198.94C105.408 198.26 105.738 197.28 105.738 196V191.5C105.738 190.22 105.408 189.24 104.748 188.56C104.108 187.88 103.218 187.54 102.078 187.54C100.978 187.54 100.098 187.89 99.4383 188.59C98.7783 189.29 98.4483 190.26 98.4483 191.5V196C98.4483 197.24 98.7783 198.21 99.4383 198.91C100.098 199.61 100.978 199.96 102.078 199.96ZM119.947 202.3C118.047 202.3 116.527 201.74 115.387 200.62C114.247 199.48 113.677 197.94 113.677 196V185.5H116.377V196C116.377 197.24 116.697 198.21 117.337 198.91C117.977 199.59 118.847 199.93 119.947 199.93C121.067 199.93 121.947 199.59 122.587 198.91C123.247 198.21 123.577 197.24 123.577 196V185.5H126.277V196C126.277 197.94 125.697 199.48 124.537 200.62C123.377 201.74 121.847 202.3 119.947 202.3ZM138.925 202.3C137.565 202.3 136.475 201.94 135.655 201.22C134.835 200.48 134.425 199.48 134.425 198.22L134.965 198.85H134.425V202H131.725V180.1H134.425V184.9L134.365 188.65H134.965L134.425 189.28C134.425 188.04 134.835 187.05 135.655 186.31C136.495 185.57 137.585 185.2 138.925 185.2C140.585 185.2 141.915 185.75 142.915 186.85C143.915 187.95 144.415 189.45 144.415 191.35V196.18C144.415 198.06 143.915 199.55 142.915 200.65C141.915 201.75 140.585 202.3 138.925 202.3ZM138.025 199.96C139.165 199.96 140.065 199.62 140.725 198.94C141.385 198.26 141.715 197.28 141.715 196V191.5C141.715 190.22 141.385 189.24 140.725 188.56C140.065 187.88 139.165 187.54 138.025 187.54C136.925 187.54 136.045 187.89 135.385 188.59C134.745 189.29 134.425 190.26 134.425 191.5V196C134.425 197.24 134.745 198.21 135.385 198.91C136.045 199.61 136.925 199.96 138.025 199.96ZM155.953 202.3C154.613 202.3 153.443 202.07 152.443 201.61C151.463 201.13 150.703 200.45 150.163 199.57C149.623 198.69 149.353 197.66 149.353 196.48C149.353 195.18 149.703 194.06 150.403 193.12C151.123 192.18 152.253 191.34 153.793 190.6L156.703 189.19C157.583 188.77 158.263 188.22 158.743 187.54C159.223 186.86 159.463 186.11 159.463 185.29C159.463 184.33 159.143 183.57 158.503 183.01C157.883 182.45 157.033 182.17 155.953 182.17C154.873 182.17 154.013 182.46 153.373 183.04C152.753 183.6 152.443 184.36 152.443 185.32C152.443 186.12 152.673 186.86 153.133 187.54C153.613 188.22 154.263 188.76 155.083 189.16L157.993 190.54C159.593 191.28 160.753 192.13 161.473 193.09C162.193 194.03 162.553 195.16 162.553 196.48C162.553 198.26 161.953 199.68 160.753 200.74C159.573 201.78 157.973 202.3 155.953 202.3ZM155.953 199.9C157.173 199.9 158.133 199.59 158.833 198.97C159.553 198.33 159.913 197.48 159.913 196.42C159.913 195.56 159.683 194.78 159.223 194.08C158.763 193.38 158.103 192.82 157.243 192.4L154.363 190.99C152.763 190.21 151.603 189.37 150.883 188.47C150.163 187.57 149.803 186.49 149.803 185.23C149.803 184.11 150.053 183.14 150.553 182.32C151.053 181.5 151.763 180.87 152.683 180.43C153.603 179.99 154.693 179.77 155.953 179.77C157.213 179.77 158.303 179.99 159.223 180.43C160.143 180.87 160.853 181.5 161.353 182.32C161.853 183.14 162.103 184.11 162.103 185.23C162.103 186.49 161.743 187.57 161.023 188.47C160.303 189.35 159.113 190.2 157.453 191.02L154.573 192.43C153.753 192.83 153.113 193.38 152.653 194.08C152.213 194.76 151.993 195.52 151.993 196.36C151.993 197.44 152.343 198.3 153.043 198.94C153.763 199.58 154.733 199.9 155.953 199.9ZM172.981 202.3C171.341 202.3 170.011 201.75 168.991 200.65C167.991 199.55 167.491 198.06 167.491 196.18V191.35C167.491 189.45 167.991 187.95 168.991 186.85C169.991 185.75 171.321 185.2 172.981 185.2C174.341 185.2 175.431 185.57 176.251 186.31C177.071 187.05 177.481 188.04 177.481 189.28L176.941 188.65H177.541L177.481 184.9V180.1H180.181V202H177.481V198.85H176.941L177.481 198.22C177.481 199.48 177.071 200.48 176.251 201.22C175.431 201.94 174.341 202.3 172.981 202.3ZM173.881 199.96C175.001 199.96 175.881 199.61 176.521 198.91C177.161 198.21 177.481 197.24 177.481 196V191.5C177.481 190.26 177.161 189.29 176.521 188.59C175.881 187.89 175.001 187.54 173.881 187.54C172.741 187.54 171.841 187.88 171.181 188.56C170.521 189.24 170.191 190.22 170.191 191.5V196C170.191 197.28 170.521 198.26 171.181 198.94C171.841 199.62 172.741 199.96 173.881 199.96ZM190.49 202.3C188.75 202.3 187.38 201.86 186.38 200.98C185.38 200.08 184.88 198.87 184.88 197.35C184.88 195.81 185.38 194.6 186.38 193.72C187.38 192.84 188.73 192.4 190.43 192.4H195.53V190.75C195.53 189.73 195.22 188.95 194.6 188.41C194 187.85 193.14 187.57 192.02 187.57C191.04 187.57 190.22 187.78 189.56 188.2C188.9 188.6 188.52 189.15 188.42 189.85H185.72C185.9 188.43 186.57 187.3 187.73 186.46C188.89 185.62 190.34 185.2 192.08 185.2C193.98 185.2 195.48 185.69 196.58 186.67C197.68 187.65 198.23 188.98 198.23 190.66V202H195.59V198.85H195.14L195.59 198.4C195.59 199.6 195.12 200.55 194.18 201.25C193.26 201.95 192.03 202.3 190.49 202.3ZM191.15 200.17C192.43 200.17 193.48 199.85 194.3 199.21C195.12 198.57 195.53 197.75 195.53 196.75V194.41H190.49C189.59 194.41 188.88 194.66 188.36 195.16C187.84 195.66 187.58 196.34 187.58 197.2C187.58 198.12 187.89 198.85 188.51 199.39C189.15 199.91 190.03 200.17 191.15 200.17ZM213.218 202V197.2H203.318V192.97L211.988 180.1H214.928L206.018 193.54V194.74H213.218V189.4H215.918V202H213.218ZM221.606 202V199.54H227.546V182.35L221.606 186.79V183.79L226.556 180.1H230.246V199.54H235.106V202H221.606ZM245.565 202.3C244.245 202.3 243.085 202.04 242.085 201.52C241.105 200.98 240.345 200.24 239.805 199.3C239.265 198.36 238.995 197.26 238.995 196H241.695C241.695 197.22 242.035 198.18 242.715 198.88C243.415 199.56 244.375 199.9 245.595 199.9C246.835 199.9 247.795 199.54 248.475 198.82C249.155 198.1 249.495 197.16 249.495 196V194.44C249.495 193.2 249.155 192.24 248.475 191.56C247.795 190.88 246.835 190.54 245.595 190.54H243.345V187.84L248.775 182.56H239.895V180.1H251.505V182.8L245.655 188.47V188.14C247.655 188.14 249.245 188.71 250.425 189.85C251.605 190.99 252.195 192.52 252.195 194.44V196C252.195 197.26 251.915 198.36 251.355 199.3C250.815 200.24 250.045 200.98 249.045 201.52C248.045 202.04 246.885 202.3 245.565 202.3ZM267.183 202V197.2H257.283V192.97L265.953 180.1H268.893L259.983 193.54V194.74H267.183V189.4H269.883V202H267.183ZM282.831 202.3C281.471 202.3 280.381 201.94 279.561 201.22C278.741 200.48 278.331 199.48 278.331 198.22L278.871 198.85H278.331V202H275.631V180.1H278.331V184.9L278.271 188.65H278.871L278.331 189.28C278.331 188.04 278.741 187.05 279.561 186.31C280.401 185.57 281.491 185.2 282.831 185.2C284.491 185.2 285.821 185.75 286.821 186.85C287.821 187.95 288.321 189.45 288.321 191.35V196.18C288.321 198.06 287.821 199.55 286.821 200.65C285.821 201.75 284.491 202.3 282.831 202.3ZM281.931 199.96C283.071 199.96 283.971 199.62 284.631 198.94C285.291 198.26 285.621 197.28 285.621 196V191.5C285.621 190.22 285.291 189.24 284.631 188.56C283.971 187.88 283.071 187.54 281.931 187.54C280.831 187.54 279.951 187.89 279.291 188.59C278.651 189.29 278.331 190.26 278.331 191.5V196C278.331 197.24 278.651 198.21 279.291 198.91C279.951 199.61 280.831 199.96 281.931 199.96ZM293.619 202V199.24L300.309 192.13C301.449 190.91 302.279 189.83 302.799 188.89C303.319 187.93 303.579 187.01 303.579 186.13C303.579 184.91 303.239 183.95 302.559 183.25C301.899 182.55 300.989 182.2 299.829 182.2C298.549 182.2 297.539 182.56 296.799 183.28C296.079 184 295.719 184.99 295.719 186.25H293.019C293.059 184.93 293.359 183.79 293.919 182.83C294.499 181.85 295.289 181.1 296.289 180.58C297.309 180.06 298.489 179.8 299.829 179.8C301.149 179.8 302.289 180.06 303.249 180.58C304.229 181.08 304.979 181.8 305.499 182.74C306.019 183.68 306.279 184.8 306.279 186.1C306.279 187.34 305.949 188.57 305.289 189.79C304.629 191.01 303.549 192.4 302.049 193.96L296.649 199.54H306.639V202H293.619ZM318.808 202.3C317.448 202.3 316.358 201.94 315.538 201.22C314.718 200.48 314.308 199.48 314.308 198.22L314.848 198.85H314.308V202H311.608V180.1H314.308V184.9L314.248 188.65H314.848L314.308 189.28C314.308 188.04 314.718 187.05 315.538 186.31C316.378 185.57 317.468 185.2 318.808 185.2C320.468 185.2 321.798 185.75 322.798 186.85C323.798 187.95 324.298 189.45 324.298 191.35V196.18C324.298 198.06 323.798 199.55 322.798 200.65C321.798 201.75 320.468 202.3 318.808 202.3ZM317.908 199.96C319.048 199.96 319.948 199.62 320.608 198.94C321.268 198.26 321.598 197.28 321.598 196V191.5C321.598 190.22 321.268 189.24 320.608 188.56C319.948 187.88 319.048 187.54 317.908 187.54C316.808 187.54 315.928 187.89 315.268 188.59C314.628 189.29 314.308 190.26 314.308 191.5V196C314.308 197.24 314.628 198.21 315.268 198.91C315.928 199.61 316.808 199.96 317.908 199.96ZM335.836 202.3C334.536 202.3 333.396 202.04 332.416 201.52C331.456 201 330.706 200.27 330.166 199.33C329.646 198.37 329.386 197.26 329.386 196V191.5C329.386 190.22 329.646 189.11 330.166 188.17C330.706 187.23 331.456 186.5 332.416 185.98C333.396 185.46 334.536 185.2 335.836 185.2C337.136 185.2 338.266 185.46 339.226 185.98C340.206 186.5 340.956 187.23 341.476 188.17C342.016 189.11 342.286 190.22 342.286 191.5V194.41H332.026V196C332.026 197.3 332.356 198.3 333.016 199C333.676 199.68 334.616 200.02 335.836 200.02C336.876 200.02 337.716 199.84 338.356 199.48C338.996 199.1 339.386 198.54 339.526 197.8H342.226C342.046 199.18 341.366 200.28 340.186 201.1C339.026 201.9 337.576 202.3 335.836 202.3ZM339.646 192.61V191.5C339.646 190.2 339.316 189.2 338.656 188.5C338.016 187.8 337.076 187.45 335.836 187.45C334.616 187.45 333.676 187.8 333.016 188.5C332.356 189.2 332.026 190.2 332.026 191.5V192.37H339.856L339.646 192.61ZM353.854 202.3C352.454 202.3 351.224 202.01 350.164 201.43C349.124 200.83 348.314 200 347.734 198.94C347.154 197.88 346.864 196.65 346.864 195.25C346.864 194.15 347.014 193.07 347.314 192.01C347.634 190.95 348.104 189.93 348.724 188.95L354.214 180.1H357.214L351.004 190.06L351.124 190.15C351.504 189.59 352.024 189.16 352.684 188.86C353.344 188.56 354.084 188.41 354.904 188.41C356.104 188.41 357.144 188.69 358.024 189.25C358.904 189.81 359.584 190.6 360.064 191.62C360.544 192.64 360.784 193.85 360.784 195.25C360.784 196.65 360.494 197.88 359.914 198.94C359.334 200 358.524 200.83 357.484 201.43C356.464 202.01 355.254 202.3 353.854 202.3ZM353.824 199.9C355.104 199.9 356.134 199.48 356.914 198.64C357.694 197.78 358.084 196.65 358.084 195.25C358.084 193.85 357.694 192.73 356.914 191.89C356.134 191.03 355.104 190.6 353.824 190.6C352.544 190.6 351.514 191.03 350.734 191.89C349.954 192.73 349.564 193.85 349.564 195.25C349.564 196.65 349.954 197.78 350.734 198.64C351.514 199.48 352.544 199.9 353.824 199.9ZM371.933 202.3C370.613 202.3 369.453 202.05 368.453 201.55C367.473 201.05 366.713 200.33 366.173 199.39C365.633 198.43 365.363 197.3 365.363 196V191.5C365.363 190.18 365.633 189.05 366.173 188.11C366.713 187.17 367.473 186.45 368.453 185.95C369.453 185.45 370.613 185.2 371.933 185.2C373.833 185.2 375.363 185.71 376.523 186.73C377.683 187.75 378.293 189.14 378.353 190.9H375.653C375.593 189.84 375.233 189.03 374.573 188.47C373.933 187.89 373.053 187.6 371.933 187.6C370.753 187.6 369.813 187.94 369.113 188.62C368.413 189.28 368.063 190.23 368.063 191.47V196C368.063 197.24 368.413 198.2 369.113 198.88C369.813 199.56 370.753 199.9 371.933 199.9C373.053 199.9 373.933 199.61 374.573 199.03C375.233 198.45 375.593 197.64 375.653 196.6H378.353C378.293 198.36 377.683 199.75 376.523 200.77C375.363 201.79 373.833 202.3 371.933 202.3ZM389.801 202.3C388.461 202.3 387.291 202.04 386.291 201.52C385.311 200.98 384.551 200.23 384.011 199.27C383.471 198.29 383.201 197.15 383.201 195.85V186.25C383.201 184.93 383.471 183.79 384.011 182.83C384.551 181.87 385.311 181.13 386.291 180.61C387.291 180.07 388.461 179.8 389.801 179.8C391.161 179.8 392.331 180.07 393.311 180.61C394.291 181.13 395.051 181.87 395.591 182.83C396.131 183.79 396.401 184.93 396.401 186.25V195.85C396.401 197.15 396.131 198.29 395.591 199.27C395.051 200.23 394.281 200.98 393.281 201.52C392.301 202.04 391.141 202.3 389.801 202.3ZM389.801 199.99C391.001 199.99 391.961 199.61 392.681 198.85C393.421 198.07 393.791 197.07 393.791 195.85V186.25C393.791 185.03 393.421 184.04 392.681 183.28C391.961 182.5 391.001 182.11 389.801 182.11C388.601 182.11 387.631 182.5 386.891 183.28C386.171 184.04 385.811 185.03 385.811 186.25V195.85C385.811 197.07 386.171 198.07 386.891 198.85C387.631 199.61 388.601 199.99 389.801 199.99ZM389.801 192.82C389.261 192.82 388.821 192.65 388.481 192.31C388.161 191.97 388.001 191.52 388.001 190.96C388.001 190.42 388.161 189.99 388.481 189.67C388.821 189.33 389.261 189.16 389.801 189.16C390.341 189.16 390.771 189.33 391.091 189.67C391.431 189.99 391.601 190.42 391.601 190.96C391.601 191.52 391.431 191.97 391.091 192.31C390.771 192.65 390.341 192.82 389.801 192.82ZM407.459 202.3C406.139 202.3 404.979 202.04 403.979 201.52C402.999 200.98 402.239 200.24 401.699 199.3C401.159 198.36 400.889 197.26 400.889 196H403.589C403.589 197.22 403.929 198.18 404.609 198.88C405.309 199.56 406.269 199.9 407.489 199.9C408.729 199.9 409.689 199.54 410.369 198.82C411.049 198.1 411.389 197.16 411.389 196V194.44C411.389 193.2 411.049 192.24 410.369 191.56C409.689 190.88 408.729 190.54 407.489 190.54H405.239V187.84L410.669 182.56H401.789V180.1H413.399V182.8L407.549 188.47V188.14C409.549 188.14 411.139 188.71 412.319 189.85C413.499 190.99 414.089 192.52 414.089 194.44V196C414.089 197.26 413.809 198.36 413.249 199.3C412.709 200.24 411.939 200.98 410.939 201.52C409.939 202.04 408.779 202.3 407.459 202.3ZM419.477 202V199.54H425.417V182.35L419.477 186.79V183.79L424.427 180.1H428.117V199.54H432.977V202H419.477ZM443.436 202.3C442.116 202.3 440.956 202.04 439.956 201.52C438.976 200.98 438.216 200.24 437.676 199.3C437.136 198.36 436.866 197.26 436.866 196H439.566C439.566 197.22 439.906 198.18 440.586 198.88C441.286 199.56 442.246 199.9 443.466 199.9C444.706 199.9 445.666 199.54 446.346 198.82C447.026 198.1 447.366 197.16 447.366 196V194.44C447.366 193.2 447.026 192.24 446.346 191.56C445.666 190.88 444.706 190.54 443.466 190.54H441.216V187.84L446.646 182.56H437.766V180.1H449.376V182.8L443.526 188.47V188.14C445.526 188.14 447.116 188.71 448.296 189.85C449.476 190.99 450.066 192.52 450.066 194.44V196C450.066 197.26 449.786 198.36 449.226 199.3C448.686 200.24 447.916 200.98 446.916 201.52C445.916 202.04 444.756 202.3 443.436 202.3ZM461.754 202.3C460.454 202.3 459.314 202.04 458.334 201.52C457.374 201 456.624 200.27 456.084 199.33C455.564 198.37 455.304 197.26 455.304 196V191.5C455.304 190.22 455.564 189.11 456.084 188.17C456.624 187.23 457.374 186.5 458.334 185.98C459.314 185.46 460.454 185.2 461.754 185.2C463.054 185.2 464.184 185.46 465.144 185.98C466.124 186.5 466.874 187.23 467.394 188.17C467.934 189.11 468.204 190.22 468.204 191.5V194.41H457.944V196C457.944 197.3 458.274 198.3 458.934 199C459.594 199.68 460.534 200.02 461.754 200.02C462.794 200.02 463.634 199.84 464.274 199.48C464.914 199.1 465.304 198.54 465.444 197.8H468.144C467.964 199.18 467.284 200.28 466.104 201.1C464.944 201.9 463.494 202.3 461.754 202.3ZM465.564 192.61V191.5C465.564 190.2 465.234 189.2 464.574 188.5C463.934 187.8 462.994 187.45 461.754 187.45C460.534 187.45 459.594 187.8 458.934 188.5C458.274 189.2 457.944 190.2 457.944 191.5V192.37H465.774L465.564 192.61ZM479.862 202.3C478.542 202.3 477.382 202.05 476.382 201.55C475.402 201.05 474.642 200.33 474.102 199.39C473.562 198.43 473.292 197.3 473.292 196V191.5C473.292 190.18 473.562 189.05 474.102 188.11C474.642 187.17 475.402 186.45 476.382 185.95C477.382 185.45 478.542 185.2 479.862 185.2C481.762 185.2 483.292 185.71 484.452 186.73C485.612 187.75 486.222 189.14 486.282 190.9H483.582C483.522 189.84 483.162 189.03 482.502 188.47C481.862 187.89 480.982 187.6 479.862 187.6C478.682 187.6 477.742 187.94 477.042 188.62C476.342 189.28 475.992 190.23 475.992 191.47V196C475.992 197.24 476.342 198.2 477.042 198.88C477.742 199.56 478.682 199.9 479.862 199.9C480.982 199.9 481.862 199.61 482.502 199.03C483.162 198.45 483.522 197.64 483.582 196.6H486.282C486.222 198.36 485.612 199.75 484.452 200.77C483.292 201.79 481.762 202.3 479.862 202.3ZM497.67 202.3C495.89 202.3 494.43 201.84 493.29 200.92C492.15 200 491.48 198.76 491.28 197.2H493.98C494.08 198.06 494.45 198.73 495.09 199.21C495.73 199.67 496.6 199.9 497.7 199.9C498.96 199.9 499.9 199.56 500.52 198.88C501.16 198.2 501.48 197.24 501.48 196V193.87C501.48 192.63 501.16 191.67 500.52 190.99C499.9 190.31 498.97 189.97 497.73 189.97C496.95 189.97 496.27 190.18 495.69 190.6C495.11 191 494.69 191.54 494.43 192.22H491.73L491.88 180.1H503.4V182.56H494.49L494.4 189.85H495.24L494.4 190.63C494.4 189.69 494.77 188.95 495.51 188.41C496.27 187.87 497.28 187.6 498.54 187.6C500.32 187.58 501.7 188.13 502.68 189.25C503.68 190.35 504.18 191.89 504.18 193.87V196C504.18 197.94 503.61 199.48 502.47 200.62C501.33 201.74 499.73 202.3 497.67 202.3ZM515.719 202.3C514.419 202.3 513.279 202.04 512.299 201.52C511.339 201 510.589 200.27 510.049 199.33C509.529 198.37 509.269 197.26 509.269 196V191.5C509.269 190.22 509.529 189.11 510.049 188.17C510.589 187.23 511.339 186.5 512.299 185.98C513.279 185.46 514.419 185.2 515.719 185.2C517.019 185.2 518.149 185.46 519.109 185.98C520.089 186.5 520.839 187.23 521.359 188.17C521.899 189.11 522.169 190.22 522.169 191.5V194.41H511.909V196C511.909 197.3 512.239 198.3 512.899 199C513.559 199.68 514.499 200.02 515.719 200.02C516.759 200.02 517.599 199.84 518.239 199.48C518.879 199.1 519.269 198.54 519.409 197.8H522.109C521.929 199.18 521.249 200.28 520.069 201.1C518.909 201.9 517.459 202.3 515.719 202.3ZM519.529 192.61V191.5C519.529 190.2 519.199 189.2 518.539 188.5C517.899 187.8 516.959 187.45 515.719 187.45C514.499 187.45 513.559 187.8 512.899 188.5C512.239 189.2 511.909 190.2 511.909 191.5V192.37H519.739L519.529 192.61ZM530.317 202L536.527 192.04L536.407 191.95C536.027 192.51 535.507 192.94 534.847 193.24C534.187 193.54 533.447 193.69 532.627 193.69C531.447 193.69 530.407 193.41 529.507 192.85C528.627 192.29 527.947 191.5 527.467 190.48C526.987 189.44 526.747 188.23 526.747 186.85C526.747 185.43 527.037 184.2 527.617 183.16C528.197 182.1 529.007 181.28 530.047 180.7C531.087 180.1 532.297 179.8 533.677 179.8C535.077 179.8 536.297 180.1 537.337 180.7C538.397 181.28 539.217 182.1 539.797 183.16C540.377 184.2 540.667 185.43 540.667 186.85C540.667 187.95 540.507 189.03 540.187 190.09C539.887 191.15 539.427 192.17 538.807 193.15L533.317 202H530.317ZM533.707 191.5C534.987 191.5 536.017 191.08 536.797 190.24C537.577 189.38 537.967 188.25 537.967 186.85C537.967 185.45 537.577 184.33 536.797 183.49C536.017 182.63 534.987 182.2 533.707 182.2C532.427 182.2 531.397 182.63 530.617 183.49C529.837 184.33 529.447 185.45 529.447 186.85C529.447 188.25 529.837 189.38 530.617 190.24C531.397 191.08 532.427 191.5 533.707 191.5ZM551.695 202.3C550.355 202.3 549.185 202.07 548.185 201.61C547.205 201.13 546.445 200.45 545.905 199.57C545.365 198.69 545.095 197.66 545.095 196.48C545.095 195.18 545.445 194.06 546.145 193.12C546.865 192.18 547.995 191.34 549.535 190.6L552.445 189.19C553.325 188.77 554.005 188.22 554.485 187.54C554.965 186.86 555.205 186.11 555.205 185.29C555.205 184.33 554.885 183.57 554.245 183.01C553.625 182.45 552.775 182.17 551.695 182.17C550.615 182.17 549.755 182.46 549.115 183.04C548.495 183.6 548.185 184.36 548.185 185.32C548.185 186.12 548.415 186.86 548.875 187.54C549.355 188.22 550.005 188.76 550.825 189.16L553.735 190.54C555.335 191.28 556.495 192.13 557.215 193.09C557.935 194.03 558.295 195.16 558.295 196.48C558.295 198.26 557.695 199.68 556.495 200.74C555.315 201.78 553.715 202.3 551.695 202.3ZM551.695 199.9C552.915 199.9 553.875 199.59 554.575 198.97C555.295 198.33 555.655 197.48 555.655 196.42C555.655 195.56 555.425 194.78 554.965 194.08C554.505 193.38 553.845 192.82 552.985 192.4L550.105 190.99C548.505 190.21 547.345 189.37 546.625 188.47C545.905 187.57 545.545 186.49 545.545 185.23C545.545 184.11 545.795 183.14 546.295 182.32C546.795 181.5 547.505 180.87 548.425 180.43C549.345 179.99 550.435 179.77 551.695 179.77C552.955 179.77 554.045 179.99 554.965 180.43C555.885 180.87 556.595 181.5 557.095 182.32C557.595 183.14 557.845 184.11 557.845 185.23C557.845 186.49 557.485 187.57 556.765 188.47C556.045 189.35 554.855 190.2 553.195 191.02L550.315 192.43C549.495 192.83 548.855 193.38 548.395 194.08C547.955 194.76 547.735 195.52 547.735 196.36C547.735 197.44 548.085 198.3 548.785 198.94C549.505 199.58 550.475 199.9 551.695 199.9ZM567.284 202V189.61H562.484V187.15H567.284V184.3C567.284 183 567.694 181.98 568.514 181.24C569.334 180.48 570.464 180.1 571.904 180.1H576.734V182.56H571.904C571.284 182.56 570.804 182.71 570.464 183.01C570.144 183.29 569.984 183.72 569.984 184.3V187.15H576.734V189.61H569.984V202H567.284ZM585.272 202V189.61H580.472V187.15H585.272V184.3C585.272 183 585.682 181.98 586.502 181.24C587.322 180.48 588.452 180.1 589.892 180.1H594.722V182.56H589.892C589.272 182.56 588.792 182.71 588.452 183.01C588.132 183.29 587.972 183.72 587.972 184.3V187.15H594.722V189.61H587.972V202H585.272ZM602.27 202L608.48 192.04L608.36 191.95C607.98 192.51 607.46 192.94 606.8 193.24C606.14 193.54 605.4 193.69 604.58 193.69C603.4 193.69 602.36 193.41 601.46 192.85C600.58 192.29 599.9 191.5 599.42 190.48C598.94 189.44 598.7 188.23 598.7 186.85C598.7 185.43 598.99 184.2 599.57 183.16C600.15 182.1 600.96 181.28 602 180.7C603.04 180.1 604.25 179.8 605.63 179.8C607.03 179.8 608.25 180.1 609.29 180.7C610.35 181.28 611.17 182.1 611.75 183.16C612.33 184.2 612.62 185.43 612.62 186.85C612.62 187.95 612.46 189.03 612.14 190.09C611.84 191.15 611.38 192.17 610.76 193.15L605.27 202H602.27ZM605.66 191.5C606.94 191.5 607.97 191.08 608.75 190.24C609.53 189.38 609.92 188.25 609.92 186.85C609.92 185.45 609.53 184.33 608.75 183.49C607.97 182.63 606.94 182.2 605.66 182.2C604.38 182.2 603.35 182.63 602.57 183.49C601.79 184.33 601.4 185.45 601.4 186.85C601.4 188.25 601.79 189.38 602.57 190.24C603.35 191.08 604.38 191.5 605.66 191.5ZM621.248 202V189.61H616.448V187.15H621.248V184.3C621.248 183 621.658 181.98 622.478 181.24C623.298 180.48 624.428 180.1 625.868 180.1H630.698V182.56H625.868C625.248 182.56 624.768 182.71 624.428 183.01C624.108 183.29 623.948 183.72 623.948 184.3V187.15H630.698V189.61H623.948V202H621.248ZM644.673 202.3C643.913 202.3 643.313 202.08 642.873 201.64C642.413 201.2 642.183 200.61 642.183 199.87C642.183 199.09 642.413 198.47 642.873 198.01C643.313 197.55 643.913 197.32 644.673 197.32C645.433 197.32 646.043 197.55 646.503 198.01C646.943 198.47 647.163 199.09 647.163 199.87C647.163 200.61 646.943 201.2 646.503 201.64C646.043 202.08 645.433 202.3 644.673 202.3ZM659.643 202.3C658.883 202.3 658.283 202.08 657.843 201.64C657.383 201.2 657.153 200.61 657.153 199.87C657.153 199.09 657.383 198.47 657.843 198.01C658.283 197.55 658.883 197.32 659.643 197.32C660.403 197.32 661.013 197.55 661.473 198.01C661.913 198.47 662.133 199.09 662.133 199.87C662.133 200.61 661.913 201.2 661.473 201.64C661.013 202.08 660.403 202.3 659.643 202.3ZM674.613 202.3C673.853 202.3 673.243 202.08 672.783 201.64C672.343 201.2 672.123 200.61 672.123 199.87C672.123 199.09 672.343 198.47 672.783 198.01C673.243 197.55 673.853 197.32 674.613 197.32C675.373 197.32 675.973 197.55 676.413 198.01C676.873 198.47 677.103 199.09 677.103 199.87C677.103 200.61 676.873 201.2 676.413 201.64C675.973 202.08 675.373 202.3 674.613 202.3Z" fill="#65DE28"/>
<rect y="152" width="54" height="78" fill="white" fill-opacity="0.93"/>
<rect x="738" y="154" width="57" height="78" fill="white" fill-opacity="0.87"/>
</svg>
